<mxfile host="Electron" agent="Mozilla/5.0 (Windows NT 10.0; Win64; x64) AppleWebKit/537.36 (KHTML, like Gecko) draw.io/24.7.8 Chrome/128.0.6613.36 Electron/32.0.1 Safari/537.36" version="24.7.8">
  <diagram name="Page-1" id="vXSWHocims4ngboUARlf">
    <mxGraphModel dx="1912" dy="1115" grid="1" gridSize="10" guides="1" tooltips="1" connect="1" arrows="1" fold="1" page="1" pageScale="1" pageWidth="1100" pageHeight="850" math="0" shadow="0">
      <root>
        <mxCell id="0" />
        <mxCell id="1" parent="0" />
        <mxCell id="sbGto4yJ8yf5grZlzPR4-3" value="" style="rounded=0;whiteSpace=wrap;html=1;strokeColor=none;" vertex="1" parent="1">
          <mxGeometry x="270" y="170" width="1250" height="810" as="geometry" />
        </mxCell>
        <mxCell id="sbGto4yJ8yf5grZlzPR4-1" value="" style="shape=image;verticalLabelPosition=bottom;labelBackgroundColor=default;verticalAlign=top;aspect=fixed;imageAspect=0;image=data:image/png,iVBORw0KGgoAAAANSUhEUgAABKQAAAJ3CAYAAACqWYlrAAAAAXNSR0IArs4c6QAAAARnQU1BAACxjwv8YQUAAAAJcEhZcwAAEnQAABJ0Ad5mH3gAAP+lSURBVHhe7P0LXFTnvS/+f9LQ/5CQw3jpHi8cp8CWVAzEouxEgWM4w7E0kEZFxSAnFC+UbcRLBLU5oLEKr9Q4GjXYbIIaSzZSMeKlATfxDAfdgjZFqcFIGvyDHY8a2fUCOyRwSprfujwDM8MMguIE5PPee+qz1sysWetZaxLnk+f5rke+lYCIiIiIiIiIiMhFvif+JCIiIiIiIiIicgkGUkRERERERERE5FIMpIiIiIiIiIiIyKUYSBERERERERERkUsxkCIiIiIiIiIiIpdiIEVERERERERERC7FQIqIiIiIiIiIiFyKgRQREREREREREbkUAykiIiIiIiIiInIpBlJERERERERERORSDKSIiIiIiIiIiMilGEgREREREREREZFLMZAiIiIiIiIiIiKXYiBFREREREREREQuxUCKiIiIiIiIiIhcioEUERERERERERG5FAMpIiIiIiIiIiJyKQZSRERERERERETkUgykiIiIiIiIiIjIpRhIERERERERERGRSzGQIiIiIiIiIiIil2IgRURERERERERELsVAioiIiIiIiIiIXIqBFBERERERERERuRQDKSIiIiIiIiIicikGUkRERERERERE5FIMpIiIiIiIiIiIyKUYSBERERERERERkUsxkCIiIiIiIiIiIpdiIEVERERERERERC7FQIqIiIiIiIiIiFyKgRQREREREREREbkUAykiIiIiIiIiInIpBlJERERERERERORSDKSIiIiIiIiIiMilGEgREREREREREZFLMZAiIiIiIiIiIiKXYiBFREREREREREQuxUCKiIiIiIiIiIhc6pFvJaJNRERERESEL2/cEC0iIhqInhgxQrT6LwZSRERERERk45P8fHy0erVYIiKigWTE00/j5WPHxFL/xSl7RERERERERETkUgykiIiIiIiIiIjIpRhIERERERERERGRSzGQIiIiIiIiIiIil2IgRURERERERERELsVAioiIiIiIiIiIXIqBFBERERERERERuRQDKSIiIiIiIiIicikGUkRERERERERE5FIMpIiIiIiIiIiIyKUYSBERERERERERkUsxkCIiIiIiIiIiIpdiIEVERERERERERC7FQIqIiIiIiIiIiFyKgRQREREREREREbkUAykiIiIiIiIiInIpBlJERERERERERORSDKSIiIiIiIiIiMilGEgREREREREREZFLMZAiIiIiIiIiIiKXYiBFREREREREREQuxUCKiIiIiIiIiIhcioEUERERERERERG5FAMpIiIiIiIiIiJyKQZSRERERERERETkUgykiIiIiIiIiIjIpRhIERERERERERGRSzGQIiIiIiIiIiIil2IgRURERERERERELsVAioiIiIiIiIiIXIqBFBERERERERERuRQDKSIiIiIiIiIicikGUkRERERERERE5FIMpIiIiIiIiIiIyKUYSBERERERERERkUsxkCIiIiIiIiIiIpdiIEVERERERERERC7FQIqIiIiIiIiIiFyKgRQREREREREREbkUAykiIiIiIiIiInIpBlJERERERERERORSDKSIiIiIiIiIiMilGEgREREREREREZFLMZAiIiIiIiIiIiKXYiBFREREREREREQu9ci3EtEmIiIiIiLCJ/n5+Gj1arHUXyQjtnYd9J5isZfaW9rwTbMZTQ11uHqyADVvl6FRPDdgTVuH2I2J0I/RSAfYhrZPC/C/X0lH7WXxfF9y5Wf1G7255syojZuC4pNisVdmIqY6G746sXgXN/d74b2VYqEPBR+oRXiIs4OtQ41XOErF0r3RI2h7HsJm+EHjJi1K38f6nCQUbbugPk19ZsTTT+PlY8fEUv/FEVJERERERDQA5KDQ3wtGrykoXL0X126J1T3k5qGBZpQfdCFRCPrl+0j4Sy3mv78O/t7iBQNOHGLeTFYDIpmbdHwTEhH57jpo1TV9yJWf1Z9YrrlIFP36EG42i9UO6aFPihPtXpo7EyO6DaPa0FS2A6VR8r48mDBKVjUnUvpuFaCxRazoY9rXc/HcbBFGyTz18F31PmLmimUadBhIERERERHRAGKGOT8d+zJNcPq7ubkC5dIPdyW8Sk6B6e1DMF+ySxPcPDHckIzostOIWREgVg4gC2bCy0GI4faUAZNFu8+48rP6pQuofzsF7+05i3axxhGPZ+PuqT8mvxQGD9F26FIRCl/ehJrzYvmBkb9babhxXSz2sclTA2DJojrp4DUjUbRpsGEgRUREREREA8/+RrSKpnPSD+wPD6H61ykofM4feZsr0GKfKGjkURpHMX/7zId8tA/dtz/ccB6Cyjwm4cmNerHQQ95ZeHKiBu2XzWgTq+y1NdahSbSJHiYMpIiIiIiIaFBo3BaLfb+ucPDDX4Phs7cgZqtBLA8Aew7hqoMiWO2fluGMaPcZV35Wf3aySRkh1dbovPqYzrAavYmk9KsM0Lk1wlx2Rax5eJ05ecHBCLNGXD28V7RpsGEgRUREREREg0bTO2moPudoLIoGw+dmYfo0sdjvFaBodQ7MV8SxyIXGz+9F6S82PIDRNK78rAHgUgWuORsq5R2K4B7XRApF4I/1wOUKVJnFqodY06+ScOKDOrRZUim5qPnml1G0XyzToMNAioiIiIiIBhEzTm0ucRKk6OGXYezVCJfv1PENKJzsqxS6Nv7QF29HPcC73rnys/q9GtT8wdkoKR30Ly0T7buYmwy9N9D0pwLpqhwMzKheHo63f6gWZzf6T+Ed9gY5BlJERERERDS4nHwT5kuibW9sNCYniTaREzW5Jtx0UuHcbWI0Inpw90almHn7BdRvrhBriAYXBlJERERERDTImHHmT87GpHhi9ItrRJvIiZNpqHU49VPiFgDfVaFiwQlLMfNzxTAN2pFmNNg98q1EtImIiIiIiPBJfj4+Wr1aLPVXRsy/GofhYslGcwXK/WNRJRYdWlCIpRtDoRGLNlrO4syTL+KUWOxKD/3iZZj8UjRGj/GEm9hIe3MjblX8Dn/M3NTj6Wy6BUaEx0dghI8OGsvOtLdJ27qBxrK9OPVWDsw22+rmuBV1qPEKR6lYsqZ81s+lffaW9lncf7/9Vh2uHSvAmd8cg25zKcJ1xTA+l6Y+eR+fZaENScbkV+PgG6CHh2dnb8t91XTBhJq3dqCq0lk4eJfPv1Qg9jUAQW+uw4+fD8bwYeIz2ppxs6IAJ17egHp1TR9Q9+eJyg14e04OMDcPi7dGwEM8a6PRhNKgBNSIRXvajaVIWqBD/cogtYZSknQ9rnd8PbZZPu8u5L4OXhwNvb8ftMM6r0tZe0szms4X40+Zaag+L1Y6EXniKgLHioUOXc+149d1sux38IFahId4irVd2R9f99vt3I8u17Nc2+zyKdRkJqD8uPLiuxDXjSEQ2n/o/E7I107LZ9J2frsdp/YPzCmFI55+Gi8fOyaW+i+OkCIiIiIiosFnjxlfimYXHn4YvUC07U1IxPSKcsRmxEE/VoOWsnTkeU1B4bYKfOOpg+75ZYguK0f0jLtUovKWt1OPhI3SdsZp8eXv06TtRMJU1gg5SXAbpsfo2esQe6wUETaF1tPwnvS6orcd3S3QOd+t5Zgnf9ZYT+DyIZRGecEYlYaazzQYHS99TsVpB6HBvX2WKgCT3z+N+QfWITDEDx6aJtRvi0WulxfyVu5FY7sOw0PiEH6gHEnSa3zFu2xJnx8ai9LD3VRYmrAMMVVHEREf2hlGyTSeGG5IxosnjE623Qf224eFVnRhCFwh2l2EIswQADTWoLYvCnrLfXCmXunHIGmz5rcW4T1fL+TO2YC6y+qZc/OQ+kPq74ij1YhdIb2oD5T+PBZHfl2CJruLo+2zEpxZHYs8ETJVzfGX9iUNtZd6dhWVPid9n1YfQpOTKZHqtVXdcT13BEnS90YzNgLBOeWIvMvNCbQJuUiql75b8nUzStrGN43i+pyC4t/WwW1CFCZvLUXa1asOH/O3ig3RfWEgRUREREREg1AdWppFswtPeDj6zT5tHeb9axb8vEXw8WkBChftRSPMMG+OxelKsUGNH/y35jn/UeydjNjfd26n/dO9KFpeIG3nAqpfPoRG6x/ingEI2lqIYJuaRBdQ/2sTbjjdfztJhYie6wf1d7sZDWtTUCOPkjlfANOcKTi6v87B7fgtevlZCj2CDxxAmEEvPhNozJ+Oos0VSjH5xv3p2LfSUlheo4zsebEiF0GO6i5drkDN/guOi9B7BErnYw18RzkaV6RyGxuHiByDWOprFThV5mwEjQajo7KgFUs2LMXMK3NQK1bds2lGzD8k9cEYtQ+aTqbAlK/2s7z9I/FFuKk8I7jpoF91ALF9USdNOjd1byehvqMeWxuaPkxHXkQSTol9sGiqLEDx2Z6Wbpe+T/nS9+G6WLShxYjfy9eWruPa6kL6/gVuzHUaRGoXFyLhjShorS6bpuOp4vo0o/ZXL+KPH/c+gqXeYyBFRERERERkx33YTNGyiEPMm8kYPUwsSj++rx1Pt/nRXfVRTedIIqc/ig2I/O0a6K2203h8g9V2bqD1K9G0GBaKoLvVJHJKj4g51lPBRsDjWdvRW/UrE1DlrB7SPdC/mYcwm9FWdbix1i6MOL4R16xGF7l5R+G5t9c4DnBONjkOzEYFSOejDS1lO1AY6oW8zY5HcmmfSYS/aPe1prXFuNYiFuw9ZUDYVNG20nfFzEMRvT4Ow62CFe3P7ILQy46CV0/o56wT7fvkvQYjlCCxDTc/SEVh8l6b78S9q0Crw0tSB91ET7RfN+HMnCkwRm2C+ZZ4ytqYYPx4lmhbm2pEjPRdso0wzbj2Rploq85UXrC95trqUJMo7g4oPd5bKdbTfWEgRUREREREg1AOmpzduV/i5qETLZVvzjL42qwy4+Zm0bTItZsGOCYCk+2mbWlfXwP/sdY/h+23I+3XNdG04q6712lWifD6kWgqNBi9+AhibKZtmXFqs2XE0n3yXofw2ZbRWEJzo+0oHYUZN67ZJiVuExMR2cuRO22Vm7Dv5U3K1LnGbWn43NHdE3V63GUC5X3YgZo/OLuQpM9NihNtizXwfaqvipnPhM5+VJk8Om9ZD4ryjwpAkGjeOzlcTcZoDzWMKlp+qI/CqLu4VYFTsxNwSq49dn4HSo/XiSes6aB1kOFOfjXGJsBTNF/BDftzccAMm5xRDpjfzEOgWKS+wUCKiIiIiIioW8sw+b/bRRoOQ5ZmfGMzrEIDXYR1OBCHiBkBdw1r5NEZ9tpbuknPuuWJR+3nNml08F11FEnvL5N+tgsn30T9p6J9H/SrnofO/gd/o9lhgfmWllbRspBH7jiZ5uZIy1lUr8qxCkHMuNnoaG7hCGid1QTrAzW5ttPTrHk8G4fJoi3TbjRgtEcjzL/bIdbcD8fTTtvu9GBqnHRNPCqa98aA8N/vVIqPN324wXVhlDwyMS8NVVYBUlNto8ORcU+MShQti0Sl7lsXTU3o8u263Np1VF63dcHoXjCQIiIiIiKiQSgZWttBULbarX7iJoVhuP2t1ByGLF2n27l5T+ociTLreYzo7jOFprWblDvPtYtfxG2fHcKZ9YfUhT6jgdawBgm1pYhQCrCbYSo5200tqZ4IRdCkno9Fqr3lIML4UXDPR+5c/xynejrK6P7Sl+6dTEGNs5pDHpPw5EZLn3QWM6/ri2LmyEHhshyYr3R+tnKtrC0QS4Burh88+vzYDYj4aCeCJ3qi5dgi5PbZNL2ekEcU9rAWlfVtBhUB8OiYKmulTa4cZc9R2KeBh/+9Tp0lRxhIERERERER2fny+l7RAvxD/exqzvTCMF3HKCT9T/xgn2s5VobyOVOw7YdqvZq3I1JQfc/Tuw6hsbv3ykXTd5Zi/vZEaLe9iG3PpYkn7sVMDBsjmlbam/9DtHrATQ9dXxTcdrEzvztlO8XLis6wWp0yaFXMvEZ5pg8c34DCyb4dtY0s14pubhZiz9QjYWtc1zD1vhgQadqFoKfUGmEekxIH1TQ2d08/0aK+wECKiIiIiIgGoRFwf1w0u2hGi9WsOQ8Pd9GyMjbOwe3g10FvXcvbjm7YENGy4qnDcNF8MCpQvNdxse9Onhg+OwsJH2U5vTNZjyzQ4wnRtPZN6x3R6glPeDyoCuQP0v4cpY6VQ96hCJ4LBM/+pz4qZt6NCYmINtUiYWsi9GPk6XR7YXY0i/FeeCdiesUuBI6zimd1EZj8wO5i2NcuoMVRAXSHhsDNwciyL690BtV0/xhIERERERHR4DN1DDTO7hvfUodre0RbMlznIGVqrkC5GJXS/SMcpeItDrcDLTwc3Q2sL+XGonh/3V2n42meSsSLJuO9FwB/kNPi+r0KnCrrWvtLpYP+pVw8OcGzj4qZOxKAoO3lWHo0C/7j5OusGdfekafT9XB6212NgO8H6+Dn3XWsoPanWYi2vrNfv7UX5ksOolmdHsGi2ekfoOkyssyMxg9Fk/oEAykiIiIiIhp8/rveefHsy1U4JZqyNkfDix7XOhwN1B2H21HuBnbPEVCP1a8Mx9F3zqLlLqmU27gYhL/+4PfnYdS0thjXnMzbc3smCqM9mnGtpC+KmduZtg7zqksRMduvI2Rt+mAJ9mWWqQt9whMe/9CExk8dFNd308Pvl/cRZLrQmbeKcNP+e+holGJS19F+bSf3ovikWKA+wUCKiIiIiIgGneAAZz+f23CtZINoq75scjDn6R5qHTncjmR4QHLP7yx3H+ozX8S+5Tm41u0N+zTQTV0m2r2Ua8aXotkT2kcdVeZqRkutaA44O1Dzh246t/GPqM0V7b4yzYj5OckYbV0s/0oJTMv7MoySNaJ+7XTk/eRN1DvKpAZKkHkyDUWb7aew+mFER+F5VfBPAm3qxrV/VoDiuByxRH2FgRQREREREQ0yy5TpUw5dLsGpbaItVDXcEC1rnhgd1bvgpuqCk+lTTxkQNlW0+5wR8z8/isliqenwBuwLelm9i59Y18VoR1OYeqICTd2GXbb8RjuoqYUbaOrr0MaFanKlPhBte31azFxhwPSNcRhul+s1/WEj6kW77zShJU++fgtQ9GuTgwLuGujisxHmLRb7saZ3YpG3ZC8arepJ6eL3Y/qCAKkVgMA3SzElRPzzob0NTWWbsC8i7QH0KTGQIiIiIiKiQUW7MRqjHd55rBH1O1K63gL+wzqHIYPbM3GY3l3tHHn0iim3s1D4b6vQ6DAF0sNv1ZoHNErqP9CGSXjSZgSIehe/fWtL0ORwGuG9OoS6C10TKY2uF3cm+7QCZ0RzQDr5JmrPOejUB1HMfMUK+HS5q2EzmpwFn31lfwL+eNLBaD+PSQh++0Fdx32r6XA68n6Whqrz4jgelb6DG0uRdrUUkfEBePSWGdeO7UDpi77IfXmH9E8GehAYSBERERER0eDhvQbRc+WREPbacHN/Kor2i0VrJ/fimsNC1NKP2K2FCHY0KsQ7GTFvxGD4MA06sq/L6fjcUVghcZsovX6r47uV6VYUYnHtUYSJ5d65g/ZvpG1MW9vlDnqNe5KQm1zQtabOlQuoEs3eqsk14aZ96KbROqwv9ITWfpSaPF0y3ekIo4HBjFP/eqrLCKL2T8r6vJh50LN+6FqXX75L4YOfOlcVtw1mB3es6+467j/08H+9EEllRvxYewqmKC8Yf2h7M4JtgVOwb9Em1JwXb6EHgoEUERERERENDhOWIeaDZAejo9pw84NUFK10VnenAsV77evOCMNCEX6sHNN/GQe9EkwFwHdpNuYfWwffUW0w/ybBZpqWw6LKCg2Gz92FpANZCAxRAwVtSBwiDpzGvFXBaD22zabQeq+NiULEdgdBwfE01Jy1Hu3ShsaK+7i1/ck0nDhsN0Jn2AgHgdRMDPsH0RTaP92LYrvpkv2Kt7uDAMiB/Tkw24RPUp+aNom2E6O1NjWLeuJRJzsz/PlchM+QenyCfP38M0Y7mp3qOQZe93VnvBwU7nD0nZCu4xnrENmP77rnuzUPkb8IhVbTjGv/moRqhk7fGQZSREREREQ08EzTwl00u/AMxJMb42Cp86ybloiwXaVYfGgNfEfZ/exvM6Nu7Yt4b/mh7kfm5KbhdKXjouTw9IPfUiNiK64qU35ifjkTwz3lEVdLUGhfD8lhUWULDbQhiYg8cFrazlUkHTAiKESPbyo3dROW9Zx29k7My+gaSrm7d/ZJ+6UinPrV/U35ql+ejupPrfrKIwC+9gWv587ECOtC3I0VOPWLDY7PwVRtz4KgB8z3tUnKdDTNmOAuo81sScdSdkG0JY2nUHOXoM13jHVn2JKnPDqaBue0JplnAIJ3StdQiRHjtRUwXxHrbejht1e6XmsKe1gvTAN3+zpnubGOvxMaPwQ6GznYY6Gwuiz7ztw8RM61jCzzxOiZRgROUBboO8BAioiIiIiIBhA99PFZmLc1qnMqXBfSD80FRiRclQOiq0jYm4XJzwfAw/oHbksjGj/YgELDFBzZYxUeOGVG1ZxImD7sphi4RXsjrr2zCO85CZHkosr7N5vuXr+pvRk3P0hH3pwcu6AmAIEbozHCYV12PUZvt4zWkh1DS8fUKqlfFu/C4kNGBCujsOTtHEXQRNExcij0c/vizb35LIsymH6yxKpwuga6nx9BzKpQJVjRzZXOX0ZEx/lr++wQTDNjUeVoSpt3KIITAhzXJRoTjOh4dZsyebvjAxwOB8KIqDXwvcfgQRsShcnbyxH9ggjVxkQh2pSLMKvPtte0thjXxLy9bouZS8cXuLEQkQbngRTGxmCePHLOfv9/VeRw2pxCunYa81KQ95MUVJ2sc3zNttWhZqXU72JR/W4ZMWKUWLShl/rX/lzr0dLUKtp2hoUiLD9XXGdyHyZj+rN2oaSgGReBsGnW02il/VicCJ2T/bC55uRRYDNt74hnoQmIttsu4P98oM0/N9yeikNkifrPCYePv9Rjxee1WHziqDIKspuzRPfgkW8lok1ERERERIRP8vPx0erVYqm/SEZs7TroHQYjPdDWhrZbZtysrYL5w704tb8nIZRj2hlrEP7zGdA/NQIaq5SrvbkRtyp+h+q3e1h7xnsmwjLmw//ZAGiH2W6n6YIJf8pMczCdyIj5V+MwXCw51wzzen9lhFbkiXqMPrsI7/0WmBz/z3hyaiCGjfKEmxh21H6rDteO7UX56r12xZt7/1n2nPZVSzPaLv0Rn3/wJkxOA8GefX5b5Qa8fSUOaXPvVjy9DjVe4SgVS3fXs2vu5n4vvLdSLFgJfL8akVMbUf1cpIP6UT3t265sPm9CIqK3roH/OLGT0rVzs6oEVcZ0q2tQj6DteQj7mR808ilol74Ll0pwamWKzfUVfKAW4Za7yznV2Yc9e30z7jQAQ3x68MW9VADjc2nS9XoVgWPFOmeaK1Dub0ZgD/rQur+CCmoRMbUH++KMHNomxuJMP5/mN+Lpp/HysWNiqf9iIEVERERERDb6ZyBFRHSfkgqxdH2owxFVPXapAIXPpXW9G2c/MlACKU7ZIyIiIiIiIqKHX24aTvVk2m13xkYgeJZo031hIEVEREREREREg4AZ1clzcfTds2i751RKB22oaNJ9YSBFRERERERERA89bUI25teeRswvJkHjJt80YBOOzJkCo5dX10doLI4sS8GpPSbctLuZ4Dfd3pKTeoqBFBERERERERE95OIQ8epMDBc1zdsqt+G95TtQV+mkGtTlCtQdPIQzaxPwXnKJ1Z0uzbj5f0ST7gsDKSIiIiIiIiJ6yE2CVieaktZbvbjTprlNNID2T4/h1EmxQPeFgRQRERERERERPeQO4dpnncGSduoaTJ4gFroVgMmbI6CVm40VOPWLDVajpeh+MJAiIiIiIiIioodcBUoXbkDtZ6IglOckhB2qRsL7WZg8ywCrwVOAdyj8Zi1DRE4h5teWIixEg6bKHBTPjEXVZfEaum+PfCsRbSIiIiIiInySn4+PVq8WS0REDxdtSBwC586E74/9oB2lxaMaDdzcxJOy9jbp/9vQcqUONyv/N/70wQ7UnxfPDQAjnn4aLx87Jpb6LwZSRERERERkg4EUEdHANVACKU7ZIyIiIiIiIiIil2IgRURERERERERELsVAioiIiIiIiIiIXIqBFBERERERERERuRQDKSIiIiIiIiIicikGUkRERERERERE5FIMpIiIiIiIiIiIyKUYSBERERERERERkUsxkCIiIiIiIiIiIpdiIEVERERERERERC7FQIqIiIiIiIiIiFyKgRQREREREREREbkUAykiIiIiIiIiInIpBlJERERERERERORSDKSIiIiIiIiIiMilGEgREREREREREZFLMZAiIiIiIiIiIiKXYiBFREREREREREQuxUCKiIiIiIiIiIhcioEUERERERERERG5FAMpIiIiIiIiIiJyKQZSRERERERERETkUgykiIiIiIiIiIjIpRhIERERERERERGRSzGQIiIiIiIiepCmrsO82qtI+0st5r0eKla6SjKmn6lH2tV6JO1KFuvuX/Cu01hx9SpWnMlFsFhHZGNCHMJ2lWLx51ex9EDvrz3d3DWYXlKNFdL3JjZJrKSHCgMpIiIiIiIawPTQLzYi1lSNpZ/LwcvVjseK2mrMP2BEcIhevPY7MsOA0Z7Sn26eGG2Yqa5zlaQI6MdopIYG2tCIPgqPkuEbqoeb1HIbEwZfhgVkIxnRJ6qx4qgRk58PgIeHWN1Do1fkYn7NVSRsXQa/CTq4yRcaPZQYSBERERER0YCknbEOsWfKEZsRhxGoQvWvFyHPywtG6ZE7Jw1VH12B26Q4hB8oR9KBdfD3Fm90tR3HcK1Z+rO9GdfKDqnrXCX3EOovt0mNNjRVmKRe6gs5qC0zo11qtV85hfpcdS2RKgfFzwVh26IStIg1vXHt8EYUBXqhtKxRrKGH1SPfSkSbiIiIiIgIn+Tn46PVq8VS/+SbcRSRSZPg4daGmx+komj5ITSJ52x4JyPmgzXwHaUBGitwKjEWZ86L5/qQfudpRLRNwXsrxQqiQW8N5n2+DKM9gLbKDXh7To5Y30Nby5E2109qNMO83h+FDD57bMTTT+PlY8fEUv/FEVJERERERDSgaBcXInqxHEbJP3Q3OQ+jZJdzUDR7LxrlQUK6UIT9ayGC+3qklHcyJhu+42mBRP3OHbR/I5r3Qh6CRw81BlJERERERDRweK/D9FWhkKsioeUsqlflOA+jLC5vQPkxs9oeFoopm5OhVZf6gB7Bm1dAL9eIIqK+U9cIOUemhxcDKSIiIiIiGjCCN8dBp6RRQNv5Ypy6rLbvxry5AjdFWxOSiPBpYuG+GBD++1KEhzCNIiLqLdaQIiIiIiIiG/23hlRnTRq5SPe1bb7Yt1l5ogdCMf1MIfzGqEstZWl45+UCdUG+Pf3SRARODYDbebXWjW9GHp6bG4Hhw9SXtF2pQM2v01B+WIy0mmVEQmYcdE6yKOuaOdqQZEx+NQ5PPuOHLw962dWZCkDgL5cjaHYEdKPMqPEKR6m0Lmh7NsJ+5geNHL61N+Pm8XdQvGgH1DLPBkzetQ7/ZOh8vunjApjmbEC98rwVB8fWIakQS9eL0WZ31Yj6ZUEoOii3rfbZowrl/rE2xdIdHa9uQTZ++kqUdIzSp7W3oe1SCU4tTEG1k0BRLlgfIW1D7+3ZcZe19lt1MH+wHaZfdTNF8268ZyJ843L4B/vBw3Lu2qT+O29C1Xppf6zqi0WeuIrAsWJBUSfOjyr4QK1dGGn7vKN+Mq/Iw/RXIqCV6yqd34viqPSu50zoun2ZpZ6SEfOvxmG4WGvt5v7Oa6zLNi4VwPhcmliQ9KI/LHRz12DKz1+Cz1PuuJYp7cvHyxCTswK+8t0cmy+gelkkTMflVyYjtnadMnqw2xpSExIR/cZy+I7TqdezRPm+HQMCfyFfn6wh1VusIUVERERERNSXFk/C8I5byN9Ayx9Es0cqcPWKfKs7lUfA8/CfugYxpq63p/fdWo4XF3eGUTLNmFAEbz2CmMWiVtTBNOT5y3f0K+gYeSUHAfId/uSH8uN7hhHzquqVO/wFhvhBY3f7+uCd5Vj6l1JELhVBjcx7JqJPHEXEDD0ebRcTltw8Mfz5NZi1N06pVxVTtQthz/vZPC+HQJHy8xYTl2H6iVqkldzt1vvSj/23X+64O2HnYwrKKzv7q63yX2A6OAmTdznYZwuHx6tHUM5pzNs4E8M8gXa5LpCbBppxM/Hcu+scTp2Ua4TN254MX50ZtasjlX0p3GZCm4cffH+RjaSrV5FmedQUIki87260CblIKstG8I/bUL8jFrnSceYlbkLddQ20z8xExKHqzvMrKX1O6gc5MLouVtipmuOPXDkE7PK8k36SjmvuKjWMkmkmxCB4gdp2pGrVIpTmX+icttYu9ceSSBHMpOG90FicsTpHaD6LM3NsC+vL+5j37gX1joiXDqF0WWcY1dv+GL0iF/NrriJh6zL4TdCpQaFbMmL/dY0aRsk8AzB+QaLa7gFlHw5lwX9cK8ybxT6s3IsbbsEIVsIoepgxkCIiIiIiooHBT2f1A7UNrSdFs4cab90RLcmwERhxchOKIuxuT6+NQeTzQF1m549j83URCWh08H3FiGB16e7+tAPFwb7IfUcNBOxVLQnH2z98GXUdgYYW+t+ug+5PG5D3Q19se1J675JDuCk+3iMkEfN2r8Dwhr0oDvVSnjdGbYL5lnj+vyciXG0C5w6j/Of+MCbe5db7l4pR+usyMfKqk3ZVNsIsI2saTSifI9fqOovazAS7fbZiOd49F8QKwH1SHiaPPYsTUer+bpPeWytGRbk99TzCpqrtDlONiFkVqtw98VpOJEr3y9syw7w5AcWH69TXSG4eTkPxshQUr9yAarGuW/J210dB+6gZtSul7b5ToYyyajy+A0dCF6n7JJ/fVXmItJ7OeX4vTBViVJwDTZU5qDpr//xZnFlkf251CPy5DvVLIlGcdwFt8gVxqwb1ZeqzDl2uQM3qJFSfswSPbWj/k9VnSc+fmvMOrllO8C0zaiq77mvjV9L72y+g5ucpqLGMeLqH/ri2LQnvBXqh6Fjn1eIxOxEeZSnIW7IXjUo21owbJ7s7KCvW+5A8BUcs+7A/HYWzpevaKmujhxMDKSIiIiIiGhCCRo0QLUlzY8fIpJ4yt3SMNVFH6YgmjjehVTQ1o5pQ/VI4ip39OB4WivEbe3hHvctmZRtNJ83dhEJluNrQ+cu78a3peG+59ONeLDcdTkHNWfG8h/S5v5+jjMqxhDo4vwNnLCGEmx66jhE30mfLrzl+CU3dJFJfNtYp+2hDDgoWT4IywEkelbM6ATXKE9L+SMck7/NNS0hnzXK85qaOUT1ujQXYF2E99asMxYfPioBuBLTPKo0O/gsiMFw+Me11uLZNXWdhXlmGRpHsDQ+YhGsHD6H2eGf45ZweYatilO22f3IYxcp0MmvSPu0wqedI44fADKP0jk5N3zg4Vis215UNq37y1OObY3KodgG1r0Xi7R96wRgYiyrLeXTKjFP/ekpcP37QrwpVWp12oOYP4mrxntQ14JOOJGLaJOBcMUwdn3V//VH/5yvi/HlC+80x5S6XjYfTxYhBfxS+0zUU60qP8AyxD+cKuu7D5Ryckb439HBjIEVERERERANCa5slNpI86g530exLbZ+ZcMa+bo7847is88ex7tmeT0lSnGzq4R3sm9BqqVFlperKDdG6gZvbugYwNoHIo+LPDt3cej83Fu91qetjQORGNSiQR6HdPJjuILCQzkVrNyFNrhlfiuaXVxzcBfFOK9Rd0kAzSml00Pvo1MZXTR3b6GRCk2XEkU4PP9G8K+9l8JuoHBCa6jYpf3axPwfXroj22AgEzxLt+9TRT81VuPirewxY9h/CDZE5aScl2oRDsppPLAGRHvokq2mbsqmr4ftUI8y/2yFWSO63PzrOXzOuHdjQ9fz2xKxM+D8l74O0jY+s9s2K+dJ/9PB7QwMVAykiIiIiIhoQam9Z/fT18ITTskg90dLc/VQ2O+bNZzt/eP/DWPiL5sPGd3sWAseqYUX7p3tRtLKH06/62uNaPCGanSrQXQ7m1CvBovh3G9ocTTVUVMDcMVJNB639QKTv1CFUWUbBjQlG8Fy1qQpF5AsB+OaW2jEez8ZhstJS6eMnQXu5AlX7xQpZP+gP/U/8xPf3Dlqc1d7uCL7oYcVAioiIiIiIBoa6xo6pYHK9JY9ejmIJHmM15e/WDfRqvMrlGjRZfp+7u99fGNZfzc1D5Gwx/qa5Aqd+cY+jX+6DuUEMBXLTYViX8xsKdzUrk85fY5e6V84EWZ/3blRft4xEA54Ykyxa/YN5s2W6og76l5Yp6xRzk+E76gL+mCmm9XlMwpMdU0rjEPyMHk1/KrC51vtDf/j6WPaxDe13nbZIDysGUkRERERENDC8cxY3O4Y16fBEgGj20HD5Nm9Cy2clvQukrLW29mp01YDgnYzYjAgRtDXDvCOtB/WN+l7tHpMo4q6D10t2IYh3FLTKFL82NH70Zo/P36MddzfsOkXQmdZbPalN5UKX01H/iRrHuj31P8QoKD0iFoYBlQU4YzWtT2dYrU7rWxEH/bALqN9coay36A/9obEEi9I+uHmLJg06DKSIiIiIiGiA2IT6TzvHSA0LXiNaPbEGw8eIJsww7zkk2vfgPy6hVjQfDnoEb14B/TB1qeX4hh4Wpn4ATqahaHMFWtoBTcgKzN+eCLmqlDYkGdPz46BzA9oqN+FIL+ox1V3rvLtiz0b6tKHlkm2I0x+cMom7NVpGQc3NxJNj6/D5+gJppdW0Pu9QBM/VIyLKvpi5ql/0R0dxqCHweF40adBhIEVERERERAPGmbeKxAgawO3p5xHZ5a5ijmk3GjBazLNrO7kXxSfVds+NgPvjauvmhb1q4yGhXZWNsBB19Fj7pQKUJsoBx3en6Z0NqD7XjPZbwBM/y0LC1atIOrAOPp5m1L+bgrw5Dgqld6PpZF3HiDbN2FAEirY97aNi2I58h7/NatOWBu49vN4eiG0FMFtGQU1djfD/GQbN+c7AyWZa3/80wutHdsXMhb7rj3tnvmKZcOmJEYb+NT2SXIeBFBERERERDRwn03DicJ06wMLND/6r1kCrPNEN72REzlbn98mBS3Gc/Z3lOj3qPkS07KwIxjB5qlPbBTTs+I5GDz0IU42IWTwJyiyutjrUZqahXnnCVuSBQgSL9oMVirBDBxA26hSOBvrjbV8vGL3Ux7bAcBT96lDv61odzEH9JdHWhSFwhWjbCfRVayu1fVyEcqUlWI3m0Twlmh0MCB9nqcn0oAOrAlR9LK69sTMR/PQNNPzGKnC6nA7zn9Wm28RQ6G7VoNa6mLnF/fZHH6g9VtMZij2TiOhpYoEGFQZSREREREQ0oNSvDMfR/Woo5TYxGbE5ic5DqQnLEPPBGug9gfbrJpz6uePAxcLtR6EI61LTxoDoOXJo04abhzeh3EltJe24dep+TDNivim78/b8U7Vq4CN5YlSiaN2LHhRy76gPZDEEbo+qLc0wP7XRwYDIjTEYrgyEaUPjbxNQelx5wk4ytPK8OSvulurinjpxxzYrC/Qdd8hze7SjF3pE+/o6BD8jnaxv2uAR0rv3OleB0swSEWRpMHphIYLtz7F3Fnyflo6p5SyqV9kFln8wi/DEE6Nfyoa/eK8yjfDETvh4tKorpDOunSbts3cAdPbbd3jXwN4z51vd7fHPZSi3O1/lJWc78rOmyhwnU0vvsz86rjFPuI8WTYc6RxVqtHaF1PdnoOacZaijHv5bjyJ8htX59p6J6JeCpb2TeWL4swbpT6l/u3w3aSBjIEVERERERAOOHErtW3sIN5s10L6QhflnjiJyqUGpNyTTTUtE2K5SLD60Br6j1B/nR4MT7l6o22MSgj8oRMRcdUSVHDpEm3YqIUTLyU0oWlmmrO9UgVvi1vluE5KRVF+PtF3RaPldiii6HYCgpOCOwEwTEIXJE8SCRBuyBk8GWIqt6zF6+0ybcE0JPUIsQZIOI2YkQ2/9o3xCHKInWX7Ie2LEz9Z1BCby9vzfkPrEcktAn2BEW/3o992ehcCx6k9+p3WZJhgQVvDP0FsFUtoZWfD9kQikuuxzACY/HyiCBOm1z65FkNXxKs//pPP54c9mI9Dq+dE+OjXv8J6JyAOnkXb1aufjL/VY8bn8qEXSoVyEWQcYd3M8CUdEbSoMC0WY1TnWzc3CvEOJ0H1Th9rVKThlf43II4o+EwXFx85E9Al1P5IOrID25BK8d7ZzzJZuwWks/e06jP+xvF0jxk8Q59YtAIEH1tieu3tx8k3Ufyo3mmE+kN51tJhlWl9712LmNu61P6TrLXKmJSiSXju7EGEOg0P52gtVRxXKxhoQLbavMuPU0g2ouyxCqWHS926n1HdnyjHfJP1ZtgW6W3WwVIzzeP59rKjOw+RnxQp6KDzyrUS0iYiIiIiI8El+Pj5avVos9XfSD/1fLkfgjDDodJ5ws/xSbm9De/MNNP6pDLXGdFSfF+sdMmL+1ThlpE9bZQ4uus3E+Ik6aMSP6bbrF2De/y8o3+x4upgc0EzfKP2Al4uCSz+iazcnoDjPDCQVYun60I4f79baKjfgNFYgXNRustUM83p/1P+k1snzwM39XqgZ4+x5+f3F8FivHlMXlwpgfA4dx9wjzRUo94/F8BNXEThWrLNRh5r1jXiym+N9+0oc0ubaj9JSycfz3kqp4Z2I6N1r4D/O8XHbaG9E3eogHHE0Lc0J7Yw1CP/FS9CPk86v2NH25kbcqvgd/pi5CbXOAku7/WqXznPdWyko3nMB2FqOtFkjcPPjYtS8tUMpLh7ptJ/Uc1uYKxbvxYqjWDrHjCOhltDTVuD71Yh44j1sm9m1fpS9XvWHfJxOzp9yfudYRlIlI7Z2nTIqsQvl2ksTC7IABG3fgsk/CYCHeL38fav/TSqKH12HpRnBaP/UhJrfbsep/f3szof92Iinn8bLx46Jpf6LgRQREREREdkYWIFUX7AOpKx/WJPLeSdien4yNAeSUPh/dPAfazVeTPsk9BPGKCOoNPpJ8HpGj0fP7cC2n21SnycixUAJpDhlj4iIiIiIiPoBAyJ/uw4+tw6jdNsF4HwZag8e6nzs2YTS5Skolh5FM6fgdGUz3CzDeohowGEgRURERERERN+5wL1blJpWLfUFDqdG2jLAa4wGjRV7xTIRDTQMpIiIiIiIiOg7FgXfALVyunZGKeZvXwZfm2LoFnro47MQW7UL+itOCrET0YDAGlJERERERGRjcNWQCkDg9mxEzPZT7+7WfBZnFqbgVCWDDlfTLs5D7KoIaK1n4bW1oV2+E5yFRgM3tzY0lW3DkZd3QL6hHBHZYg0pIiIiIiKi/ky+a9jVUkRawiiZ5yRMPnAaabWFCBaryDWa3klAriEW5fkVuHm9WQ2i5ADKQ3rIIVXbDdz6uACmKF/kMowiGvA4QoqIiIiIiGwMvrvsERE9PDhCioiIiIiIiIiIyAEGUkRERERERERE5FKcskdERA9E8vvJ+LL1S7FEREQDidcnt6Ar+kQsERHRQDJQpuwxkCIiogdCDqTePfmuWCIiooFklftPGUgREQ1QrCFFRERERERERETkAAMpIiIiIiIiIiJyKQZSRERERERERETkUgykiIiIiIiIiIjIpRhIERERERERERGRSzGQIiIiIiIiIiIil2IgRURERERERERELsVAioiIiIiIiIiIXIqBFBERERERERERuRQDKSIiIiIiIiIicikGUkRERERERERE5FIMpIiIiIiIiIiIyKUYSBERERERERERkUsxkCIiIiIiIiIiIpdiIEVERERERERERC7FQIqIiIiIiIiIiFyKgRQREREREREREbkUAykiIiIiIiIiInIpBlJERERERERERORSDKSIiIiIiIiIiMilGEgREREREREREZFLMZAiIiIiIiIiIiKXYiBFREREREREREQuxUCKiIiIiIiIiIhcioEUERERERERERG5FAMpIiIiIiIiIiJyKQZSRERERERERETkUgykiIiIiIiIiIjIpRhIERERERERPXAzMf3MVaT9pRrT54pVfSnjKFZcvYoVJeugFatc6rv+fCIacBhIERERERHRoKFbYETsiVqsqL+KtKvqY0VtNea/n4XACeJFRET0wD3yrUS0iYiI+kzy+8l49+S7YomIiAaSVe4/ha7oE7H0sDAgomQngiZ4ou2zQ/jjr/8FZ45fACYYMDl+BQJnT4IWZtRvnouid8ziPfcoqRCx/rEoXCmWHyqhiDyQjJtzElAl1gx2wQcKMXxOLErFMtF3bcTTT+PlY8fEUv/FEVJERERERPSQMyDyxC41jKrcgLyIFDWMkp0vw5nVLyI3uQA3oYdvRiliF+vV5+6JAdGJofAQSw8b7eLleDLAXSwRpmUj6BmdWCCi3mAgRUREREREDzXf7VkIHKsBGk0on5ODJrHexvE0mI7JI6M8oV9mRLC3urp39Ag+sBP+9/TeAWCaETGrQiH1JMm8kxG7dSa0bmKZiHqFU/aIiOiB4JQ9IqKB6+GasrcM8z5fg9EeQMvxFLyTeEisd8DbiPkVcRguNZsOxyJ3SQUwIQ5hSxMRODUArR964cStQkQkhEIrD4G6VYe63yTgiDLFLxnTz6yB3xi7uOZSAYzPpUEbkoywjH+G31NNqP1heMf0Lt3cNZjy85fgM0Fa75WAxu15CPuZHzTyZhrPomr1iyg/bkD4gSwEPqOHxg1ov2LCqZcSUHVZ3QYQgMCNqxE8IwJPfLYBb8/JUVdvLUfaXD+17UijCcVBCaiVmtoZ6xD5yzjox3iqz7U142bZOyhetAON0qL+9aOYvmCS8vmdmmFe74/CXCefL+gWZOOnr0RBN0rtm3ap38z7N6Aos0xZlmlnrEH4L6R+UPonAebXjQiLV/u56/E6o0eQ3H8zpP6T91M6hqYrrWg7G4S8ldK5vaqeWwt5tJxlX4MP1CI8RBy7OGfwTkT07jXwH6eub79lRlN7M64FRaI0KRdJr0VBa3e6b+73wntiqqZ9n8rHXbc5AcV56pRQ+ZqY/GocnnxmBG5k+qNqhHRtyccsv7xFem2mdG3lQT0myzVx6wKqV0bCdFzZhGraOsRuTJQ+R92Ztut1aG1rRHVoLKdVDlKcskdERERERNTHfDMKkfS5KEheU47ohLtMr0sKw3Bl/lwzbv6hmzBKdrkCTXL6ItEGzIT2+SzErE9EoCEAHtI23MYUIjLBD+1X6tDSJr1omB/8MvZj+jT5HTk4MtkXxv118oISTBi9pIccbCw2ImJxDHwn6OBmFeiM/mUuwmc/Dx95PTTQ7s1DoMcxnFq1CbWfNQO6SQhelY3oj7ZA33QYp1aq693GRCDsrWViK1GIyFkNf4N0nMPEKittlZuQJ++H5RG6AWZp00qY9G6GEkbBex2mb02G3qMGp6Kk10RtgrnFE8OfX4OfblT71/yrF/H2D8V7mytQrmxPDqO6/3zfreWYtzEKmj9tUPYjb+VeNMIPvot3Yf5Wg/oiuX9mGaBX+kfuh/34HzO0uHmsBNeut9kdr3Pa13Px3AyNtK+R0r5FojS/Du5jdXhUeTYNxWtL0NSuLKDlWAryrIKzqjmROPWxdHC3KnBqmXTOoEf4u+vg73EKJqVP0lBzeQiG60QClZuEXF8v1FySF+pQI/rXEkYpo8m2JsLjD/JxT0Hxu2fxjXS9+K/PQ6R8vcRLx/xqNHyfUcMzd8NRPDfBjJqMdFRXNqLdQ7q2XpVe8/5+BOur8MdVYv2wAAStz5b2ziIOMW8mY8StvSgO9ULuHOkctemhdXAuiPobBlJERERERDQwTM1GxGIxOkkm/8DPyMZkseiQv65zipkcInXrEFqUsEai08PvWDqKZkbij2fVlR4+rfjjT4LwXkQ43jFIP/xvyWul163KglZ5hRPvpKHoZen1V8SycO3XSSicU4Bryubd0XY4AXmLNqH64A4ULyzGTXn1jybB7V+nW603KVMO3caGIUh+HiUwJSeg8PAFiKzFSh3Mb6sjnFR6hL29BnpPOajahlJL8fZXDJBzlrbPTDhzXlo+vwOlZWIUz7jnlT+d6+bzvdcpo5XcPi1A4SI5iAIa96djX6YJLdJZGT43C9FTpZVK//wLrio7OgLathzkBUWiaHkS9q0UxzsuDMHy093wC9DD7f+eRfkeuT7YBdSsfRHlZZ1H37gnCaZ/U49LM3yM3dTNMUrY1Hg4Te0DPA/dGA2a/rAR1UqfFMD0sw2o79xcN0IRvT4O2k9zpGMokI7bjNpfvYjTldKJ1kjX7CvLgHzpmOekwPx/5ddLnf/Z/8J7c6TPPrgXpjn/ol4TukB4/TkduTPt1nsHwF9+m8w7VNrvZtz4/QbUXgaaKnNwJF76zFbxPFE/xkCKiIiIiIgGhhkBXYMfjzEYHS/a3bqBpj2ieY+aTlpNG7ucg8K8s2oI86NgEQ51pwKt3QZiTWg9LAIi2eU6NRz76gquiileisut6me6QYz8Ee604hvR7LAyCUdOirZEuyobwRM1yiig09a1tOoa0Sb935cNotC7pOnClbvnd9YcfL5+1fNK0HXzQrpt+LM/A59/Kjf00C+YqazqDAPNMCfv7Xz9ySo0Ket7yDsCkSsCxAJQc7jG5rPr3ziGRunA3CZGI8K61tfcZOj/4QI+X2vV1xKtwYjJE8QCClB73vZ5h2ZJ2/JuQ+PJTTafXXXlhvJnZ7hmRrtyMtvQeq2z7+XRdupIvRu4YTWt0TlPjH4pu7N22eV0mM8zkaL+j4EUERERERENDIcv2AYbspYruJYv2t0aAW2SaPaVzVW4JQcKbpr+X+hbnpa3eBLc0Ij6TLvaQrmxeNvLF++trlDqGkUeKMfSjPsvXu4/Tp5Y1iyXQ7JjRl2DGux4+IQqf/aFqg9MaGrzhH5VKZaeyEP4DOnzDyagyDKNTnZ5A6orGqVzFoAnN8aJlcDkl8Kg+fR/44xYlkOh2jIz2oeFIuxoLea/v04JfGoTEzrqfzn1rB4eUu+NXiGmlloelnpenjqbWlb35fKbqP24GW5jZyK6rBoJ2xMh3/OvXNpP1o+i/o6BFBERERERDQwnU2B6pwJNLWL5Vh1qM1OsQgQHLsijf2QauA1RGt3Qd9Z4umbuwQ/6G2j9SjT7NbkeUqIyWqnpw1QU7RerrU1IRLSpFkkFa6B3q8Lp7IrejZDqIhFaORmBJzx8lBU2zEoRrj62PwWFK3NgvtIGzdgIBO88jaWmbATZ3fWwJteEm+2Ax9REMUpqDXyfaoL5dzuU5y1qlsxF6bvS9faNJ4YbkhF9ohbzt0vHJZ53SrmG5ILval2pro/Oovb3z4xTM+fA9EEd2h7VQTc7Cwn1pxGbIepzEfVjDKSIiIiIiGjAkEf35D4pftgHhnfcscypPadwUwmwNBj+TLKyyrlEDP+vaqux0jacGMj0b+bhx09pgCtyvScHU8CmGTH/UBb8dTU49aKvUrOo6o547p7tRZNSYwtw03YzCqqtN/Px7q7p8AYUTvZF3tpDuCltWjNuJp7bbYRN6fuTaag9J8/bC8CTcq2njQaMvlWFqi5BnVz7SbrefCPVwAeeGD57HWLe7MmoLk9og/tu9Ff3LqB6eTjefi4FVZVmtGv00C/eidi+HhFI1McYSBERERER0UNsB878HzW00kyIRpjdaBlr2o2h0MmjW25V4KJdLSHH/OAh36L/Sp16t7r+aKoREbP94NZuRu3aJNSL1dbCX43BcE0zzL+JFQW9+8Y1s1oBXDtuZpdRRdpH1QmBNy/sVf7sa417UvDe8+lKEXK3caEIkounWznzG7VYukdIIqZPC0DT2b1wfsbVwCdvrSjGPjXRNuCyV2GWXicdY8hyB4XY9QgryEO4WOpTlw+hfM4U7NsjF5j3xOgX14gniPonBlJERERERPRQq09OR82lNsBjEoI2JzueciXfpj8+AGhrRN0OuxpLgpuH7YgX7cZApRbQzcquYYb9aztp4TFLNHviUXe4i2ZPaLQjREtmQORGOWxqw82D6Sg+LlYr9IjeblRaGo+u1aK0HtafqofWOsjrZp+sP78mt0Kt+TU2AhFzlVWCHsH+eqDlrNTXlp6zTJfUwM1RaNiDfgjeW4joaWJBdlk6L5ecjMA6vhH1cmF1jwDoRl1A/eYKdX2HZMQcyIavWJI15VUoo6660sDdOvA6eAw35CxOrj9VkYugjqLoevhvz0OgexXKxZru2W3XISNiD9he041rbQu5E/VXDKSIiIiIiOghV4bSn29A3eU2aELWIcGUjcnTxJ3YJhgw+c2jSMqJw3C52Pb66TiSqz5lTzvNiOmLQ6Uf//KUqFzExgeg/VIBTqy0CjOa1NpI2gmJmLwgC/MOZEuvlkxYhxGj5IYOw6d21vfRzgiGVh5lhREYbnV3uI71Hn7QW63XrXgST8gNTz94yUW7FXr4P+sHJVYaE4BgEej4bl0H/7EaaR+LpH20nqon7f8qI3zFZptuyfvsidELCxGxIBFhu0oR+9IY5S5+moAYxJpyET5JfmUj2uWbt0n75LtROj7pdTEr5PWOP1+p+bW/Du3SMfuuL0XkXPkDAxD4Zi7G/6gZ5rdScMpy18IJydAp0yWlfvi5o34Yg9EJ3Y5Lkl4TCP8d5YhealAKe2tnrMP4AE+0f1aBaqu7DarMMO2WRzxJ/lwBk2U/rLgFzER0x7UiHePrMRjh2YabJzsDyDbldOuhS1iGoI1HEbtdDiILYHq3Ai3t0ja8oxBRchUrPq/HivrTiP4ZUP+WmA7acU14Qit9Vkeo1LFe2u6szvXaGYHQPi639BjxemcfeYSska6zLASGyP0TgKBdodK13IxrRzepLyDqpx75ViLaREREfSb5/WS8e/JdsURERAPJKvefQlf0iVh6mOjhv2ot/mluGIb9g2dHAfP25kbcqvgd/pi5CbUOgongA7UID/FEy6cX4DY2ABo5eWlvRtPHBTi1aoPde+IQfSJLDYKuVOBPa2NR7l2Ipett71rXVrkBb1+J67zzmiCvP40VyudZc7b+5n4vXJt0FYFjxQpFHWq8yjCiPlkpZO7UpQIYn0sDvJMR87s18B0jvVg6rsZ9/wtHjoUiZq8a0tXvSELRtgvKW/SrChGdEgoPNOPm4U0oWr4Xk084+nxL4W45yDEi7KVQEbxJx3L9Aup/k4riPeo2kdS1f+R9K2+Mdni871nfNc9KcEE1wiZpIZ8g5dy2t6HtUglOLUxBtYPzKo+Ciq1dA7ccX+zbJlZ1kJ6rXoPRHvJoN7FnbdIx/1495o4RSHOzMX/jTAz3aENT5V6Y5mzomBapTcjG9GVR0I1S398mXQ818vUgj1RzcszGs8Fdrgln65VraI4f5tfHQCttyc2ysWYzzPnpKMx0UC+MBoURTz+Nl48dE0v9FwMpIiJ6IAZ8IKUzIDUiFbN+5A//H4zCEI3VRIG/t6K19Q4arp1D5edF2FexG2VqmQwhE5VvTMHB1yKwRawhwCc8H8XT58Ff/k/7f5f676IRs7ZnoVp9uk+44jOIBoOHN5C6N5ZAqrswhAaguXlY/EvgVFACasQqoofBQAmkOGWPiIjIis+4VOSnX8fXG00wGqIwxcvHNoySfc8d7o+PhP/YKCyM2gXTxq9xPb0Y2ZEG+CAIS16ZhynKkHrqoDPiYKwIimTfGwKfgEyUpCwUK/qAKz6DiIgeGsGz/wm4cIxhFNF3hIEUERGRIgjpy+txMdWIed4j4W79b8i/30HtZ7uRsScaE5MewSPyIz0CswqyUHSpAXfgjpHeUVgy24T63HPIDvIRb6QOP41C0PdF28rIf5yHJaLdHZ/Yc/h64y6x5MR9fgYRET3sAuA7Kwp6ucbVtGwETbgh/Xu7QH2KiFyOgRQREZF3OorfrERmgI/dHXxa8cVnWxC/dijGb1mErNMlnVO/GstQVJaBWZt8MXRtPLZc+kI8QX1Ol4pdoUG9ussUEVGfmRAHrzFqHaMnfJYpxbJpYPLf+z5iduQi9kQ9VuyaCRzfgNIuxc6JyFUYSBER0eA2wYjK5ZmIGmofd9xBddksjNqShn029aEcaNyHtE2jEF1RC/nmQ+TAv5Wg+m+ibeWL//8+7BRtx3yQ+nIGDD2ZAnnPn0FE5IRceLrECL8x6qLmmTVIqC1EsLpIA8y1P9Qpd74D2tB0OB2FS1j0m+i7xECKiIgGL10qTImpmGKpOWSl4XQ8JhaUiKWeKdk7HinnOVLKocY0zCrch9ovxbJccPxCBqKyd4sVjkUlFiNz3BCxdBf3+BlERE7lxuJtLy8YrR/+sagST9PA0vROLN75oXQOf+iP96zvlEdE3wkGUkRENEiJkTcOwig0lSBrT+/CKIvd2Rko4d9wHWooj8f4V0UNruSh8L3L3e98Ik3ID/Xv1VS93n4GEREREX03GEgREdHgNG0XMpyMvKk+m4J7H1OzGylnGYHcLzmMqowxoIdjo4iIiIhogGEgRUREg5ABu6Y6CTv+Xo2yggaxcG8aCsoc1jKinomaXYlzsw0Yyb+lEBERET20HvlWItpERER9Jvn9ZLx78l2x1M+EFuN6YhRGikUbX+yG79pFuL9IqieCsHBmBhY+Y0DQsCFwt4Qvf2vFnaZqlH28G5mHdvd4upnPM5kw/vd5MIwZhSEaMcnt761o/aoBldW7kfVvW1DWXXH2aSbcjnU+IunOZ2kYumULoJuHzNlpWPgjf4x8XHzOV1+g+nwmZu3Z2bXf7rJdfFWGtOURkLYsCUL68hJkBIzs4TS9OygrHIoI9OYzHPGBITId6VOiMVE3EkO+L1ZL/XenqQHnLtyl/x5U3xF9h1a5/xS6ok/EEhERDSQjnn4aLx87Jpb6L/63RyIiGnTmBU10HEZJvrhR9sCDAZ9nsnFu+znsiorBlB8MQevV3ViU9QgeSY9A2oXrcP/BFMRE7ZJecxH54T7iXc5EwbjmOuqT0hEz1kcJo+5cEdt7Iw0lX/nA8N+MMGV9i29zHTy2m5Aqb+Z4BIZmRSPr0h1lq44o+52ej/SgoM5ARfb4SARNkZ5LTUWXvZW3Kx3XotN3vwPhkuUlyOxxGGWlF5/RhXc6it+4CNPshTB4SZ/9ZQmytvjikaSJWFReDQz1V/tvfb30mijxJjsPqu+IiIiIHmIMpIiIaJAxYJaXszgKuN28T7QekAm7UJy4BEGPi+WmEqRtWITdl6V2Yxm2/CYCW+pFrPK4P+bFn0OlsyAEUdi18SBSx1odT9tp7PwXsb3LOzErv6jnAdvlEmR85iTU+S+zYLLebweGjMtE/nQHsYp0XLv3VN51P3ZuH6UWI0/ajVqxzsYXu8XzlsdQRBwXz/XwM2zId1lcnomoH4iA6O/V2G2MlvpA3orULghBfJXY4vflUVQHUZ+8xHFw9KD6joiIiOghxUCKiIgGGQNG/RfR7OIOrl8XzQciFabEhfC3TAmT3LlaYldAvQEZ5yqlPbEYgimR2Tg4QSxaSX01HwtH2o4nutNwEBnWU8su7kb1X0VbkKeQ+VpCHfupbF997TBUGeI1BT7fv4Pqf1+EiUm+iHc4GskdUyYsEe3+zoBdr2Ta3mXx+jmk2E3LKzl02irkcodPsNF5cDRo+o6IiIjo/jGQIiKiQWYkhmhE08UWpqTZBiCS67d3ipaV0gbY5mI+iJm9CwaxpBifjyXju1Ytun7TvlJSGSr/ajuVTB6NczC2t6NxWlFbEY+JeXJdqwbs27MblV+Jp6wND1KnAPZzPrFGxHvZhXn/6WBcVuM5NNgcpzumGHb18hgfrr4jIiIi6gsMpIiIiFwiHQvH2U8VvIPrV0XTxh20/l00LUZGIzVUtGXBQQ6mjrXizm3RtNJlW3BH0IRM24Drbv5agrS9JWJBtgUNzaJp7fFR8BfN/suAzAlBUi/Y6hrmya6j1f6OiY8bEB/Xi0Dvoeo7IiIior7BQIqIiMjag/o34/RoBPV4ZNZ13O4yp2skJgbNE20g9R9GiZa1VnztYOTNztsO5iFqfXoVSN35ayWsI5UBbfwSTNGJ9l3tw/WvRdNKkF/Pp9c9VH1HRERE1EcYSBER0SDzBe60iWYXQzDKUc7TB5b4+ncZkQPcxh2HI6QcGzmiV2OauqcZ4vROgw+9YP8ejy5zitPriIiIiO4LAykiIhpkynD9P0XTgVFDH0xh6SBt13pPcghy+6Jo9oSnT0cIsuU/el593aDpGoXhy+uoFs3BZsnwno8uc4rT64iIiIjuCwMpIiIaZMpw8OoXot3VEG2QaPWxR8WffaVKLo9tbwhGeYmmlaAnhopWp9YvyuCgnPqg4M6//RARERF95/hXMiIiGnT2nT0Hp5HUD8YjUzT7tYvx2HnR9u55sq4jvHzgP8RudNbfapH/+yyxQERERETkegykiIho8Dm9BcXOEilNEAwviHYfqr3TNTzqteYGWN8Hbstb8dj9hW318yFeUVgo2orx6QixLuD99y9QdiQai3ozVfAhs+Vmz6c7yoHeY47+tvTVddSKJhERERH1HgMpIiIahMqw6N9KnIyScseUidkOil73nE9kMQ7OFgvClitdJ9g5549Rj4umlTu37Ks+lWDR2hBkXGhA69/FKm0UjK8ZMU8n7ce4TBQnxsPf8m/7L6uxc3cIIkp7sy8PoT83OB8h10UMRj4hmtZu24aDRETUX+ihX2xE7IlapNUUIlisfRD8c04j7epVLN4VJ9b01ExMP3MVaX+pxvS5YtVg4B2K4O2lWPz5VSw9kCxWdmeQ9tMgwkCKiIgGp4poGB1MeVOMiceuyHuLpHzCD8I0PQr+9iFGeSWqLaFRh1HwmSaad/UFKj92VPWpGlnbfRFypAQNf5MWpc8Y4puK/KxvUZ+ajqgnWvHF1TLs/iACvq9ORMrHgzyMkp0uwrkm0e7guP6WM9V/5pRHogFtajaSqvMQKBbp4TE6KRmBPw7EiLGegJtYSf1AHCIyEuH7bAA8PMQqGvQYSBER0aDlaMqbaggMP92FdG+x2ENBL5hQGRcDn+/fwfWrYqVFYwryP7cPwNzxmIORUJgyCl3KkDeWYUuFaFvzXoL89bdxbmYIviiPh2/yI3gkyerxylCMWh+BRaVlDoqgDzBuQ2EQTSAKu9ZfxMEpYrFXdmPLha4T7tw1nVvvJJ0L+5sUtp3GwQIGe0QDWWBSKLS6MASuECv6UlIhYreKNrnctdx0FCcX4UazWPEA1SZPgdHLC+8sKhBreuoQjkz2gvGHQTiyX6x66BXAtCgJpX8wi+WeGIz9NLgwkCIiokFMnvI2CzuvOBgp9YQBma+eQ/YzPRgppZsHY+p1VE43YCTkGk0GRBwXz1nZ8n4myr4SCwp3jBzpIAQZM0rajrUvUFISjzKx1EGXCtPybMzzGgI0liC+cN/AD50Utbhu00/CDwxIfyEI8F6I7NfysXCo1OenxXO9VLY3DfsaxYIwapiDczHFH6Ns/rbUiuqT8eD4KKIBzHsdgkLl4noajI7KglZd20cMiE4MBQeAEDnW9E2baBExkCIiokGvBCkbJiLldC3u2E+pezwIS5LqcXujCfkzlyBmXGc45TMuBvOislGcfh1fb8xH6riRcP9K1Gj60L7Wk9C4BYtKSvCFPLVO8PFLtS1CDh9kjwsSbVkraisWIrrL6CgfGP85EwbL1MAfGLBruuG+al8pHn8M9gOCXG8LSsyOplMOgWH6OXybvgtLfN1RXbHoPuo4yQHeTlRbBV/uY6JgtC4AL1n4zESbcPCLixmYVegk9usXfUdEd6Nf9Tx0Lc1QfhY/ZUB4j6dO340ewQd2wr+Xo2uJiAYrBlJERERowM494zH0jRTs/qxrMDVkpEEJnw6m1uPb3G+VR33qQSWkivIeCXfcQe3pFExcfvcaTQ2l0Qgp3IdaSxAiFyFftwsL5R8wOgNSXzFh4Rj1KfytAWWlszB+b4lYYW0JDF5W8cf3RsLwggn1Yv8cPn7zNb5+qx7nUnch1Spc6yCPPArwdxiqDPmvUcicYAnKfGCIPAiDXXij8ochaaHtc8pxOQnLHp+IqJlRsI7gZPJospLbjqZTqroEQ/fwGTgvnbM9W1D2V/E53w/CkrRiZCp9E4SFcZUwBog46u/qOQ55a4vjUWgPqu+IqI/FIThEj8bDS1B/WV7Ww+eVZcoz9oIP1CoFq9VHOSIdra+1FM1OxvQz5QgP8VSWhs8Vz58wKsuKCYmILqnGir+I5+prMf/9dfAVT6sCEPRmIebXiKLP8ntM4vP+UouEjQ5GcnrPRPj75Vhq2a70usUl2QiyCcYCEPjLXCRU16v75K1u17Iviw+J/Zi2DrFnLJ9Xj6S9yQ5GkOnh/3qeso/K66TH0qpSRCfoxfNA5InO5zr7yG69dd9IfDMKkfS5eE4+hhOnkVTQk8LX0r9KE7KRUCUdm9j2UlOE01Fq2hlWxyg9VtSU2+y7hW5BtnSMndvs8jqrAt3z7aZo3u1YtCHJ4lrovK463b1/ZboF1oXbpetme+c1sLQky+666oZ8HPI1VyuuObtrYH5OonINyH3c0R8Or0WxD/XW+30UETO69q2tZMRKn215j/I+UfDccT/dy3dE/e51fEfsHyaOe/6uMJAiIiKyuLwTi7aMx9DkiYg+tBMll2rR8GUrWq1GNCn+Lq1ru4OGy2XYV7IIE5OHYvyenXAyLqqLhvJ4jJfDq38vQ+3tO3AfuRC70r/Ft1kmGCeMAr6sRdnpLMSv90XEB47CKNkQuPf23+Lfd4f7Ez4IGrcQxtSLuLhgXmeAM82E2/LII+8hYoWdJwxITzmHi4lAauo5mGbHwMfJ5/s8swumdBNS5QV5u/JxBfk4GT00BIaoYpzLvYhdYo2icQuiV89Saj3dser/VqlvSo7H2wZD9/oZsvNpiHhtPOI/LMLpv96RjjMK6UrweA67woPg/tUXqL6wEylvqOfYYRj1oPqOiByy+bHvJExwRrsqDnr3ClxcW4ZTZReUdW4ToxHhYFRT1Rx/5C45hKZ2sUKQ1+dtPquOsOqQgyOTfWHcX6cs3dzvpdQWMj6XpixjmhHzD2XBT1uFEy9K66PSUP0pMNyQjBdPGEV4EIWInNXwCw3G8GHSokcoEv51DXS3TqG2rA5tbp7QLchC9FTlxSpv6cf8oWwE/7gZNcunwBgai/Ljd6CZMBMRvy9EsHJckxCWsw7+z0dAp9NIB6xHzO44uB3fhFLjIdxslj7qmWSEbc9GwhuhaDu8CcW/ltZ/pYF22hpE29TZ0iO44Aiif/FPaPsgBbleU1CYWYLWYQHwf6MUsYvVc1H6nJeDPpLXT0HxBw5qCM3NQ+TiQLTli23++hTax+jh3oOi5NrFhdJ+z4T2+l4Uh3pJ5ywHN3WhGK5mg7ak8xCzNREef9iAPOlzit89i2+G+cF/vfT5ViPlfLeWY97GCOkYU6X9UY9Fed0b+0X/JyNyYzLGGxwU6L7bsSw2ImJxDHwn6ODW5fh61r9+G3MRNi0Uo5XC7VroPzqAsB83wnzYpJxPzYREROwMVV7bvTjpOJbjSWlbSn95RGDeLwPQlP+/YNpTgZZvNBj+wnJEvpGH2GQ9rr2bKtZ3vRYD976PiNl6fPl7db+LP6jDo6MmIej1zLvcPCAHhW+YpGulDS2Ve1E6ZwrenpPjpJ/u4TsCAyJ/K13/45pQvzpS+o6koPaSuDJbzuKU/D2NSFeXyeUe+VYi2kRERH0m+f1kvHvyXbFEfc+AXRtNWGhbbKqX7qCscKjDeldENLitcv8pdEWfiKV+RL47XsFM21E78o/KJ1/EGbHoXCiiKwox+k+xyF0iz4OOQ0y1Eb46oOmwZZ09efTGOug961DjFY5SsRYwYv7VOAxvrkC5fyyqxFpsLUfaXD8lkHpvpVgHPcI/Kkfwj+pQ/VwkTMrILJmTz3+9FGm/CABunUXVyhdRLv4ZHfb7ekyeqLHZduDeaiVIqV8ZhKKOos/i857SoP3jTdg2c4e6enEhlmaEQnO9BMWzk1Ar9kMr7XOStM+4UgLTS0motqzffhpJs/VoO5mOt+P2qivn5mHx1gigLA3vvNxZyFsr7fN8aZ/dbM6Fkz5KkvZjvbQflwo6Ajvls35yxeZ12o2lmDeuCO/I4YRT4vy0mlAalIAasdaynx42n62ef79bO/DezzbBcrNVecSbPLKto6+m5SJpbxTcbI4xDtOrjPAb1Qzzen8U5qpr9TmnEfuC3uac9OxYQjH9jLQvY+yuq1717zok/CUZOrdmXHtnCfZlikqTq45ixYpJcLPq37uxnOv28znYF7UBlhKLlr5pk9YXS+vr7dbfzJeOe7W8JhGxNVnQD7M+HiffHfEdaavcoAZP09Zh3pszgYOpncfQwUk/9eI7Ivd90oIAtBxPwTuJh9SV3llIOJGo9J15rXQ+96irHyYjnn4aLx87Jpb6L46QIiIiGpDKsOiDLTht+Rv1PRkCwxTbKRNERP3ajICuU8g8xmB0vGh3Z24y9P/1Auo3W4KnAlRVqqN15KlB3Y/iuA9TV8PvKQ1wucYqjJIVwPShOkpL/nx/pSW51qSMLGr7rLjjh7aspv6GaFksQ2CIDmiug9nmDmRmlO8+hRapJY/+CldXApaRXi1NHWGUrKm2Uf28K1UdYZSso/i0m7TvwuSXwuCBZtw8aXtXuaZf7YVZTjE8JuHJ19V1veYZjMDtnWFj09oK3JAPohvarXHQe0qv/TinM4yS7a9QRgrZmCWdf+82NJ7sDKNkVVfUfnUbF6ZMLfSPD5b2oRE3DlsfYwGOBMuj3jrDKJm5xX4MmHDXY6lAq4O39q5/b6BVnv7fXIPPrYOcA2bl3PeG5Vx/03KjI4ySWfrmy886wygbHSOX6tDUKG3jViNuijXyyKcmu5uH2NPOyMb8rc+j5a3pDsIomeN+6vl3BPAbp44qa70lwijZ5RI0XRftR8Wf9J1gIEVERDRQnU9DSHYKihqd11q6q+FBnB5GRAPH4Qs2YYKi5Qqu5Yu2U3qE/c8w4ORem1DIvLkMjXJQowtD0Os9n/rXKy+oIVpbozqdz1rTcbN6PDq9tIfd63J3sgVhGC5PF7vViC5b3v8pmpRESg9dkrrq/iVCP1YOp+6gpcvI2gI0/l91/7QBPav7ZK3prcO41qzB8NnZmF9diugFAdLaDShK7G50FBAU4Cf9bxtaLjka3WbnWT085DsrrrCqHSQ/5NFhMk8dhkt/6H3kQn5NaDmorO21ez2WPuvfy60d2aPrVKA0whfGQHlUmKhXVlWPwLHiaUdGx2He9plwK0vHkTwH0zjvQZfviBW3R62/YVZB1zfiT/pOMJAiIiIakKJgTK3H1+nZiNG5o/V2GXYWRGNi0iN4xMFjYnY84guysO/SF7CJr/7WCst/JCQi6vdOpsD0ToUatshu1aE2M+Xu0/Wmrob/RA08DEbbMKJCnrYjv0AD3U9W3zUUuhdBY0Yof2qGieDD2smmew8PxumkvZZ46hwUsL6D9j7/oR0AD7luD4ZI/aissNHqcChLD13ehH0vpaP2s2a46QLgv7EUK84U3uUOiDMx7B/kP9vQ7ujGrPaU8yxPuRP1vbo85Clhk8SAMA3c7vVuifd0LLIH1782xeQ7Ho4Kqt8PuRi7XN+tFJHxfmj6QOqDS+IpR+TRZdI50c7e2VEb60GoqqhTvmNaf+sC/TPhIdfMaqmD+SGcrjeQMJAiIiIagHziMpU75alFvGuRb4xASlmJ08Lq1ef3YV9ZBuI3jcKW+s5IqvU/KrFPtImIBoL6zFjkPilChMBwFPdgdEVgUii0lw+hsEsIIT02n1VDIfluY3OVl/ep6utiGpGH1nng1S6XdO6lOnWqHTTuTu8oJ/1THu23RPO+1aFFmQangZs8lMiJ9pa7zNNy5vxeFEfIheRzYL7SBrcx0vnY2nmHvq4aoQ6I8YSHg6zPMU9og7sr9i1dC8o2R0A7R1lxb3p9LLIH179NdXW4+VnXx33N+rdhKcYejPZjKciVvpdHfl3QfdjaVITS/XJY5An9q9kIu9cA8G62bcKfzksd+1QMpr8uT6MMQOD25dDr2nDzw209qD1HDxIDKSIiogEoZnTH/fGAtjv4ohd/P739/yyB1BcoO8VbHRPRw24ZAp/V4tqBFDiMrqQfrHXKND4d9C8tU1b1qT+Imj5j/OBv/6Pb210duHO5psd3au1wvE69A6CHH0Y7m5Yn15e6x6lnXR3DzSvynxoMf8bZtLFm3KywqtVzD5oOb0Dh5BdR/WkbMCwYT64ST3RRgSZRJ0rrv0ZtdKdCPQ/akOUOgiE9wgrylHpbNxvljWowelqW1YgaYaoRMTtnioW76/mxyB5c/55ZFI73IuwfSX0Xxsxai3+aqlNqMxUtP9TjoKt+ZQJOVUr97TEJwb+13G2yr1Wg/C2TdF6lc//zbCRdLUXk81o05qWiaKWjulXkSgykiIiIBqAtn5xDxwwFzRTMWzAPVhGVUz7P5GPhPw6RWq2orViI6B6U3SAiGsh8c+Iw+pYJp7aJFV1U4FSZWlzcbWIMIm1uGX8Bbcqvay08OkZP6eH/RmDXsMKKm4fVKJz9OTArgZcffDfGKasstAv9pO204dqHOzp/xHcUinasY9uX0/H5OXk4jyf0c+zCk7nqbfybTv5L593t7uJRd/nfDd0xw1SijibTPBODCJtwLQ76sdIHXjmFqo6i3/+BNjkBelwLbcdrAzDZ4AdlVpybe+c+by20m7Z1AaYLdx/5Vn7ygrI/bhNnYLqjKXGiLpTi4DHckP/jzbBQhFXkImiCulo5n9vzEOhehXJpqeqDP6oBojyiJsNq7pz3TES/LvX9ya6BkPswq5CqV8ciXVezRLPX/XsXmm5G5PWSzfXsyDCtg8s2AG5WK7XejvbGjKo5S5Qi+25j4xB9wHpanTXrfpL09Dsi805G7NZQNP3aH2/7ilGRTwZh32s9D87owWEgRURENBAdj0B8aRka/qYu+kzJx7mNJuTPXIKYcbbRVNCEeVgycxeK06/jYtI8+P+tFvsKQjB+b4l4BRHRw0gP/eJcRExTfwhrOwIIe3rlR7AyvcjND/5v5CI4xPLjuQL1dXKKoYPv+nLEbM9F7IlShI9tUkMLz2D8k7Q8fdUkeQloUuZ7SZ+ViMkLsjDvQLa09QoUry/ATekpD8M6JLwZJ21N2uJcI6bPDkBb5SYUb7YEFnoETVUDG41PsNWIqgCEi7uFacdGKe+XnXl1E8zylLyn4jDv/TXQS6/XhqxBzKowaC4VwJRsGQGih/+zY9QgSPckJluHMWK929hQq/UBmOwjal9Z78e2FHVEi1sAAj/IQ5jcT96hCHt/NfTaOtSsTbK6G1sBbshBnPLao5i+PQ8J1Qfg7yamGnpHIPajo4hU7pCog37VEcRujFOOAVL/TQ/xA25V4fPN8vNOZG5C7SV5a3r45VRj3pvL4L9gDaab/hmjH5dfIF0DBXmYvjFKakv98W4FWqQT7eYdhYiSq1jxeT1W1J9G9M+A+rd2yG8A9mfgj/IxwhO6xe9jRVU55ptOY+mJbPje2gtTxx0NO8+Jh1+E1eieHhzLhHUYMUpu6DB8qlXo1Yv+1SZEKKEjPP3gNcNyvUpbzBBh6Sg/+Dm95q11HodmdKDjay4grnO990yMGC1/sLR+3Dr1Wvxzo1qfUjqnMdulc7DUiHlSf41WamL5Qf/7o4jZnKgcS8dnDdOL67gMxQdEECddu/PeXybWSxz2U+++I3hFOg/DdPBaVihdg9mI7ngYEbbA0Pk6+k488q1EtImIiPpM8vvJePfku2KJHpwgREUtxJJAA/xH+mCUxh3u3xdPWfytFXe+bEDDjWqUfLwbu/+9DA3iKSIiR1a5/xS6ok/E0gC1tbzzDmrCzf1eeG+lWBDkgs9d7wYmF78Wt/j3TsT0366Dn3wHtPZm3Dy8CUXLAxBzNQbu502oeXcjTh22BEpxiD6RBX/pte1XKvCntbEdt6XXzliHyF9KP47HqD/m0dyIxo+249+W7+241X7XfZH3oxge6+M6R/rImitQ7i/f0UwyIRHRW9dI++epjkhpk6d1FeDM2g3KyBOZ4+1uA1aug17sjsrZ+jrUKEW/ZQEIkn7Qh/3MDxo5FZDrX10+hZq3MlDe0Q/CtHWY92YyRsu/+lvMMOelo/DGP2NpRiC+/LgYf8pMQ/V56TnpXK14QQ95g5ZRNW1S/9VY9Z9zBoQfyELgM3po5PfKhe7fKoLHq2sw4lYFPv/tBpTuUUfAybQJ2Zi+LAq6UUo85+RzxDHOkI5R3maLdK6ObccR6Vypo2qSEVtr10eWc3K3Y0kqxNL1oWo4KLRVbsDbcyx34etB/zq4tuVtfK5b5+A8i+vYIQfHoZzrKoy+anfNOVsvjvvWxlJEJwQo/dV+xYQzyQloT6tGuEGHtvN78b9f0WByhaNtFkDraB/WN+JJB/3k+Bi7+Y4k5WFxRgQ8xLnoolF63UzpdeK78rAY8fTTePnYMbHUfzGQIiKiB4KBFBHRwPVQBFJERHKgvDsO7fnFaJ3wpLgZjMRdh+Fjx0A7Vo/Wf4tFbvLDVcNgoARSnLJHRERERERERA8ZAyJ/uw7DzieheM8OmJanoNjySI5FXsQU5B02w03DiXvfFQZSRERERERERPRwyVijTJ9Fm818QCsGhPk3o37P/d0Zku4dAykiIiIiIiIierjcuIG2dmB4QimWnjmKmO3ZiPxlIiZvzEb0+0eRVLMFHiWpKD0pXk8ux0CKiIiIiIiIiB4uuQnYt3wH6s43ArpJ8J09E4FLsxAWHwH9cDOq/mcQCrd1Frwn12NRcyIieiBY1JyIaOBiUXMiooGLRc2JiIiIiIiIiIgcYCBFREREREREREQuxUCKiIiIiIiIiIhcioEUERERERERERG5FAMpIiIiIiIiIiJyKQZSRERERERERETkUgykiIiIiIiIiIjIpRhIERERERERERGRSzGQIiIiIiIiIiIil2IgRURERERERERELsVAioiIiIiIiIiIXIqBFBERERERERERuRQDKSIiIiIiIiIicikGUkRERERERERE5FIMpIiIiIiIiIiIyKUYSBEREREREbmC90yE7SrF4s+vYv5WsU4RgKA3CzG/5iqWHkgW64SMo1hx9SpWlKyDVqyih806zKu/irT6UoR7i1VEgwADKSIiIiIiemhFnpB+6F918DhhFK9wlThEZMyEflIAPDzEKsUkhG1fDZ9ngzF8mFhFRDQIMJAiIiIiIqKHVulzXsidswPXmsWK5rM4FeUF43NpYkVvhSLyQB6CxVLPFcC0KAGnPjaLZQtpf5YnoOjDC2gXa2xkvohtXl7YFrUBTWJVv5FUiFibkV6udq/n4rsTfKAQkaLdaQP2+UrXpG8kyi+LVUSDAAMpIiIiIiJ6qDVVbsLnF9REqu1CMc6cV5r3RLt4OZ4McBdLvWduaRMtO3da8Y1oDgwGRCeGwmawl4vd77lwuWnZCHpGJxaIiIEUERERERFRT0wzImZVKDRicfDSI/jATvh/l/WOBtq58E5G7NaZ0LqJZSJiIEVERNTf+YxLxa7Ui7id8y0uJoqVdH90BqQmmHDxrW/x7cZdYmUnQ2yl0t/fbq+EcbxYOZDd5Xiph7wXIvOVc7ie/S1up6aKlT0XFJqJg+nX8XXObZimiZX0ndMtMCL2RC3SagoRLBcX316OpX9R60wtLcmCr3id/vWjWLorDsPlBMQzFOFKLapaxCapz8shjf/rhUiqFTWq/lKPpaZsBN1XaBOAwI15joudy6atQ4y07yvE/to/Fr8fJ14IaGesQ+wZ6TjFcytqyhGdoBfPys+vwfSSamlb5Yi0HMvn4rVn8hDccRzJmH6mHOEhnsrS8Lni8+5Sk0u3IFs6jvqOz0+rrca8N2Z2FGq3qfVVK58LB+vFZ9z9XKifl1DV+Xny8cZkGMSzKm1IMiIPyOdbfa9vhtX5+7wc05X+0avXhFx0XF5fU4oI+++v90yEHzjdcd0o5/5ELiZPEM8n5SKpbB30So0wPwSKfbIUttfNzVLOo3oN2pmQiGjlvIht19di/vvrOq5LlV1RfPk9JnGupWNL2Gh73ET9BQMpIiIaNFJTb+PbXOkHudOHkx+JiRcdvFY8HuSP+2d2ofLNr1GfasTCcf4Ywn9r94F52PXadXy90QTjfzPA/wmx2s68wClqfz8+BVHPqOsGJvV4b9/leOluUpG/UbpuXtuF9KAgjOzlkIwpLxxUwsBziemI8R4Jd36X74sSGoigJM0uVOktv425CJsWitFjPQE3LfQfHUDYjxthPmzCzWZAI/2wj9gZqrzW/KsX8fYPN8Asz/xrrkC5lxeMXv4ozFWehu/WPET+XIdr6yNhDE1B1Sdt0Iybied+a7QLD3oqChE5q+FvCHNc7FwZcZMM32E1qIqbAmPUJphviecuH0KhtH/vvFygLsujibYmwuMPG5DnNQXF757FN8P84L9e2mf533uLjYiYZYB+gg5ubhpo9+7H/5ihxc1jJbh2vQ1uYyIQ9tYydVvIwZHJvjDur1OWbu6X++EuNbnm5mHWxpnQ3ipBcagXcpccwk2NDqMT1iFirvoSudZX3uazsJ/QWPqctL8f2Nbduvu5KMe8jVHQ/Ek+Xmm7K/eiEX7wXbwL87eKcCZeOuZXo+H7jB80boC74Siem2BGTUY6qisb0e7hB79Xpde8vx/B+ir8cZVYPywAQeuz0XnV6RH+7hYEhwzBjbekc+8ViVMfS+d+bBTCNmepgVtuEnJ9vVBzSV6oQ42yv154b6W4BmdIfa9cg/LzVqTzNv9QFvy0VTjxovSeqDRUfwoMNyTjxROW60q9TvxCRVF8j1Ak/Osa6G6dQm1ZHdrcPKFbkIXoqcqLifoV/uuQiIgGjS1bhuKRJF/EHz+NO2Kd4ssyZG3xlZ4biojjYp21veOV90V8UISGv6mr7tRvQXz6I3hk7SJ1xYNwOQvxqx+Db1m1WEH37zSydo/CY2t3ovrvYpUDWeeka0R+/qvTKPlYXTcwqcc7dO0WVDspW0M9IX3f10rXzW+K8IVY0xunP05D9KuPYNGFe3k32ZiajYjFodBaChfJoUpGNiaLxd6qW5uEorhjuCVXE/fUw/3kErz9XCyOLE/Ae3vOKkXGtQEzldd2S96vuXo0vpOA4v0XlECo/GfblMDEbWwMJq8Qr+uVEpiSE1B42HGx88CN/6yMuGn8IBanKs3A+R0ozDShRX7SOwD+yqtkoYheHwftpzkoWl6ARphR+6sXcbpSTtyk/ntlGfBOGope/hdcbZRfPwLathzkBUVKr0/CvpUmpZi627iwey4eHjTjn5RaU01nU1B7WfrzcApqzsppkg7aZ5WXKBq3fY4vRbuTtL8XrnQJqpzyXoewGX5w+7QAhYvkIEra7v507FP6RoPhc0U4ky8d85wUmP+v/CYN8Nn/wntz0nDm4F6Y5vyLWgRfFwivP6cjd6bdepv+XQafp6T3N9egfpt07nEBZ1apfYYxfvCT/+yGeg0eRqNy4qzpEb4qBsMfvYCa+CRUy3XPzhfA9LMNqJcOym1snAhLxXXykRoQasYMgXmlv3QsSSh+ORzV5+Se00M3Q3maqF9hIEVERINMA/YVZqDsr2JRUlsdgYzPGsSSMw0oK52FfVdagb9XY/cbadin/MX9AWpskD5V+uS/3rYN0PoxQ1J9P59WKPWp8uukAbelU+lMw6EQDE1+BI8sD0HaRbFyAOja/5bjPYfr3Rwv9dD5WjTcS7Anvsu7m26ry3TvZgR0TPHq4DEGo+NF+57cQOtX0h/NNfg8s0xdJTtgVsOdHvBfEAptywWYN1uP5MlBk/LvCQ2GhzqYbtdTToqdj9bLxbGb0XpNXVbs/xRN9js9Kxl67zY0ntxkc5e+qis3lD87g6ZDaJHDFphhTt7b+dqTVWhS1t+7m9JntUv72lIrVkgsn9/X9Kueh04jfeaFdNu7Eu7PwOefyg099AssIaMZ7Ura1yb1oxwmWVjO3Q3csL4mHKpDyy2g/ZpZCb8Ul2t62Wd30G5/kqeuhp8cdEnbMtncea8Apg/VfZWnHHYEY9ealNCu7bNilFv9x7Wa+gfTz0R9gYEUERENQmW43fGfm+/g+nXR7IHb/0/6Vd96G714y/0bKLdd0qUiPcBHLPR3crAomg+Lbvt/H65/LZp0H27j6/v5Pj5s19x34fAF25BB1nIF1/JFuy9dbnU4MskR/Rgd4DEJk0VtIMsjcKz6vEZ3t3Ey98FmmpeDYONZPTygwegVtvuWNlfsk6cOw9XWA2NeHY5tYkqdbq6oVTXrwfSJ/zh5Ml0zWtQBQ1bMqGtQA0MPH3UaZt/IQWGgF7ZFpMHsHYpgpZbTOujVElv37gU1fG1r7HIgaDpuVr8HOr3V1EHHmr7h8FjqvxhIERER9XdlDa4NwO6JD1JfzoDhcbHY7+1EQ9d5IQPYQOv/Qer69QEz2rHfOpkC0zsVnaOAbtWhNjMFZ8Tid0YOhTpqGTl4dFdf6R7VXpDDFU8MD+ksXC5Pt3OX/zlw+QI6BiMpgVUzzOsd7JfyCEep8sIHSy2qXo+ENxMx7NrvYDrcNWi5f4nQygPHpH7xcJDPm1seVDgjiuGfKETYVHdc+80Otb7VfQgaM0L5UzPMQXB3sqnHYSlRf8ZAioiIiO5TFIyvnYNx3BCxTK7F/qfBpT4zFrlPijAlMBzFebYFr78znmPg5cLC0eYle1F3vQ0eU5dh+oIAwDsUYQfioHNrhvlf34Rtr3hCG9yXo4J6R7u4EPO2J2N0WwmKn/PHe4s2oeaBjP7diyZR2N1N283xtt1nWmTDgEjTUUTMHqEUNd82+UWUvnP/0XP1dTHVzkPrfBRUe1vPa2sR9UMMpIiIiPqCo9vqey9BvnKLd/WOfF+/dRH54d1MadPNg3H5Rdz+Tedd/JT3GB4TL3AuyLALpo23Oz7r25yvcfuNSmQ7+Lwut573TkfxG1+r79t+DtmW21Tr1P2/bbfNYmkfv7Yc45RdOLe9GKm+nWGIf6h4vfSwvTV+EJYsOIfr28VnWbb55jkcfCFKvMZaEBbOPIhzb0qv326CsiVLH1n2aXs9TLMdvdfCB/Nii6XzYvWZv7mNiwuWwHmv+sAQqfbnt7kX0eU+in1xrsXrbc719us4J+1XkHhJj/Sq/+3I+7C+85q52z77PKNeN/bXp+Nz50gqTNs739vxsJxbp3eztD4HXbfRpWaZfFxr6rv07cXlRsxTRk7Y63qdBb1QjPps9b2307PR0yPs4OD83n7DBONQ8Tw9dMxKsTY99Isd1IryXoPY99eJhb6Ug/LdVWj5agj0r5ciraIQk8fdQN3mOSh8xyqOqlBrYWlDljsoSq5HWEEewsXSgzET4QtD4eFmRt3P1aLmD9I1s1rJSTtuZpd6Y9pH1Vtk3rywV/mzT2Ssgf84Ddoqt6FQKWreR/4gapiN8YO/t7Kmk7e7OvDtcg142xMayBhIERER3Rf1tvpf291W3yf8IOpXZ2Oe15COGlDuT/hjXuxBGB39KJ5gROVr+UgdPxS1/74IE5Mege+WNBQ1jcK8uHlWd/Ox54MlyfWonDsLoxoyEb1WvO+vwJAfTMGS+HMwRaohg8Nbz39P+oG/PBNRP3BXXoPHgxBvWCI1UlEs7/8PGpCfNxGPSPsz8TeZKPt7EKIC/CFeDZyW9nX5I9Lzuzumh9RWyMvqY+iWLWJtFHZtrET2lCDpL9BbECHfoTBrEXZebsWQoUGImX4QldMtYcgUpL8ih07nsCsqBkFDxafJfbRa7iMfuP9NVOh+XA6PdqPY4X8IV0cO5U+LwtAvdmNRlvSZ6RFIq7qOUVOkYxspXmZlXkIlrmfLIddCGEbajzjqq3O9CxeV1wOVpRHwlft2r9x/IxEk7dc5EWCoDweBmLUe978tn2fy1X3QSX3bg32Oml2JyoWpCGk9iLQ3xbm79IXyHvncXUzsSWSzBYveWYTdV6xGDjTuQ3xWhPSMZO946drNQpnVVMo7l7Kka2U8Ou9lKV07yydii3TdyHXAaqXjj7f6XSnv5/XXshHjWYud+fJ164uIvJ2o/ttI+AekIj/dKnB1dp1FmlA2PQo+6u9WDPGOR6q4S3xPdF4PX6PsiOX87sS5R0OQOs0A+6uKBgCNgxEqj7p3/nNQUnusRgkPNFPXIGlXIjq+Rt4zEf3bl+B2doNY0RmKuA+zu3ufqAWl0apTtex1WT/NiJhlWnz+vD/e/mHniLEj9qHIwWO4IWc0w0IRVpGLoI7vgB7+2/MQ6F6FcrHspuyDBm72AYjM7pgt3DzuNvJKB43lrohWdKIfFN56ER79B9rkjnxcC23HPgRgssFPvg+e9GHuXYva2+1XTW6FWl9pbAQi5iqrBD2C/aUz2XIWdTt6OqpOA/e7jXobJvWXaHbwtl2nlY6vUzfblI5b/KsF2J8DsxLe+cF3o/W0TGl7C/2kfmjDtQ93dNZU67ITtu5+nohcj4EUERHRfVFvq//YWulHr6VgsSYExS/44/QH0g/iVx7DY688gujT4i5+35fDF/tft6kwJaZiyhN3UFYUgpCC3cp/8Wz4bAvi18d3ezc/Q0IxjMGj0HA6HuP3bEGZ9Fr5fbPSU1Ci/C11CAzTi7FrvLSnH87C+FelfanuvPX8qClLMKomHhNzpf2X7zKFOzh3sQQ+cfGI0rbidHkIUirU//5afT5L2m6GTWDQU4akbCwcKf1k+KoMxrekbcjHdHk3Ut7YidPKfAN3TAlKlxuS09j3QTSGJi8SxyDzwcKXYvD1x/HwTZb6NOUx+H5QJurxjIQhzPLeTqmv5isjh+58loaQTSnYLf/FvrEMW/aMR7zlfNg5/W/xGJXiKwIPe311rhfC//vSeaqOR/SRMuXua9UVizDxQ8vxqEFM/J54xOekIEus6zPyPscGobpjn307+8PRPk8zIT9yCtw/z0DIFtGP8rnbFIKdV+QXuMM/NF8dbXcXDZ/txqJ/sZxzyd+/xmmr67vhswxEmE7LJecVt/9jt3qt2KhGq9z/V3Yjeo/6XVGI/RzZWoaM7dHIUK7bBpT9ewpC3kxDmXx9Px6EJYkmpCppgXQ+fzNeus6iUdRx87tRWBg+CiW5ExFfXo078ud8eQ4lPR30MH6X1Lcx8Hm0AftyfDGr1HJ+UxBhlK575TtG34kJy/BkgFplWhMQjbCQzoBAmxCB4fJTnn7wmtG5XpcRqIYfo/zg1xHiNKJdvkA95JAgEZN3lSJmhbS8PwN/PClfrBpon89Cwl/qseJz6XEiG37tJpzaJr9XFoAgPzVY8vCLsBr5oof/JBG6jAnGZOvQ6FnL+gAEWwVFQQuipf32w5O/yUP09myrRxYmvxBqFdwUwPRuBVraATfvKESUXFX3rf40on8G1L+1Q33ZhGTo/qvcGIHhPw9QVsm0M4KhlftHvpthglWw0qR+kbUTpH5YkIV5B7KlvXXkgnIXOvlYfHdnY/KsZYg8VI7oZ9V4dnjIUcz7rVGMDi3ADfmfMW4BCPzgKKZvz0NC9QH4uzWqU9O8IxD70VFEKndVdHIu5Dpj++vQDh1815cicq58LNL23szF+B81w/xWCk5ZRmlNWIcRo+SGJ7QBViOqOtbroZvVuV47Q7omlFp9eox4XfSRuVmp56SZ9M+IlfYj6Je5SMiPg/ZRaaVnIMYfKMf01yYpL21TDkLaZsIyBG08itjtakgk97FyDbpJzy229GIFitcX4Kb0Hg/DOiS8GacEnbq5RkyfHYC2yk0o7rirox5BU9XrROMTbHVdBSBcKfIufcbYqM6glKifYCBFRER0Xyy31W/AbcuvaM117H5zPOLLOgfSl+zZ1/EjfNQPbH/wL0xJg0H+T6KNJcgqtQ9KShD/cecPdFvpyHzGH+5fVWL33hKxzmI38i+L4On7/og2zFPbkpKrDWJ7Q+Dz9yLpR/0+VH+cIkbaDEWEtA8xo+XRSu4YMtR+CtcWLDpvdd/uHpoyTPmbvQMZuGgJA54YBcteNkj9KR9Dx53h3KUf9b/zRUThPuUHvqyhNAtlf1Xb7kMmwqZXQ4uRNl7+sdOAkmNbOt5jYX0+rKmfK73nr47KyN//uUZsvHqu8QVqL9jdSvz4blSKAG7I6CkYdXof9lWpgUaf0txBfrb1Pjdgn9U+D/W0njRoQH64PKqnFgfft+/HBqR8ZtnGEBimGEX7LhozsLtOXJsjDcgcrzY7fLgbZaIffP4x0/a8ynTZiJJ+bJ0+l2K1P1E4aFBHHzVczMIW+xCrUbpuz4h9fcKAjJetpzKWoNZyQh/3QWt1tPSdq8a+/IkYmix9J16N6Lo9h3xgnB2vhI2t9bsRf16stpD2Ietin59N6oHIE1eRVrIGoy13PfOchMkHTiPthHTNbi1H0huhUAfw6OC38zSWHkhW3pOwOEAddOLmh6CSWsQmyQuHULVPDnc8oUtYA/+WApiUsMmMqrjpMH1wAS3yCB83jfT/bWj5OAdH5buvyS9BMmJrSxE8QYwMkkdPVZQjUmpGnjiN6OdFXCDtX5j4PNv1oQgXr5fdvHID7dDAY0IE/GfPtHokIiynEPNNRviK1za9E4t9aw+h8br6RXfz0OCbxgpUJYej9KS0IqkQS0sSMVyMkNL9olTpn+ADtUjaGSUCGR30b5zG/K3KAvCrvai9JG1vTBQm/8IP195NsatbZSEHK3vReEva8riZCHsjDh4nUvDe7j8qIRm0Gtx4K02M0jLDtDkH16TvnNuoSfB73g+tB5fgvY+kfyi0N+NmZTGqVr2IUuWuis7OBVC/MgGl78ojpQIQuFU6lqulkP5RhvpfWU1nVI45GToxeks7OxtJ4ppIc7I+aedMaK36SL5WsC0Fp46b0f6o1D8LshA2tRF/jE9D/RW5rzXQtBbh35IPyW9C+e5DuCldH9rnVyB4XBWqlleI7UaJa9AT+gyrPj6ehqKVOTBfkXo/3oiEq9J1uT4C+Cgd++fkdIyOkq+TiKniOhkVJV1X8vVjxHzpuDuut3GJSKgtdDBtk+i788i3EtEmIiLqM8nvJ+Pdk++Kpf5n18ZvsVCZsnUHZYVDEXFcWX1Xqam3YdSfQ9pyMc3ISsc2v9iNR9Z2TjJSybVvjOpd0GyeN+JcTiqCvif9kD7tC989Dn6wjj+I+ldjpJ+76nSs8ZYpStMr8fULU6S/YWfhsTcyxEorck2eUDHZz/ozp5lwO1b+8e782Je8ehvZcqDzty9QUiL95fbDzsAFul24+Iq0W+utj1Fal7tQmVpos4+CIeEiiv+b9OzV3YiW3mcdxXT021dlXfpV6W+5WLeD52TO3mtc9y1Sx0iNxn3wTY93EOoYcPANE2J+IDUdna+OvqvF7iTrKWOqezvXVsfjZLuZr32NdF958onj553rvv9l97TPlmvvr0WIeG2WzXlTdFxLEifnyKEpxbi+IAry7jRURcA3x3bLnf0gXX97R0k/rtT1MkNSPUw/qsWitGjsFut6ck1LW0VldjqmyL/N/l6NLckTYbnv2d2us06d/SSPvLOZEtlxTNI+fCAHu2K9NfGdde/lP3e+C6vcfwpd0Sdiifqlaesw75cBMOefhceEMZ0ztobpodOPgXasFo3bfLFvs1hPRIPGiKefxsvHjoml/osjpIiIiL5L00Pgr/zb+A4arjoZPXHxtsMRUvPG+MgDh+Dum25Vc8jqYQmjZJ4+0k/pntv5cSWUMSzfH4mo6efw9RuV2BVpUEIxNC6yC6PurixvPB5LegSPdYRRlkLSt9WQpE9lIkT8h+I7t845CKNkZbj9nd4zeyhGTRFNK7f/n+OxcN+ZAB/1nP8gBiZH15gljJI9PqqbWmd2TqvTS2U+fqlYqDZV43chxqsVd5SBHPbTMQ1Y4uuDhj9v6QyjJEsCJor9uI07V5WGAxm4KEbU4Xs+COrBFMPeMDztrwRs8j58YZXf2vjqayejHYl6yTsZsVvj0P67WJzaswmly1NQbHm8/CLeey4Ipyqb4KZMLyMi6p8YSBEREX2HLKGSwlKXqIdGadR3yiM1LEWsnT56OnLFoiIaUUdK0PA3ddH9B1OwcLYJ9cpd/3p1HzhbunnIFIWks0N9cL06s9saWfdkSlBHQer+ZssVSzw2EqPkEVx2hv7/xNXQdsdJkOZij4v9kUdNObqubB69GdFVhowLIrXRGrDwBbUpWzgtGj5XjEgT0/rcfWch21L4JDQVIT9owOkK2xFVQdqOWKxbtf9pqdI1BKO8RLOPRI2wTG9txdd9fU0T2fHP+Gfoh7VK/6xwXLVJDqx8dXW4+CuxTETUDzGQIiKiQan2TucP06G9vRX7V3f67DbLllBJcY//Vh4ypMfjUnql+sNo+K6Px5YLtWpxZ5l8J7a4SlxPSVVHzvRClBxorc9H+o+Akv0T8VjaREQXbMHXvQzi7uoJx3eC6hcK8zuKwgcF7rKrj7QQQcPVPf/is919X8z8fvRyhF1PNBSUiLpV7gh6SoyC0mVjiXR9lJ3Kwu6Pz6mj9L4XhChRaD09zICRV0qQcVFZ7CQXD1YMxZAeBU2tuNNRyLxvDPm+aEjH85glQCN6QFpuNSlFu/VvlGOxqRDTt2cjYmkiwt7MxvQD0rrfx6HlrTRUidcTEfVHDKSIiGhQUu7SJQx5oqfRig8mDhsCtN3uWkvnHnXuxxD4ePUu4ul4r25i5wgSh1Jheu0gYsRSrzTuQ9r28Rj6xiLs/MxSDN0dIydkIn96z/c3KvEiDspT/v5WhrQs2yLgfe4b8adkyLCJvQ7OHqwtiNi7G7XyyLOR8chPNWKefO68FyL7NSOitNJ5/WI3FmZbT0j7DlmuscfHw9DtHcN9sOu1SmSKpZ7JQPEVcUWJUVALY2fB/4uDSJFrRllP6/tRKhbqsjHL176Yuco6YPYZ05Mzfh3X60Szr3Rcd0Mx8j4GERL1hHl1OPatLYD5Uhs0Y0PhN3smgn6ZheAZERjWWobyn4Wj+LDjEuNERP0FAykiIhqUdlrVaxo1wqaCTTcWwkcLfPHXvoqjbPfDxye9V+FJx3u/F4T4l52PWPKJi8fEv59DkVjuidTUcyi2rnEk3+Z/iy9CjpRB/envjqDxPe03o3o3QKnl8A5ofa2sGg0dYV0Q0vvbaJXzWcisakDrV61w/8dU5Gd9i2/Td2HhyFZUn05ByNpFsL9n4nemrkEdpSTXcvrpLkQpbQdCsxH9REOvg9qsU2Udo6AMLxixcNwQVHcETnbT+l4OQdB/lmH3h+oqa51TIaXr/b/2YPReUy0O2o+yuk9lf1V7Sg7FJgb09Xgyoq4a96Sh8Dl/bPuhF4xe6mPbk/547+UNqL0sXkRE1I8xkCIiosGpvAzVlvpIXgZk9iC0iEqehyka6Ud32T6xpg+UV6LaEp6MnIVdkb2IpAo7j2HIuEyYXlkC+4EZPs/ko/i/jULlqd5OAPNBSEjXH9XVH0Zg9xW17f79Hk6MMwTBR0xneuz7fV7B3IGdqOwobO2PWd2Edd+FhUkm7J74BbZkDcXQVzprMD22fBQm7tnZZ9NB+8TpfFSKqW3uIxci/zUxosuadzpMsw24fiGj9yMHK7agUhQa9382FVP+swSZVoFTQ4F0jSvfD3dMGReELy7n2xQz7yBPhfxKtMdEIXO8aNswIOQHaq2p2gtb0IffYsW+ajHFUDLkySXInyAWiIiIyCEGUkRENDg1piHj41p1CppmClKX5nf9od0hCEteqcfBYB/cubgT8Q5HViyBzxOi+b3Heh6ANKYg45xldMcQGKabcNCmaHgQ0lOjO+5e5uNlVLbto5P/1+oYpB/sPkHZOJd9HRdTDyJ/QT6K06X2wnnwubJbnQJl0fFv/+7rZw0ZlwFTl4Csswh7rdnxOB7LPmLCLlxcnw9DWQOuK88AI8dnIP8ZsU1v6Uf7equ77D36GIZK71ySLPeBusr/v/SsWLWtBqQcKeqY1uUorAt6wYRoy/keOhFGuS31qeVoDR21vUbBx7bQk+Qez7UstBiZ0vG7y9O7Rj2YeV1d+l9ZOw+jHlMagNtQu9pV3dmHNJNlVJzUl76pyN94G/VripVr7GDqRdx+LROG1hJkFHSOUuq5MuysF++TrsvqT9LsRoel4WC9eoXL59V5GLwFi8pOi++CD2LiHIzmUgqiS3/+tQhpe51EZ+5DpTPenVEYKi6NIR52r6xIwW7Lvn7PB/MSK2G0XOsy3Tzkh4ZI3zrZEIz3k/dQuuZ6EIYTERE9jBhIERHRoFWyNxoLy6uVH9vuI6Ufi+uv49zyXcg0zMO8KdIjKlv5wX09+xyyg0bhelUKJr7l+F51QS/EYKIlpPjBFBjt7kQX9EIUJlpuv60zSD9MO58vyUnBlnrxk//78o/pc/j6zYu4uF7+7Eqk/P1iR7ji7p2Ki9vrsWuK+kNXPoaMi5ZxGRLNSPiPi1H2P8p7JNBUgozdGR3vl2sV7XrW8qNY2q8pJmSOcxapDIEh5hwuLkiXtiUvB2FhwkHEjwFar+62+1FfhlrLSBppH+t/8zW+fWUWrlfES89koUTUCsL3/TEvqR5fZ0vPv2bElNtG6djFc5opSP/NRWQ8UYI0adPy6K4Qy4/1xyciPnaeTfijPD9cLEjPz5pu6Hz+/CyklJ7umF7YEdZJfXrxza9RGQ5cFCNzoAlC6vrbqI9fqL7fewlS/9GypSGYGJRuF2bd+7mG1ygo+dvj0rGmnMO3ud/aPOR++Tr7Nq6vN2FXr+5m2F3/+8AwfSFCtOrzGBaEJXI9L7Eo626fG0ojEF9hCT4l3xsCn7FRyjUWM84fQ1qrsfN3s+55mmHZkRJ1FNRXZch3EGp1TOtzVMzcSsOReCw8re6nMpprfT5SlWtbOv7Ig9L5jcLIpjJk5Njua1DoLsT7iG/E96RrPDUTBochkQ/mxRvgb/nb88go23MrfcsydqehqFH01BNTkCpd67ffkL/L0p/rdyPoP2s7wr2RQcX42liMdD+xgoiIaJB55FuJaBMREfWZ5PeT8e7Jd8VS/+YzLhXp0QsRrffBEHd3uFv955rWr75Aw7VKFP0feTRS1x/LSsHw7UYYLD/mrUk/sNOWN2Bh7sKOEU425Fvpr7XcKF/6sRubjYwp0g/eJ9QhGK1f1qLsdCZSCg0olrYx6osyHDyVhazSss6ASQgy5GP3T6MQNFT8sP7bHdT+eTcyC9Kwz1KzKfEivg11fEe+O5+lYeiWzrAtNfU6Mn7wNfBfRilT8zr6ROqP6vOZWOhgapnPM9k4GLcEQXJYI+37viPRiC8Xe6pbgvxXMjHPS90/+diKfh+vFjefVozrs6MwEq1ouJiJWduzsGTjt50jp2zUYnfSbvh02+cRsByJzzNGZP9sIQy6IeoxWPWLYan0GU9IfVy9G1n/phbQTk29DeM4S1xn7Q7KCjOBF+73XEfBmLobS8aN7Bhp5lwrqo+Px8RCR9ddV477P6aPrk8Hffn3O/jCXILM/HjsvM96NelrbmPhrVnwzXU0cmkhio3ZGFr+GEIc1I+yF2TYBeN/n4UQy35K5Outsnon0vJsr9tdTq8z+XwPRcRxsdjd99yun6Q9wJIFu5ExIQgjxevv3K5Gyb8tRPyjRtyeHYJWqd92l2cio6JfTdC0scr9p9AVfSKWiIhoIBnx9NN4+dgxsdR/MZAiIqIHYiAFUkSuEwXja9mIupGB6A+/QNA/WgdTPgjxHw95FqX70CCE/KM/RjYVIeK1Weh1bSai+8RAioho4GIgRUREgxoDKSJ7PsrdC40/KEP0a3ef4uazoB7142sRnxbd5wW4ie6GgRQR0cA1UAIpq0kJRERERPSg+MQeROa4Ibjz18oe1FvywcIRQ/HF5SKGUURERPRQYiBFRERE5AJL/PyV6XnyXf/qU7Ox0Ekx+aAJ6chffw6pjx/EwuzdYi0RERHRw4WBFBEREZELpH24G9VfyS13+Ixbgl2p9fg2R76rntUj51ucS8lE1N/ysfDtRfd85zoiIiKi/o6BFBEREZErnE/BxOUTsaikCKf/egetf5PWfc8d7hr1gW/uoKG+CFm5vhialdJ5d0QiIiKihxCLmhMR0QPBouZERAMXi5oTEQ1cLGpORERERERERETkQL8eIXW27rZoERHRQJNV+ioOnf+tWCIiooGEI6SIiAaugTJCql8HUsFLTQyliIgGqP829SD+veF3YomIiAYSBlJERAMXp+wRERERERERERE5wECKiIiIiIiIiIhcioEUERERERERERG5FAMpIiIiIiIiIiJyKQZSRERERERERETkUgykiIiIiIiIiIjIpRhIERERERERERGRSzGQIiIiIiIiIiIil2IgRURERERERERELsVAioiIiIiIiIiIXIqBFBERERERERERuRQDKSIiIiIiIiIicikGUkRERERERERE5FIMpIiIiIiIiIiIyKUYSBERERERERERkUsxkCIiIiIiIiIiIpdiIEVERERERERERC7FQIqIiIiIiIiIiFyKgRQREREREREREbkUAykiIiIiIiIiInIpBlJERERERERERORSDKSIiIiIiIiIiMilGEgREREREREREZFLMZAiIiIiIiIiIiKXYiBFREREREREREQuxUCKiIiIiIiIiIhcioEUERERERERERG5FAMpIiIiIqL/r73/gYvquvPH/5fhgRmCIUM1OGh1vbKlDrr6GUxswMSPGVIawa3fAJtuYOumGbRNoM3WIZt2IV23GZvaQLLJF/JPSNNsh3SzQj52BVOTmeRjEkhtZX76jUxKVsePrkKolomRMJUP8XfuvWdgBgYElYnE17OP6dw/Z+4999yLYd6c8z5EREQUVQxIERERERERERFRVDEgRURERDQZFtjguK8NndXn0H633HYZKvz2YZzbdg6d99nkFiIiIqLJx4AUERHRhCgoXNeAtp/1oO/Zc9oXefXV93g7XOvtsC6ww/WwC3ZZmq5UNlTn5CHnSxaYrpabiIiIiGgQA1JERETjtaAcTY+0w7k2D8onblT9MgsLN0zDtA3pyH+tBXFmB1zllbAmyPJRYLe7UCuXJ1s0zzX11aH0qVyUve+T65ev+mcXimd4GpKfqpNbiIiIiCYfA1JERETjkWSH634HcmYB3ndykbg5HxVvuaGHGzxobi5G5g8zUfG+H4iJQ6K2fZItc6IkNVmuTLJonutzxP3ngFwiIiIiolAMSBEREZ2XAofNAesMsdjlROkLzfrmETzY8m81aIURJrll0qgBsrsLoUTjv+TRPBcRERERXRH4qyUREdH5pDlQuNAgFgJo/X0x3PrWyLorUD1imJaCwjub0P74UM6pnp+1wblakft1ygoHGso70fdsO2q1z7hwuFrmqHqkCfYkWfCrDTi8uVIPkMEMmzxmaOJsZUUlXI/0DJ5PzXE1eL6vutAjtwdfPXb7sO09cH1VLXv+c0Um6/9EyDkecaFymdwdlFSIyvvb0RPMx/VsDzrLnSgJXqtkWSnbZpveNiX3iM88JT9T2SKPm4NK++HBY4W1mTB4DK199bLBPGA9DzeElVUW2eEMKVtdrrdl32Z1TZYZq40jUFZUo+VnfXr56sNo+trIsuc75rifkaBl6vHkOcWr52ftOLwlJMdZkhX2e0ZPvG6xOtEWrLOsT1NBsAV0E64TERERkcCAFBERXWFkMGMwaBEhSDKM9ZYM8SmVD+07tIUx1Vfnolguq+ezf78Fzq9mwt9ahIUbFiJreyN6ZlhQWNQGVzAo8bVaVGfkwLrABMNVBiilLtSsSIS3rRGtPQEYZuXA8a1yvexr+Vh43zTUdakrXtRpeaymIe0FbS+wrBZNd5cg+YMypIvzFb3WisAMsxYUq1Wv9bUspG+rQusZvTi662GtqtK2l3jEQft9aHzJiqzXxL7znSsicc12PeDm2ZEuyos6tPpgnGWFfUML5FXoPa/+0Qn7Aj/q6hZiWnkWyvb3wLigENU/dA0GMjLuaEDlTXnIUdtG/E8pbYLN0IiKf6tA/XE/cF0G7OuccP6oDta+elS8oG8PbbO8u5pQs9qmH0NtX3sdSpID8HV3QR1UZzTlofL7DXqwSb0XuSFlv1+JzDM+dH0Kccw0WNQy52vjYQzXOdHw12a0vWpDqbsV/qsV5Py1c6gtVOc75kSeEY0NTd+0I/1MDYrKp2FhVRnc/QoULbiosqP2LjuK/ipy4vWcu9vRclcejEfU+kxD+gs18MCMnK81oP1uGZSacJ2IiIiIdAxIERHRlWWtE5UZZhjlfwENapDkTies+mpEhckyaPRJJ7z60vitrEZZmgld75Uh8+V6+MT/3L/JR9abHgRghDUYlPhNMXKfqETLR+pKMpT+KqSXpSP3+XxkvtCs5aoyzBF1VXePyQrnnTYox6rEZ+vgEZ+sfzkTDjW3VawZRbfrwQHfXlGfF0R9PhUrSTmoVANjy2pRsQRofjkL+W6PVu5CKOuccCwywvNW8DiiDjsb4ekXi1cZoaRpxWC7swzW67rQvD0TZXvFFXa7UfVUFmqOBYAZ1sFARusror2q6tDyiboWB//eXKQ/VYGa1i0oeqpBvydzM2DYkxmyXbaZyYoS8d74Ui4yt4j21Y6RjLQ/VyKtLA1pD4nl7W6I1gFm5cFxl2gH9V5U5aK5W92oQDlThvQn0pH8SC5yKzOxZZxtHCpxRicqHspCqbseNS8V6ce+2gzr4IM3jmNO9BlJssJ8nR9tvy9DvTif7/0q5D8hjq3eB00Vip8YJfF6UiUcK8wwHKtD1lNqIArwvFOKzO3N6IIBZvFcO9X7eMmeWyIiIrrSMCBFRERXFPuXxZdsuTxolgV5cjGiGPl+AcpvtsIEP9rbw2cw871cA7f6Jf7qDOTfqW0S6tHZp7774H62Rvsyr2lvgU8LpIxDhh3WpAA87RVDnxeqTnVq72HBgf1FKG316oGxnAa4CvKBvTbkvhkhQDEBJcsyYPjUA/dLIcfpLkP6fdMw7b40FLerG8phW2QCPmmH+x2thORDmcsNtUOWYWE+KvWNIXrQowavgrq96FTbJuBDS2i9u/u0nk/qbzoj7rc4R1N11WD7+H6ThZrDevJxy5fU8JXKhz41WAcv3NtkzrAjzWg+It4n0sZS5/EyDGUe88F3RiY7Dz5b4z7mRJ8RIzJvdqIwOGyuuxTuI/LcUqTE69Z1ebDEiqs/WhpWH7xTioZj6oICq7VQ23RJnlsiIiK64jAgRUREV5SqP6gBmGFOetAoFy+tElhNajikB1379S1D6uA5pddEmXcJ+498SYE6sC1jrT4kcfC10qzvvyYZcknT/EIZnF2iHtdYYB1wInfUhO3jZYdlpngL9EAPpYzCaoVZHSZ2pmtk27/jge/P4v0qBRY1j1UUVBySfd9ijfr7WCbYxpH0nB32FF6CY47QXYH6//LDYCqEc3Mn2u4p0YYbllXnokovMarCuWqvQD86R9xEHxo/1ENOptlj9SskIiIiGhsDUkREdGXZWYSyVi/8Wu8XIHDSjaqXi8ZMVO71awO6gJg4JOpL42RBspavJxGmJdqGMCOCEpeC9l92P9wv67meRr7SQvJbqZpR7JJD1uYWoTZCou2JMSBuPD3KvpgMLfRzjWkwSfiQHvQNyMVo6enR22A8JtzG4zAZx4QPFVutWi84f4wJloxqtD11GK5hSclHKoFynfpuRPJsbUOYSD2qiIiIiCaKASkiIrrC+FDzfBoSv61/0Y/7oZpIW+4axWCvqqsVWFZqm8ZJDidTgzTXahsiCvx5zL5EF8AIZeE4e6+oicXXpsP7vhy6d3vtRc6KFtCDSdcoyJS5oiLq7NQDQLFxSNY2RBJAIJh4PVrGHQibQBuP22Qc06M/7w8Voep9HwKxCqxfc+ozKI6qBj7Z7oa4MerTP+4QHhEREdEIDEgRERGdz846Pd8TTLCucsgZ90aXc7cLTVonlEZ4T6nvBpj/crRheX60/6FeLl8Cf/Bp+ZeUReUREkkrcHy/KSQvk1i3lSH5PRsyq0rhPB7QkolXfNN+3mscXSN8p9V3BZlftWlbwny1CU1qzqz9Xj2h+tVmZIwWHFHzS7XK5cmWrPfY8nWO415MqI3HaTKOGaq7HmVVC5Hp1pPpZ97gkDsiaz2pTasI5YuFI54F5So9K5f3aI32TkRERHQhGJAiIiI6rzrk/kYf1mZYaEfTPSO/pAdZ1rpQmdiMUi0Vkw+lba1a7ypjahGqw3oe2WBNNgLqkMHX5CZx1Djtv8wGxEXqpRRxyKABiaE9kVob0aYGz9RZ6rY0oGSBvlk9duE9TbBNb0GZ3JJzdxNKrm5CqZY3yo1idTa1flHXRRWjDN0bdq6IfNjSrs/QZ0orR8PqkOMsKIfLmgzvm2K5uxQNWiJxI6wZ1eHtudKKtGvEkdqrzpvraNCEhlMOvw4F1QvMwKdeuN8aPngzwjVPoI2DDFdH6mkk7rO4Ts24jzmRZ6QWLnt4cNHzUpu4Q5ElzggmKRdP/GtuvZwpF9VhvQIV2L8ojvjnVjQ2B490Ic8tERERXekYkCIiIhqP17KQrk5532+AOcOJtoddqM3J0ZJEqyzLylH74GE0L/Oi7PGhGdzUnFUV6tT9V1lgK2uCY5H4Mp9kheN+B6zXeFH3q/yh2dcW2GGZpS4kw7w6eGTxdX9FJhQ1cHG1goyQAI9fm75fgWV1OUruaoHrHjXoUYfS19zo+hQwJOWhuvwc+qr70PfUYThvAJr+c4v6IS1w5lypwPfelqH8Wd01aPg/atjNCOu6JrF/qA6RzxWZ76UK1KmJ0q9SkFd0GD2PtKP94U70/bACyX+oQFm3Xm7LzyvgVoeGzbOhRW2PJHGGRQ40rbPC2CWu49mhBOuDbSDaJm1tpLYxwxqy3bI2TR8KeE0aMleEhbsEBTlFDbDLe2G/zwXbvAC8rWVyBkC1HpVI16Ioak8vPRn4kPG1sXrsai05uNoBq3BoprukQmTOUvtjGaAsLBFnUI3zmBN8RpJFe7bYq2FTr1VcRcl9VpjhR8vvK/QCYlulrKMpOXcon1d7EUrfUYdxmpBzZxtqtWdBPMPrG1A01w/3f4rnWt7HidaJiIiISDXtnCCXLzs3fNeFfR/0yDUiIppKblnVgLd8v5JrnyMLbKheZ0f+QgWma/ShS/g0AP9HXrjfqUTZjvoIPVAsKLnHCccNZhhjxapavtuNuv8sRdleWfqrLvTcadWGjQ3qqkOZPx+Vi8K2wvvONKS9IBZWOtF+VyHMVwfge78GpVVlg8EtZbUTDTl5sCTqdfSfFOf7lcyXFXYuL+qCCbPvbh+a1U2jJtlORJbag2uMc0WUVIjKbzpQkqrAoP7564wXze+UIXf7sE8tKIHzbgfyko16uX4/vH+og+OlMtQHAx4j6iVq9n4ZHKgY0TajbdfbzA7XE5WwXtMFzxEDzPPlOT/xiXtXgeKX5b2LcD584kbZ/VlhPbbGbGMEz6XtkkRbv9yJ/Aj3edpDesry8d83acxnpBbtTxVB3AEY1OdOpV7rW6XI0u5DhDqGXaeCwjtr4VhplcFAUZ8eD5pftaHIrfeCu6DnlqaEBwy3I6nxgFwjIqKpZPbSpfjmrl1y7fLFgNSELUf7q8rEp15WnR1A4Gw/fCdOw+vtQs2ODrhPyH30ORCPkgdWwrE6AUZ1hqkzvWhubEVuPZO+0pXpcxuQoiksGIAJCcIRUUQMSBERTV1TJSDFIXsTtg9pt2/HtO+9jdId3eg6KzePx/QYGGYYYE5NQt66pXBtuwOHty5F4Ry5n6Y0ZWMGKrNkMEo1Ix45629GU7ZcJyIiIiIiIiINA1IXqqMLNU/vQdFve+WG4U6jTg1ciVf6Zg+2tPhHBq9iYqAsS4WzahXsDEpd1myb16Jna6pci6w83Qg5eCeEAZmrU+QyEREREREREakYkLpI7j/0arMujcXz7iFU/Ph1JJcdhFubCnuYxCQ4/mX5UCJRurzctALlN44MNRER0dRiWRk5MToRERERRR8DUhfrU/k+Hh1eFO88pU3/PZxhnoLKTZHmSqbPlgnOjfOhBIfhjWFLmz/CvQ2g5c1DcpmIiD4rdnsP2u7OkzPaGZGxrg09dru2RkRERETRx4BUlPlePI4WdYrrCMw3pqJQLtPlIB72rV8Zd44v33OtKHOdhn9AblCTmr/4NnJ3y3UiIvrMVFUlYtqGaWGvxKrQOfOIiIiIKJoYkIq6DvhGmzgw8RpY5SJ99nI2rYRjWXCe7PHoRc2ju5GYq+cOm1awizPsEREREREREUXAgNRnwPunfrk0XByUPLlIn6mcTdloyE6IkKSciIiIiIiIiC4WA1KfgcSrx2j24HAv+ozEo6R8DYNRRERERERERJNo2jlBLl92bviuC/s+GG1822UibxV6NibBKFeHnEbd7btRLNdC1W4rgG2eXAkz+mdUluzFqFirwLrAAON0ufFsP7ze/0ZN3T7UdMhtoTZl41x2glwZrh/u53Ygq1Ffs6xbgbq/SYZllj5Mzd9xCEXf86BZWxtmznw4ilNQuMSI5PgYGIJJv0V9uk6cQkPjeyjdPY7haqkKHH+bAtvSa2GaIQ8yMAC/eoydB1C8Y/gxlqP9VQVmuTaS3oaNxTejMvt6KMPq5t1/FFX/5kFdpLYS11RdbkFJyniH6enn8m5dh8oxhvb59x9A4oORThhkhO1bZthWJ2ltP1Rf0Q49frjfPALHz33wyM3D2cc8/9A9VlYvRmVe+PPjP+lH869aUbSzV99AdAndsqoBb/l+JdeIiGgqecBwO5IaD8g1IiKaSmYvXYpv7tol1y5f7CEVdYuRNksuDnfCj3q5GGbOfFRWrUXbJjPyUg3A4Q4U3bMd6Y8dhRexMC9TUP34WrgKR4bF8NhuLHzwAJpPyvWI9F5BLffOHwxGqYypKaj+wciZ/3KKb0XnthUoz5wJBadQ9U+7sPCnh+DpEzunx8K0wISSTaLM5lQ5m1Ek8SjcKMo8vlwcxwjTp35U/XQXpn1vH+pPiHPPS4Lt3tvQudWM8Im59yHt9l3Iqj0O3yi9yRLvz0ZDgQnmhJBglErUzXxjCmor16BhbbzcOKT6RysmEIwaUvXgDtHGot7HJt69TVltQdv221D7jbnImB2LwBEfir+3HdPu2YOy3wdgmD0Ted9YLspkwxmhzir1/OmbvWgdJVm+1talt6HtB/rzMxjMFIyzjNo+V0HkYxMRERERERFNBgakokxZnwRLnFwJMwDPuwfhlmuD5qSgwbEc9sVyAFlPF8r+4YAWtPHs3ovSN0/r22MMsK7/nxEDC779HXAfHy1vlZ68u/KW+IhD1JQF4V25tNxKBTNh0gI9ATTX7kHF/l743vSgcn9AK6OLgemmxWjaZJLrodQA2CrU5YUe5w2UvdkLdPhQ9PRReGVsx7RsMdxbhwe2euHe3gq3aIOR4pGTlQCc7EbNY69j2u2vo3iXH2H9rKbHI2/jStTeJNel0u/IZOTPdYeXl9SeTtr+wddQbzbfflFv7wR7Gd20XLRPCiwz5Lp6b0v26b23TnSj6sd7UPW+bIgZCVrgqKU4UnuKZ0F9dv47ckAseZVo67XGCL34gmJhLVoBxzhnEyQiIiIiIiK6WAxIRVOqGbVrZ0YM/ASOHEXZc8MDGvGoLF+KvDlD3Xx873WgTi6r3L86Ba9cvqDAwuybUTdWvqSBoUCWUrAKztCyH55C1W65LNSfPiuXgmJgvsWMcrkWpGzMCA+ADTsO2t5HS0iwybhsMZzrx9uDJwaGs92o+Mc9csigH3VPtKImGNgJmp4A270ZyJGr0ZcK1yYF5pDeSn5fZ9i9VQNvFW+fCgmOxSKjwIKGYYG0oJ4/fyqXQsXCvEi09RnRDmqA7p69kXtyxc1Ezlq5TERERERERDTJGJCKhlQTyu+/FYcrF8MaIZ2TGoyy/XjfiN5Rynp1CFnomLN++N7rlsvSiY/RGTpUK24mCtePHGYXWSwy15hgOtuLxqdfx7TNPniHxZR8x7rkkoLq/PBcWf6uU+F1PhQY2bMoLja8d9OcxXCuMYYFwPzHu4dde++wmQhjkLFatJ1cOx+Pax+qwnpP9aKi+Y8IXsmg2SZUFMrlKLNtTh3xLHSePCSXQmzvRadc1MUjz7Z83G2hOXsadZWvo1gN0J04iqJdoUGuIUpKqlwiIiIiIiIimlwMSE2aBNheLcA59fXkzXCsmQklpDeMZqAfXpcHmd/Zqw3BC5cEx+rhvan64NshFwcFEBg2Gk8xp4w7YGGYPoDW7XuQryYPf3cfcp87Cq8McKlJzUt/qgfAlHtTkJOoLQ7q/HBYou4dx9AyPAf9wKdhwQ/r+vnIGDZkMVIgprNvWC+eOTNRki6Xx3QabU9HGDq3uwc+NcdVmBhYViyWy9Fkhm3Z8D5p/eg8IhfD9CMwvEPTvGTYs+XyOPh+ewDF78oVVePwIJfOeN21comIiIiIiIhocjEgFS0DAwj0idfpXngPdqHu3/chPXcH0h49FHn2tDnzYBk+9O5MIGR4XtDR8B5SqtnXYtwdf3r+iLoXhwI4vp17kVag50hKDJlhr2TJ6BmIhvhQ6jwKr0xrhb5euF95D2VyVUuunTJ86F3kQMzI4X/xMN8iFy/IH9EZrFcIwxdnwi6Xo2a9aZQ8YpEE0DMikGZAeuZ8uXw+/fB5R/QNiyy0Mx4RERERERHRJGJAatKcRl1oAuzcVxB3h3jduQtp9rdRPMY0/pq1iTDLxYmLg7JOLp6H/2j3sLxFkSxG5jjzUmkBrTvlNd+hzoYXGgxJQfpFJM5Onp0ily5EN3qGx7hUMwwX0c4XpmRRpJxdZ+GP2EMqMtPc6+USERERERER0dTDgNTlakaEWzMjCZXBYYAhL1v4RHi6cfZ2GTHsLiIDjBF69CTPmmiAKBaGEfWKhXXjyGs6lx0h2VbMxXXh6eqNNAtdHJQ8uRglli/EyqVQA+hpk4vjkRgf/Z5dRERERERERJcIA1KXKfvsSGO6hvW6GvW1A1mN8iPnERg+3C+SvHgky8VQxuvGO/OdNMpxvLsjXcPIV+KD4wmejS7yLHSfAQ6NIyIiIiIioiscA1KXqRFJvTXTkZwlFy+JfvSclItj+ehTBORimNnGifXSGeU4iQnjzYc0SSI1NRERERERERFNGgakLlMjk3qrDFCWTbBX0qXg6sPwyfM0MxJgncBsb6MdR82HpMjl6Is0c+Hk8v5p2LSIF6KnF1VykYiIiIiIiGiqYUDqcnUoAL9cDGVeshhWuRw9f4QvYkTKAOvXJpIS3B9xpjvMS4IjXS5PInOk3E2nA2Mnl58EVYeGZjU8v2uRPEMuhvD/MdLTQUREF0YR/z2rhevhHpx73HUF5ugb6/or0fLUOZx7qg2VSXITERER0SXAgNTlascpeEdM9y/MmQvH+jF6Sc1Jhev5W+G4iNnsRjqKxv+KOGgPhsUL0HCTXDmvQ2g9EWl8XDzy1i8eo5dUPOxb16BlrOu+QIETp1Ajl6Nm5yl4RjTDRJKrB9Dy5iG5TESTrxbt28QX8givHjunF/g8yPiqHbYF6Ug3Ga/I34yu9OsnIiKizwZ/7bhsHUTT4UjBmxhkFKxEbcQgkAnV5WZYZ8XAILeM7SrEReh9E0ndK93wyeVw8cjbtAr2SAGwOfPhfOYOHC6fKzcAFXv9EfNIGRalommTSa6Fy7k3AxXLDDCM76JGkQolUS4OGoBn70G5fH6Gq0N6WKmBv1/cikq5OiEnPHC+N3zY3ij3IisOI6p9ohtVu+UyEUVBMdI2LETRm57Bf7/8729BVvk0JFZx8OznQetrpSh61om2T+SGz4jd7kKtXI6msa+/DJn3TcO0+9JR1i03EREREV0CDEhdrFFbcCI9XiLb4jwKb6RUUtMTYPuntWi534ycVHVDPKxrLHD9IgMlKVfB6zqAshNayfOIgXGWXDyftr2oaRsl91FCEiqfzIbzGyZYtA1G5HxjBdqfXIHCL5xCzc+Pa1s19QfhPBI50GbOzkBn1XKU32TUtijLFFRvXYOGdUYYjhxF2XPjGeo2HYmRgnXpM6EMD/h82AVHvVwO1diLTrkYyrBwLpyr40W9UtHgWAzr2dNolvsmquoJL9xhMxzGwDQvwliIFAPCw3QBNP9qL9xyjYiixYd6Z5sMzPvRdqACbn45p0tpmRMlqZHmoiUiIiL6fGJA6iJZvxwPPXwy3Ph7H42qbR/K3jwdsUcRphuQsWYxmp4swLlX18B1fwqss2Pg338QuU+M/1uSIWb8w+Cq/um3qDs2ypR0MxJQ+K2b0faqWp/b0PSt+TBPP426x/agKiw41o3iF0YJtKlBmcUKHJtvE8cowOGty1GyLB6G092o+PG+cQZhYpFz78geWzlrjOFDAs+Kuj3dOkpA6RhajsnFUNPFNf5gjajXUuTN6Ufzf4y3ThGc6EDxr7rQFdIOypJU2OSyLh7Vy0KfrgF4d/8euaP0jkq8mj/ORERTUpIdrrsLofCfcSIiIrqC8FefC5VqQsm9q+D8ymgBHXVo3Ro0fGMurBeRz6n5sd3I334KXaPEgYYMwPeWB+kPdowYWmfJtqAoJUJCb0G5cQWq1ySNc5a7LhT/8z7UdJx/lrjAh92o+sluFL8rN4R6dx/SftKB1oiJ0sMFThxH6T8MD2qNpReN/9EP28+y4SzQr8tSuAp1mSH36Wwvml98J3LdNN0orjsET1gPplAjA0Nar6klkZ8Fo2KCQ/b6CuXb/jYynzsKb/A8iSZU1iyHTe31NicJ9h+tgi1F36XW2b29FWmPdckN4dR7nPPFGLkWKhbpX1kse9IJ2nGTEDEVvdjnHPezQETjZbE60f5431DuqSc60VJUGPKzZkHJepcoI3NSLSiBc3OPXvbZHrTdlSPLhUgSZco70fPsUD6rsNfmg2F5r4ZyXYXnw2q/W26Wzl9X6bznr5YFBXk9fcGyTxyGqyDCNYWw2+X1a6/2wWFsYdufGEq+raxwoEHUp+9ZtayCwjtdOFytl+t7pAn2CB1QldVOtP1s6Fp7NudgtP5JyopKuB4ZOnff4+1wrh5qFWWRXWsP/fw5qC7Xy/ZtVtcEtb2C91T7/GG0V7bp1/XVBhzeXAmr9kcsM2yyzOC9SSpEpf3wUFs/24eehxtQvkDuFybz+i0rq9E0PNm5qJPjvjZ0inOo9dTbRx7rqcNo+lqE/5JM5JkhIiKiKwIDUhO2HO1qL6Anb0b1uiSYpsvNkUyPR963MuB6XpTfvuqCZ+1prn0Dyd/3oG7/aXSdCY9MBfr64d3vQ9mDu7Fwy6GReZ42ZaNtUwoso/XWSpiJkvtX4fC25XLDeZw4itLv7UD60z64jwTgD+3pdHYA/g9PobF+L9L+fg/KRg34CO8eQOZdr6N0Vze8J/sRCL0s9TjHulFXuwdp97SiZtzBKF3fzlak/fgQ+m78H2j7dQHa1ov7FCPa6kwA3t91oOg7u5C7/TzD/971IP17HtR3hF+j/6Qf9U+/ERYYsm9dJ3tNRQoICQlJKFd7fUVoY99O0VYFQ+1gmKegVu319vwqVH7FAJw+DbfLq9U5qzZyMEo9/1j32LjMjKYns8WXlFS4nhTHDQ3OhYqJR6F4Ftq2BqNXRJ9XCkruaR/8Ytz3iAuVy+SuS21lE5rvKoRyphFF5dOwcFs9vLEmZKyuQvVKtUAeqr/tQN6XM2FWf4YNVrTd74DlYzfq3/PCf5URFms1nGlq2aAc1H63EoVze9D8YjqmlRehvkv2pf1zKyo2TMO0zYuRtiEdFf81fEbOYqSp5SN1pD1vXYPGc/5SfV3t+XN/Nawf1yD3oWlIf6kRvlh1RjcnXJGCFlJVVaJ2ft+ncoOkbk/f0Ro+C+3XalGdkQPrAhMMVxmglLpQsyIR3rZGtPYEYJiVA8e3ymVhnfI1F9rUQFtPjbzWKnivs8J8jSwQalktmu4uQfIHZUhXc4m91orADDMK72xCrfrcqOfPtSEneP7vVyLzjA9dou6GWWmwiOet8juiva52o3SLaJstxajrToT5OpkY8bV8LLxvGuq0f+K9qFPbT7zSXlDX1c/Wwb4oEW3/Kdpavafiv0tGUx4c66vFXmESrz/vrgY4VohjhyU7t6P2riLkfMkC09XiGmc2wSXWE7sa0fhfXQiI+5vz106En3ECzwwRERFdMaadE+TyZeeG77qw74NxdKOhK1LttgLY5smVQadRd/tu8ZWLiD5rt6xqwFu+X8m1y8jaFvStywif/KG7HlniS/LYw3DV3kU2mOGH++VEZL0mN4+h5Ps9qE4zwvtOMMCg9/KpXBS+DXe24dxXLcCZVlS9kImy/fpmxw/7UL7QEFZWuasNh60WdO0vQnK1TISXVI22h0tguUrU7SVRt+CF3N2OcytFjd8vC0vAHqkO463rRM5f/mAfHMZm5P4wf3CItCLqdFjU6fxtbofriUpYr1GDNGkh/67L+/CJG2X3Z0G/qkI0VTqRc10Avt+XIevZGv0PNGkNOPz9PChhZeVx+5tRXJaLOm2bsLIJnXfnwBRW1grnFhfyzmxB2iMVg3/0CbZL4L8qELd1i9iiiHKHUZgE+PbmYuE2cbULcpAjrrr5iH4+Zf9CLHw+eASbqK8dnWVD11X78DnYTOO41iQnDm8pHHZNk3X9KgdaqsuRMRC+vbC0E85lJgS6G1H2RD5qtCCnFQ2PiPaaFf4zMqFnli4bDxhuR1LjAblGRERTyeylS/HNXbvk2uWLPaSIiOiKYv+yeeRMpLMsuMh5KCLynupEAH50hsztUCW2jdDTo/X68f93w2AwSlX34ciyeXP0nkU9Z0JmZehuhO9PcnmUzprnM966jv/8lchfaIDvSE1Yvj7f8U69h1OSBYXalkuhHp196rsP7mAwRtXeAt+wmeOUu22wXiNKflA1FIxRveNG+/BZ5jLssCYF4GkfCkapgu1imGOVvZ996NN6c3nhVoNRqiNqMEpfVCl/VRsyzK4OziOhRxyNF51ngECPDx65Bd1tI65p0q5f04O+CGkD6s/ofzD0fRAMRqncaDk5vFfe5D2zRERENLUxIEVERFeUqj94R04WcdKDRrl4KblfTEPcBr2niGWlzPOTETGLW0S+TyNOa6ExXBU65M2Nnv8rF8+bczCyidb1vOe3WrQk3coNrvBcQXda5WQgyVC+qi1EVcl89ZoC6OoaR5ecLykwwYCMtSH1V19qDy/VNcmRc/KFqUL9ez4EZljh+GEP2u+v1HpS1VfnjqM3bxWyvj8NcZuL4U6ywq7lGlN7jcndF2BC13+JXepnloiIiKY2BqSIiOjKsrMIZa1e+GV+osBJN6pePt9wvQsXTPjctr4E5p46lP7WK/dcmGBATfmiXc8hpClEcpx4+7MX7ou4kPHUddznl71e1OF+ak6kka+hIV3RUwhzgvoeQF/E3kDDaL8lqcPPItVffYUOrxtd3bYs2F5zwzdghHmJHc6He9B+T0lI+43Fouc8e9gFhzkOLa9ugXs8dY9ogtd/iUzmM0tERERTFwNSRER0hfGh5vk0JH5bDyrE/TArbJjcpaQmj26x2ZH5fxtR9FAi0p6qQN2wRN0TtrMCNUf8wLwiNNxZKL7gW2C7pwLW6wLw/t4BNaPRhRh3XSd4fiXZIZcuB10IaBPFGpE82pR6IxihLLTK5QvlQ/3LWVh4XzpK1WCoOKY5oxJN68933BzUbm5BdUayltQ87oeZKP7NxeTWvJDrvwQm6ZklIiKiqY0BKSIioktpZROa7lb7gRSiMssK01U+NP6/o8xsd0HcKNvZDO9H0KbuP7ytDbXpifC8aUPuC6HZmiZiInUd5/lf82iz5Bnm5aE2bJZAXc63XWiwyJWoccOn5VoSdZ87jkDZH3xQJ79TFpXLXFGhFDi+34RKuTY+Hi0Ymv5SsziuAWZzCcYMSRU4UDTXAP/7DmTtHMwidREmeP2XzGQ8s0RERDTVMSBFnzMxiJsjF4mIoi4HztuT0dmsppVOhvFqfWsoy1UhKdWTFH0I03n+a2y4OiRskWSH624rfK8kIvE+OXSsNBmZzvqhZNZBPX5tqJQxXp5HtaAcOcl6FqehnD4TqOu4z18D93Fx9lgzbBtaULlisAawrHWhbn4XasaMsXjg14aVJSJ5pbZBUFBYlD50LYMUxGltaEBckrYhXEycOIqurN2jtYlhYSEalunbwoTmhWptRNtH4l3N/7SlASWDSclFPe5pgm16C8rkFp0BiSOCb3Y02Z3iyRjie3O0BOLDPj/DILYMkySuUS6qFHFfJu36QxnEfZCLKkU+G+F5oYJEPULzXE3kmSUiIqIrBgNSNAUZkfONDFgjBp7ikVGcOso+IqILFRoIMSAxcXjXHgXWWxxo2tKAwqu8soeRB11n9H059zlRnlGO2gfb4fySHhowf7kFLd+thZpJqCQtTfzLJv51m52pJbzWWVA5Vz+jkpwn1qTbbbDOMCEzx4WGe5xwDr5q4bDmDJVTtbbBqw67m2dDy4MNcN7fhs77i7RAlUpZ5kLbg7WwjbuuwrjP70PZDie86hCxGRmwbziMc0/1oe+pc2hbl472N8+Xt8uN5i61f5IJOXe2o+meBrgebkOVqQfaHHfXZKJMrDesywAW2GGZpW5Mhnn1UA2UFZlQ1MDI1QoyVsvAyfYKOLu0jEbI+3YnWtaXo9DqQMPmMmRqMRZxL7/fhIa71HkX61D6mhtdak+vpDxUl59DX7V6DYfhvAFo+k99sJmyqBLpWlMpyPxqSfg9EAzzC+HcLNp1mbpHPEt3FiH9mgC83prBNvBrQ+kUWFaXo+SuFrjusQInZUAxpQyuu0pQckcD2u63QVHzc12TjiJ7OxrumMzr14+Rph7jKlG3rwWDTxbY5+vLyckh15tUiMxZ6pNsgLIwJEfWRJ5ZIiIiumJMOyfI5cvODd91Yd8HF5MrgT5/lqP9VWUcsxoJZ7pRVrAHVXKViKLrllUNeMv3K7k2ldWifZttfP/uCL7fZ2HhszLMsKwabXeLL+wzxPKffWh+NR+5f3agsyAHpoAHNc58GP76MGwmvbhOTaLdgOQ7h53zEzfK7s9C1Veb9M+P9ielj0S5n4lycthdTkEL6r6aoZVXE7jX/CoLnbf1oHJ+J9z7alD2Yg20jkrjqGvpXh8wwfNjWSWaCmzIMem9sgJnvGjckYuiN8fRNyapBA3frUSeyQB86of3txXIfd6Cpm1FSDzSjLrXylBxXS16Bmfuk7rqUObPR+WisK1agvW0F9SlHFTaq2FLVWBUr0PUqf4/nTD9tQPpZ9xoeKMMxe6h7lvqMLOGnDxYEvVeQX7RjnWiHbXcY3e3D826FxS8V9qKHa5KhxbsMVytfx794lp+r15LzVAPoZVOtN9VCPPVAfjer0FpVRmaocBe6oLjrxQYRD39R2pQsq0R1vuaYJsrnrX3HMhvt8I9Wdcf4dq875Sh0zJ8pj8v6l7uRH6Eekx7qHjizwxdFh4w3I6kxgNyjYiIppLZS5fim7t2ybXLFwNSREQ0KT4/AanLjBqkuc+GwJ4G9CxIGxyKhVgTzMkKFPHqaQsJil1qn/X5aerhMzMlMSBFRDR1MSB1CTAgRUQ0dTEgNRlyUPtwAzIPpSHthcg9jJR7DqPlmgokV9fLLZfSZ31+mnr4zExVDEgREU1dUyUgNVrnaSIiIrrcqLOuqcPX+sOHYg3JgeOLfjS5J+mL/Wd9fpp6+MwQERHRKNhDioiIJgV7SE2CkFw8/pOtaPnAh86eFvgMmUhLUpCxQIHPlYOsnWNOX3fhPuvz09TDZ2bKYg8pIqKpi0P2LgEGpIiIpi4GpCaHssKByq/aYJ1rgjFWbuz3o+t4MxzOItQckdsmyWd9fpp6+MxMTQxIERFNXQxIXQIMSBERTV0MSBERTV0MSBERTV3MIUVERERERERERBQBA1JERERERERERBRVDEgREREREREREVFUMSBFRERERERERERRxYAUERERERERERFFFQNSREREREREREQUVQxIERERERERERFRVDEgRUREREREREREUcWAFBERERERERERRRUDUkREREREREREFFUMSBERERERERERUVQxIEVERERERERERFHFgBQREREREREREUUVA1JERERERERERBRVDEgREREREREREVFUMSBFRER0BbNYa+F6uAfnHnfBLrddLGWRHbX2dvQ82wPXV+VG+oxUouWpczj3VBsqk+QmIiIiossAA1JERERj+aoLPdvEF/oRr3bUyiK1D0fY/3Bw7+Ur4w4nHH+ViUyT8dL9RrDQDntmJtLnm2HkbxlERERENAr+qkhERDSW17KQuCEdxXt9cgPg21uM9A1pKJbrxQ9NQ5GnS1/5xIv67VlY+FBw7+Wr9ZUi5D7RCM+f5YZL4XAVSp/Ph/OoX26gz1YZMu+bhmn3paOsW24iIiIiugwwIEVERHReHtTtaIUekvLCva1ObAmRZIftSyb4D1ch9/40FP3GLctOBT3oG5CLRERERERRwoAUXZz0pWjZXoBzTevQsvESJ6eYzGN/JoywfSsDbb+8A+e2r7pkuVquPBfXjpbsxWh4ci36xHPlypMbaZJMk++fE919CMjFMEl2NJU5kHa0DOmPlKFZbiYiIiIiotExIDVB9q3rcO7VgvO++l5Zh85nVqG2IAmK/Ozn0moTMmaI95hYZNw4T992qUzmsaNqJsp/lI2eX9+G2m/MhWVWjNxOE2X/QTY6L7AdMwoz0P5yAdo2mZGXaoCBt4EuhQXlcP2jA+lHK5D5eNWovaKUFQ40lHei71k175SCwjtdOFyt55rqe6QJ9kgx9wUlcGqfkTmpnupB+/2VyJG7IY7UHpqzapueQNxu7wnZNrRd+0RIrqse+zjCuWodNvcM1eGJw3AVDNVgUNKwuj7ejpxr5b7hllWi6eGQYw57dd5vkwWF8Z4/jALr10IStat1E8fQPv9sHzofrA5pQ8Cyslqrj17WjqZH+vR6fN8+9N/v896LEMPrrJa9p2TY7wLyGXhClhH16tnsRMmw5yCnYOg5OfdsDzofPozDol6DQq9NvPoeP4z2yrbB3GaqsOuT25BUCMd9begUx26/W30+K+GS133uqcNo+lqE31zkPe4Z5b6d21wtCxIRERGNDwNSE1T14A5Mu/11FO84haHsGAPw/u4QKh7di6JHD6Lmd374Y2JhWpAEW/EqtNVYUDhHFv28+dVxtJ4R7wP9aP3dMX3bpTKZx46qU6ivfQeJX38bjSflJrogVT/djeQLbMfWNw8g987tKP5dxD4udEVRUHKPOgOc/kW67xEXKpfJXROgrKhG2/crkNxuQ2b16MEofK0W1Rk5sC4wwXCVAUqpCzUrEuFta0RrTwCGWTlwfKtcFpaW1aL9H6uRd00Lyh6ZhmlbilEj/hk0L7Gj4eFaGQgpRtEL9fD2q8sBeH6TjqzXxM9JVTqKWr16b64/e1Aj1tXtquKHFqLqSACBrnqU/FuVvnE0SXa47q+G9eMa5D40DekvNcIXqwZ7nHCFBizUcj+sRuEsH2rqFmJaeRGqupNhnWuUBUKoZe+2I2dGG6oeF2W3VMCt/juv6q5H1oZpSH6iTl8f7/mHsW+ohSMjH1YtUXsicr5biZyrO+E9Kf6rLdrf9JclaPihQwsQ5d3VgMqbQ8pusMHQ3am1nWlWuh5EGte9kGTZnD/XwSbqrF5fa78R5oxquDZYZSEg5+4m1K1ORuvL6Xp7iXtinFuIyu+GHG+lKPO1dPj3FGHhhoXIanSjb6aCxMHf3BRUfqcShVe7UbpFr1dddyLM1xnkfv36HCvEsxeWtN6O2ruKkPMlC0xXA4aZTXCJ9cSuRjT+VxcCoo1z/tqJ8CcyB7WiHQvn9qD5Rb3O9V3y39I/t6JC3Ldpm0v1dSIiIqJxYkDqgvhR9/RBuD+Uq/gUnR4PtriOot7lRelDryP5OwfgPq3vNaakoO5flkf+S+pUd+IgMgu2Y1ruDmQ+d4mzpU7msSdT+gocfma5XNH5TvSK/++C7yN9nS5Gl/hieQEJb8Q9UAMGdT1n9XW6cq11ojJjaAY4wywr7Hc6MRQuOL+4rzWh5e4SGPfnI+35+rHzRf2mGLlPVKJF+/lPhtJfhfSydOQ+n4/MF5q1zxrmiDqouzUKKtcVwRzjQd0T+ag5IjYdqUOpOhxQHMNgsqFaBjc87xSh6g9qMnUDjInBII0P9c9Xwa2e72ojEq8KrZ0V5sRONL9UhPrz/LNa/i0HrIFG2Koq4BZlPe58ZO31ij1GWFeJfXox2L9ZAeuMLjRvz0SZmvi9ux5lsq7D2e4qE2XFsVqzUPG+KHtkC7K2N4ufaiHJgkKtlG685x+ualsWMp/S2xXXKEhsz0fiD9OQ9sNE5L6jB+oMC0UbrgQaXxLH3CruzSd62bj3cpH1+EKkVYn3J4rgnsC9UIM2DX9rg/mTZu36tfYV11en3R8gcYZFe0eaU5xbgec3uSh6xyPbywG3qIPBVISKtXox5ctmmD5pg/Nl9fnywf0bUde3PCHDRvNgmWmA74OyEfUKUq8v9/H6YUnrq1D8RC4qD+n1Sv5CAFWPJCNdXG/+1iI0qwH/q82wyl51KuUuB2wmA7raHYN1Lvp/6+D5VOxUy07kh4eIiIhIYkDqgnVjzO+1JzqQ9b9ODf7iaJg3HxWhv2nT51Q87N8QXzhHGQ7WeUbrykAXqefP6regC8TkzVc8u/iiP9SHRJplEV/vx0tB3l/nwBQrlpY5UD2u3lX16OxT331wP1ujB0tU7S3wqcGQUGkO5M0TNexuQ2lY0KgOpfv0VOrKl+2DwZu6vW1aQEdZWBISpKlDyx/V/wIpyLglJFrw1UJk/rkVNe1yfVSVyF9ogO9ITVhOLN/xTr13cDB4lFQL2yIjcLIFVe+oG4Lq4O4cOctexiyT+H8/enr0dc07HvhGzPI3zvOPJpjvSw3ovDR0hOYXSvWAC0xItww7gijbsEO/M773m7Ug2ITuRUYJMmcBXUecYu+QuqeSMW3DNCQ+rvdIK7RaofzZA7c8l64KPu2PWAaYxfEGXZMJ2z2F4i7qfC+50TasrZS/qkX5Arkizuw8EnpcVeSk9fVn9Jvg+yAfNYPX5kaL2pNsmLw5eg16ztRr75ruRvj+JJc5BJqIiIguAANSk6n+OFqCQxHEb2vmZalymT6vlILlqFgmvqXS5etYIGS4LV2Jqv4gh7OFOulBo1w8Px+c22rg0XrVWFDy7XY4VwRDBpfADRYtAOH3q72Bwvn2q31lhOuUoeBTa5UePJmVCftKfRNQjtwZnfB9Kv5d+pIdwaxM5enp8L1XAbdcH5VV1EH8hqDc4ArPE3SnFfpAvGQoag+a1ekwi7fAae/5jxkq7LePCAGT8Z5/wtxoOK73DDJcnay9j2ki9+LLCtRwW1jQJgKrGpS7OgPlodclXjb1w4LRqLaoOP7OerR+YoA5w6nlhXKKNgHKkFsdHGpZhfr3fAjMsMLxQz2nVWGS+NWjOhfFssSlZrgq9Dl3o+f/ykUG+omIiOgCMCA1qTrgC/krsPELo2V4pc+DnOJb0VacJL8sEdFla2cRylq98MuOdoGTblS9rA7PmoD9pUh/XOY/ijWj8G4XGlZfmqBUyUw9UGK8Vg9MhGnvGRlMEzWv03rFmJB+gx56Uu7Kh/FoMeqPiNLXWWHThoFVIn+eDy2u4T1oIpA9XrzvTNN694x8JWp5qQqT9LoGzoZ2eRpd/VH13EakLQpJXI5kJKpd1ro9GAzljPP8FyLYM2g8JnIvMmL1fnfhQZsI1Gv7xI2yiNclXg/JcFK3mii/FPXH/TBcZ0HhXW0j8p3VbcuC7TU3fANGLaeV8+FICdQvXjCIq3wxJNE7CpEcJ97+7IV7Qj88RERERDoGpCZVEhKny0XB/6eP5dIQZbU+BX3Pr0Nm6Hs5Gw2F8k+loeYkwX7/Km2msHPb1BxF8SgsvQ09Tern7sDhzanhv4SmpqB2qzq729Cxz/16HdofXjpqkvUJ1UdQlqXq5xB1aN8kNyIVru0h5wx59WwN7yVWu21YGe26dJGPLY1oC0Fcr1PUvU9rD73ezrXx+r5IZPmwa92+Fm0PpEBm+hin+aitWYemgplDwah5ytA1bV8VkhtmmDnzUbl1jbyHatk1cBVHbmuNKO/40W3o3H7H0PHVe/oj87hzlEWeKXIdXNp4peVoH7FPf4XegxHHCLlvGvW6Hs4W9QwpI+p5uGoFSkbpKGjJ1p+9viZZl1Qzmn4hr3P7bai+SS83bhHub88vVqFyltxPVzAfap5PQ+K3p2kBgLgfZqFsv9w1EWr+IzVnT4/4qh6rIO/Olsizk01QTU+nvnB14qh5kvBpeE8/945mLZ+PaWGh+PfGhuql6jY3Kv4/NeeQARnp1bDcZYVyrGHY0LOxKckOuRRZV782DjFywCYC97YaNIr2MqWVo0Ht8ZNkhcNug+UqP9x7RvbcOt/5L4pow/OZyL1o7dePlzw7NNg2imsUZKbJ5bEcqUHR5kQs3FYF90k1Ab4V9rtDZssTz3L9y1lYeF86StUgq/ivkDmjEk3rR63thdlZgZoj4irnFaHhTnUIoQW2eypgvS4A7+8d2CKLEREREU0EA1KTac48mGfLZcF35Lhc0qk9aloeSEVm33GUlW3HtO/tQ81B8QtnQgLy1megfVMwMDEftf8qvqhvE1+m1yTBnKBvzdm0EnVrjTBqf0mOgXLTgsFZcZSCm9FZaUHR9R+j8ievY9rt25H+9HHxq2sszDemwlm1CvZhQanx10dYvRwtv7wDh7cuhW1ZgqxDUAeyvrcHZS29IX89DsBdvQuJD3bIdV3xhu1YuN2vlfPv9yLrn/ed59iR20JZm4HD4noLF8QODh1Q6124MQOVkYJvNy1Hu1YeaNm+BwvV9nnMB6/44mbJsqAtGETRXtlhU2iPdBTFJersi9tRF5wM8JhPW9deBXsQcS6rVDNcVStgX2KA4ays9Ix4WAtuQFO2vhrmpqVoUcunnkXDc28MzvbYFSPuaeZiNGwbX+L8qidaUbzLP/RldqAX9T99HVnaeKV9SLtnD7bsD8l1deYUtjy4C2mPyXVBnW0yvVG/b4Fj4vofFfdN0u7FM6KeX/4UTb+Sbbv5IBpPXgVl8XxUV65FU8FQoDCjUDxbLxegbZMZeamiLdT7fVUqXI7FyJktb/4MI4q+nqIvj8PQ8zAA94vB+3sIbTEzYc9jLza6hLqrkFtZhsZu8dMQa0JOXgtcaycW0h7hA5+e5HuWWRuCFSYpTs9/1d2GGm2DJOrRov4n5ppM5JfakO6XgaedTXpC67lW1C1R4D04ztDBax5tuJ9hXh5qIwROcr7tQoO4THeP/JdkVhpGDR2F/aZRhTJXC7oCibB+ow3ntrhQ/sVONO6wIus3IT23xnn+C1GSqPZ6CsB7OKwFI5vIvZD5rQwLclA9vCysqC11armm3B+qR1RnC4zwp4okB1z3V8qVIb69Zcj6YSZqjonnbIa4x+vkjkEeLcia/pKaIN4Aszk0n9il4EbZzmZ4PxI1X+3E4W1tqE1PhOdNG3JfCM3yRURERDR+DEhNmnjY7/+illtDc7obzqfVmdakvFVwFsyE4b2DyHzQgzo1TtPhQ6n9DdQcUgvEwJz9FdlrRXzh/4ediNvQAY/+x2hg+kxULgvA8b3XUfE7PfATOHZKz4Fy03I0rTfB1NuF0ntaseVd/QuDZ0cravT5wYHEJJR8K+Q35gnVR+h4H0V/98pgMGmEE92o+vEe8dlgYokB+LWZ5iKIFb/A951C5YMH4T4h1sc89ils+ZnaFofgCR46biaaiq5Fa93rmPb1VxD39e3IdclzTTcib/3wbwapcG1SYJ4ufslv2YvcF7u1PCCe3fuQXt89GKjxH/Si6NG9KNry/5uEv/7Gw6ZmoX1jLxbmijrf8QrSXzwlz20QX1SG9zZQ65yKjJhuVPzjHpTuVkuqsz2+gcyd8lPzFDh/Mo48ZeLe1D0hnoX3ZQPGDKCvI+TeiP0VD3agNfisne5F3f6R984TEJ8fEHX4573686JKF8/exrlQYnpR/9jrKN4u2/ZdL/LFs1iv3t/pBuSsX4la2eOptb4VaXeKe9YydLeTb0tB8u/2Iv2n4j5redj60damfS08v9A6/GQX8oN12O1B1j+KZ2wwrxvRBAUDEMN11yC/PB916jT4V5lgXedGW9FQImqdgjjtv7gGxI0IVggxcUiUi3hH5oQS/wXJvSu8t42SZRZHCqD191u053qI+Pd6f6vYY0DGMgVtbwf/1dqCBp/4N+IqMyxXt6Bup9wciSERQ1mVauA+Lq4n1gzbhhZUhuTIsqx1oW5+F2rUnN4vu+FR/7NydQYKvx0pJG5E8tBBgWW1aMpJRMOWxMEeatO+n4b8nXqC8CHjPP/5hLarxoacuUbgkxY07JCbgkaUFSZyL16r12dSvMqCog2VIX8gUFB4TzWscGtDEus9ehJ6Y5oDh+8rGeqRm1QI53dtiDtUpq/f7YIrrMedB6XakMcgO5rszrA/RPjedKN9eJL8oLD7K2p11VhDDMVzeo1cVCXZ4brbCt8r4r7dJ+9baTIyneeZYZKIiIhoDAxIXSJxX5iPHBkLsNxkhvOZ21AZTG599jTqHgvtJZME51q1l8ZpNDzRMeyXuV7xpSIYEomFNWupXBZOdMlZeITZ0+Fz7sGWDj+2PLQLcbdvR9yGfWhWj71RD7Z49njCZvpRNf6uB11qHGJgAF1/DAYZLqA+cgp9X1sv5ICGCHpRtuOP+l+XEY/MOyL90psEx41GdL13ZCjoM+axxT41qCHK9AQDJoYA6uy7UbQjWE+g+dGjgwGVZNP1+kLQxvmwaj2rAvD+btjYlcYjaJHpRYx/MRPJrqOof0sPaFxSceL+/HwPsp47OnhsT/1BuD/Ulw2J14Z9mbX+IEWrs/fdfahSrz+E7+nuweCccdl8jPzbeiS9qGgO3psEWEcE7byoe08GiObMhCNdXxwSj+qvzATeP47SwfrEw7F+vvbsBT44iqJ35eZBXSj6VZd+zukJsNmWh/0Fv/lIsEddLJSB48gV99DzpgfpBWpPsx3I2j5KQDNMPCptsg7vHxlZhxMd2OIZz3GIhlNQuDZD/lyaYd1gGza0txk1/18wWboRltVOtG1ugOMWq/6ZBXZYtOGiyTCvHvqksiITivrF/2oFGYM5qNwoerkO6t8PTEsq0bZeP5dlZS0abrLA/36F+Pcuwr9KO2RvqG532Ix3Ve+2aD93w2d/C1LrkKbW4SoFmYO9u3zi32+nVgfMyIB9w2Gce6oPfU+dQ9u6dLS/Gcy5VYaKvTK/0A0N6HywFuUZJXDc146yFL0vovIlF5q+Xa3NYlhizYf5GjPyNzTBeY8z5FWN8htkW2nGe/7zuDoDJT+shk2dhW6BDdU/rETOdX64m4sH/5tsWRm8BxbkjAgkTuRe1KH0Nbf2hwWjuN9N1Z1o39yOw48fhvOvOlEjjqN5pxSV7eodMUCxVKPtWXFd1eL1sBN5A02oGAwaJsO6rgWuu2ywqv9ELyhBw5fNwJmhYJphfiGcm50oX6bWSjyjdxYh/Rrx3zZvzWD7hN5fy2CAywL7fH05OTk8KJY5S71vom4LQ3JR3S7qMMOEzBwXGsLuWy0c1pxhPwtERERE48OA1CURC3OWBQ1b9Xw3bZsXa0PHAmcC8LR4UfSd3SgO/WKcnoKMOeL9w4/1HiPDnTw72EsHs40huSK60XNWLh7rRO5uuRwqKxVW9djohXfHyC/evu17kJwrvuDnvoLM5+T+C66P0HZWfgEbxe4OvdeTYFoyNKRwULZa3164X4nw5WrMY4ckjO/pHRGkUXvUBGdtMsSH92mwpwSHi51Fp0suDjoKz4fygzMMQz3cLrW+XrS9Ofz+hNzfBEPIFPRJKDGrdRb3dMRnVIGh4FxMPCxDHxzb7qNok22omFNGDO+o+yAYIIqHdXgwMX0xclICcP8mZOapOYuQt0gfYuc7elB7H0E8Dy0y6IZ5ybBnyWXVmQF5vn60uA5cWBBQ/BwWpah1EMdoHTkrlsp9LDD2M0s03Fdd6Nl2GM6MoZ8DZUUt2ra1Dw3nvbsdbV+1iK/xQ4xz81C+3oW2LR+gp7wEZtlDyvLVNpx7uBZ2ew8Ob8iTX/pNsBYdRvvd2gqwvxi5L6h5gwDLLeq5zqHtzlwtmbq1qmqUnw+1N1QXPMNn0XvHKX7WfXC7I8z+Juqt1kEfkG1Exro29Njlv/KiDmnPVqG5S/4XQE3a/Wcv6p3pYQnFm19IQ/5v3PB9YoDpL21w3O1AXqAG1YfE58540fKHRlQ8W6r14PWe6hQ/f6LcghwUZhSGvErg+LYL7Ztrh3r8jPP8Y/rEB19CEWrLz+FceS1sSZ2of2loeKB6D9ruDt4DcW/U4Wji3oSZwL3w/SYL1pfq4VV7Yl5tgjlZQdzJepQ+koWqwb9/+FD1eCZKWz3oUgOIVxlgiA2gs6MK+ZuLw+5d4FMjMlfXwrVFrb/ey6rqBXEsuR/9al6pPDhKxTOlPqOrFXS2liH3RXmUYffXWqA+Y3a4nmhDyVxtIwwL7PqzrD7nW5zIk3n2TGnVQ23R6UPXp+IISVbkhd03G8rvakJbpQv2SD3/iIiIiMYw7Zwgly87N3zXhX0fjH82nGhTE3Lb5qlL/XA/t0Pm4BmHjbfhXN54s9icRt3tuwencB48p5qjaMNQ3p5Bm7JxLjsB6DuFLXe8gQq5eUwXUR89CbaiBW68u7eH5RkKUu69DYfX6cf37NiF9JChi+VVd4g6vo84e6TgwdjHHrst1MTqS2GdIRaH7VcTcuu91wJofnQncocFpYb2D7/W8zvf/Rk89plulEXILTX4+bD9S9HWlApLWC6t0Y12HyKx/mANXKvVYJdoi8dEWwwGOZNEXVYi/zrxBSRBnFg8TxXieQr2YrOWi8+lnELWPXuHvjzdL569NWrXswG01r+CzBf1zcOV/GQdqtP13oNhdc1bhZ6Nak+98/88jdaOWr1u0YN39ffsQlGkAOsEzkMX55ZVjXjL95JcIxKWVaLlDgvce1phWqConUV11yqwzFKgmIzw7IxD5vDhdBNWi/ZtNpjV2ezuDwng0IVJKkHDfTYE9jSgZ0Ha0NDGWD3opohXT1sWFj4bFgqlKe4Bw+1Iajwg14iIaCqZvXQpvrlrl1y7fLGH1Gdhhmx2NWgRTHw96mtiARH7bPnrfVys/IvoOExifVS+p48PDp+z3Lh4qCfOHAvyF/WH97KJgqpDwYCYAckR8mQnXi3bo6//wnrpXHKxeqJvLUAW6Z6Ev8YbjFK5X+ySw/2G5a3KTkXuLD8qa+WwvriZyL832LNMgX1JPHwdR8L+kl8SfPbOo+ZksDsXkDx7HDmvJiBnTrCOA+iLFIwios+OlofIhr53slDhrkDx80UoCr6eyETaQ8moeN8Pw9WyPF0mclD73UqYj+SjyL0FpaH37dkspG9eiPTf+sSvHeP+rYOIiIhIw4DUZykxPnz42yUVg8QReX/OY9LqE5qPaC4c6jRDgnW9CZYPu1EVaejhZHruKNwyF5flxvA8RmqwxSJnduvaH5LX6rIQB2W8w/HG64QHzR/oQxQNC01ySGU8qtddD6jXHzKsbzCYWLgA1gQ/ml8Mz7+lB81UMTDKIR/n03N6cDDoJWGcLhdEHeK0oatEdLkoLCiDdYb4b0H/sCHAQUl25Bjb4XxZrtPlocCBIpNB3LfRelLnwPFFP5oiDQklIiIiGgMDUp8FmaIIMxJgjTS9/6B41P7rraNPpR1B1YfB3ifxsGSPldBBQVNVhp6naBLrE1T39HHZEycGGSst4uwK7Mvi4fndwfBcJ1HRgazHfPCq+ZrmzYdz61IUqsGLVAXV/7oUOYlA4JgPts2XR/+oIbFIs4zyRU5SNt2Klm/JlXGq2CtnMwz2gsq2IH/ex2h4Tr3+o6gKzrA3Jwn27HhUrxyezFzXeDKYAGu8PZ8G0HVsWFL5ixV8ljEdpky5SESXha4zPeLfGjVXVjs6N+vJsatzSuBY70SDXWz7oQ1d/zmUbPzCKbDemS7+XzAoSA+ZoY8uwEed8H8KmFe3oeeRFjSJ+1Z7RwnK73LCeX8LDj9eB1ObDcXtsjwRERHRODEg9Vl47xM5u5kB1r9ZHjZlc5hsC3ITeicWsDkSGExArixLRfgk1UOUjSlI/7+ntCSzk1qfoBMeNLwvowUpJjg2LoDVcAoNIfmkourd9+F4qxeBM5/CYE6F8/kCnHtyOWxfHIDH5UGmNmPh5eKPgwncTcu+hNqb9OWRFFTfaIBvv1wdr/ojcAd7QaUvRmXO9TB+MBRwChvWl7McmQuGJTOXfG0fy+cIMM5PGv3Zi5FdqQY+RssoeaYulFuddl8Ti/QbL+1wQCK6OO4X05D5Up32c2pM1pNjl9xRDfuKHJj/bzPsj6ShaO/F/yGg9uHDcAUTzF+loHBDSLJ4mrjXcpFZtwWNR8S/8NdlIEfcN1tONRy35MA6w4eqJ5KRtdMjCxMRERGNHwNSnwXXUbSc1BcN8xQ4/1X20AmVaoar+Hp0TrQHUeMxtATzwCeaULk1Vf8rcaiblqNprQFtrg59fTLrE2LLb2Q+IsSjcN1M+N/77IbE2X6wCnWZAVR9bwcSvz6UfymuYCfSHz2Ey+tX66NwemWgZXoCbJtuRaWWiDyUEeVbl8L6py5UtMlN4ya+ULwnA4Pz5sP+pQCa/yMk4HTCA/cRfdGwKAmW0344Iw2zFM9T0zG5nHg9bHJo5nC2ufo8ZP73jqJMW7p06lv8Q0GxJSlwjhq8I6LPgsddjKyHEhH37WmYtkF/xZUmIu2JMtRfog6TxQ8NHTv4SntB7qQL4ttbgfwtyUi8L6Rd70tE8pYi1Mj/PhARERFNFANSFywJiYP5aq5CnDqb27iJL+L/q3uwJ5NxUSqc29bhcNXNcD6wAg1bs9Hz+GJY+7pQEdaDKB5xwTw9M+IQ+fu+D6VvyCFYgnHZUrQ9vwq135iPwqwUOH4kjv2QgmRvB0oHgwoXWh8hfbr+V2gheVaEDOGhdnfAHRzmFdML9yvn+Uv4mMdOgXKdXIyJGRl0G0v2zXCsjodB7fUzf7yzC07QrERUakE9E2qfyYZT5vNKnqHPLqfWeXCWonGorxVtJ/NeIWEm7D9Yg55f3IomcX+c5avQ/vJtcCw7i+Z/81xQInb3rlNDnzvShbJ35bJU9s6pwWfKt78DkTOFdKO47rg8Tgwy/p9VsA8PbM6xIOdL4iHuO4WaJ2RANGjwX6NYJJ4nB9VgO8ZNR7K+pNvtQV2wJ15MPAqHB+/mzIczeyb0ux6LtCVqEt54KMPrSURERERERJOKAakLYoTt3sWwzpar4su3ZXWGlhNpvHzb96Bo9+nBL/mIiYWy2ITCrPnIW5YAY58fNU+3hgwbi4e1wAJr8Itz4vWoeECBRa6G8j3XijJ1OJpcN85Jgu1bK+B8wILyzAQYThxFyRMdYYGLiddHZUTJHTMHg0HGv5yL8jFHSXWj4ncy7HXofD15xj62pXAu0hPkyuyZqFwXHliyFJqQHgwSiut3ZofsX2DQZyCcMRPlm2/DuVcLwl59r9whXuvQ+cwq1A477vm4j8kWjDPCvk0cp+lm5P/pCIrEtVqyVyBnnr4bcQnIuTf8/imrVyAz+EzNSET++qShQNuJkLxXklFcd464P4W3JMGc0A/PDg/yhwWSxq3tIJoPqQv9cLsiBLWCw/oGRiYzD/NuK/LF/i41JpSQBMfPVqFatr0l24KWqhRYBk6j/om9qAjNQZWqoPbWYKBIlL1tFRyj/Dwpq0N+DmKuRU7Yz0EvKn52AI0nZFBqMHiXjfZnxPszy2H56OPB4Ksp82b0vbQS5UvkBiIiIiIiIoqKaecEuXzZueG7Luz7IDj+7PJg37oOlctk74yI1Kn5d6NYrp2PsnopqosU8QVbTu0/0I+uQ51wVO9FzWAHklS4ti+FNWIvrNHPZ1m3AnV/kwzLLFnfMwF4fuuFbYwhaeOrj5C3Cj0bkwYDCKH8+w8g8cFhvV8GKWh66X8g8T9fQeZoE/KMeexOtKUkR26LM90oK+iF7VUFZrkpzDEfpm3YJxbUoYw3oGSZYbAH1ugG4GncjfTnxpnras58VP/AgpJU0eai7bxvvodc0d7l2wpgCwajwqj37wiU0e6vdk17hpL8iuNX3rsINjVIKHvo+U/60fwfv0fRjmCY5QIV3oqe23qRf8/eiMMybQ+vRfU1hxBnH5k/ajhl9WJU5onnaIFhsJ4B8fx5D/hQWXsQ9aHBqE3ZOJcdjC6GG/4sjf7zN/znwIiSB25AxVeMMMl2HWynmKXosc1E4FAX6nZ6UbH7ItuNRnXLqka85XtJrhER0VTygOF2JDUekGtERDSVzF66FN/ctUuuXb4YkKIrkAmV/2pBzvGDyHUGYDGHBqbikZl+rTaczjDLiExzAkw9x5H1960XnDuL6ErFgBQR0dTFgBQR0dQ1VQJSHLJHV5h42Ld+BfZEP8oePQrfiW40uo6ifvDlRemje1EkXvkP7kbmW73A9Bh9iB8RERERERERXRIMSNEVRdmYAceyWPi7Tg3LhxVJPGxzp6PrD8dHSeJNRERERERERBeCASm6opQsuVYbnmdcthiHt1pgGyVxtuUmM5zP3AZ7/H/DtnlEim8iIiIiIiIiuggMSNEVpaz+CDxn1KUYKMtSULt1Dc41qbPqhbyaCtC2eTFyzh6F7Z/3jaMnFRERERERERFNBANSdGV514P0gtdR/O/H0fphPwJnxbaYGBji9Jc6M57v/ePY8tNdSPyeJ3w2OCIiIiIiIiK6JDjLHhERTQrOskdENHVxlj0ioqmLs+wRERERERERERFFwIAUERERERERERFFFQNSREREREREREQUVQxIERERERERERFRVDEgRUREREREREREUcWAFBERERERERERRRUDUkREREREREREFFUMSBERERERERERUVQxIEVERERERERERFHFgBQREREREREREUUVA1JERERERERERBRVDEgREREREREREVFUMSBFRERERERERERRxYAUERERERERERFFFQNSREREREREREQUVQxIERERERERERFRVDEgRUREREREREREUcWAFBERERERERERRRUDUkREREREREREFFUMSBERERERERERUVQxIEVERERERERERFHFgBQREREREREREUUVA1JERERERERERBRVDEgREREREREREVFUMSBFRERERERERERRxYAUERERERERERFFFQNSREREREREREQUVQxIERERERERERFRVDEgRUREREREREREUcWAFBERERERERERRRUDUkREREREREREFFUMSBERERERERERUVQxIEUUqvhW9L1agL4nl0KRm8arsHwNzonPdv5oop8kIiIiIiIiurIwIPWZiEfh+gy0/XId+poKtCCG+up7ORuu+1NhTU2Fa9sq2GVpIiIiIiIiIqLPEwakoi3VjKZfZMNZOBfKmW5UVe/Bwtu3Y9rtryO/4RTi0hfD9eRSWBNl+c+jvFVwbZLLl5vaNxAn7kfc9w7AJzeNV/2WXeI+bkfyjyf6SSIiIiIiIqIrCwNS0TQnFS7HYuTMBry730bid1pRsatbBj78aP73fcj8+zdQsb8fiInB5zMmZYJzbRKS5RoRERERERERXXkYkIqaeDj+cTGsCWLx2FGUPtalbx7Bjy1P/BdaEQuT3PL5EQ/71q+gcI5cJSIiIiIiIqIrEgNS0ZK+GIWLYsTCAFrf2ge3vjWyEwdRvf8TuRIUj8KNN6P95aGcUz2/vA3OtfFyv86SvRgNT65F36vZqBWfKXkgGz2/lp956VZU3qSWMqFy6xr0yPxVfb+4GfaQINHgMZrUY+hlg7muerZlDJa1b103WJdz2vkibN8ezIWVioZfZKNyWay2Zs6W+7ct19ZVyuqlcP1i6LNqTq3Q61OWpcIZUq/qJ/Wyfc8sR44sE2ZT9uCxgq/2waGCy9E+YrsRtnv1Nu7ZmqqVGnSTWrc7Bsv3/DIbh58PyfM1Jwn2B25D5yuh5xhiWbcCbb8c+rx6bU3F4SFHZXVou6v3exUOi+Np5YfdIyIiIiIiIqKpjAGpCzEnBc5nZOCk6Q4c3ro0ckAkhHXNTDlrWy/aX9QWxlS/+W0Uy2WtZ9FPboUzbyb8r+/Fwtt3Iav2OHoSjCgsvQ2uAj1ok/GtDFRmzUVOqgEGxEDZvBK2uOOoeOIg6o/0A4kzYf/mCjhrboC19ygqHtO3G2ab4LCbtWPk3XszatYq+jFixDG23oCS+QPwnQggIPYb581F5SMZ2vVWPbgDC396FL4B7aOD1O3pL56CX67rOpD/969g2u7T2pp3t5o3S7w27NPWcdNyNG1KQfJ7B5Aurq+o8RQCCQko3LgStWoQrWA5qgsXDNXrJ0uR+VEvusS5DbMTYNGPEu6xd5BV3y3rMQDP9l1Ie0xbEfYh7fYDcJ8ZgNe1F7mPzUV1+RIU3ng9zGovtjAKmu5PRfpHh1B0z3YsfFB87mw8lMFyqai9NxVFNxphipObQuRsykbLvXNh7FCvbTvSHzsEDxKQU5CB9k0yKKVeX1YyrMHr27wKNbdOh7flOFpPDoTdIyIiIiIiIqKpjgGpC1BuX4rCBXpPHzXXk9pzp/oHSfr6KArnyZ4+ZwLw6kvjl21BWboBXb87gMznjsKHXri3tyJrpx8BxMJatALloljrz8W2B4+g5Yz6oRj433wH6T8+iBqXF0U//m/9vAtmwrDrjZDtnVoOK8O861Ei3huffhuZ3+uQxzAgra8DaXftRtqGnUirlcGd2XPhuFe/Ht+bfvj6tMUwnvrT6JTL55cE50YFyuEO5D7qg0dcX/1zb8Ch5tKanoCivzED2/ch98F30HxCLR8P5fQBpD/0OpK//7bY/ga2aMcZTrTTi/vgPKQux0A0Vbh0I5T+P6LqUbVNj6N0y9vIEtejBt7CzLke5sR+tO05gHpxft/+DuRXHIFHVE/XgeKH3kbZ/l65HmLOUjhWJ8Bw6AiyfqwGokTb7PYgs7YLXaJOZnFvnelio3p9D4l271E/ZBD16kD6Xa+L9mhF5mNd+j36i+s58yIRERERERF9LjAgNWGpsP6FOvQunLJgrlwaxciPjFv5166HCf1o94TP3uZ77hDcagAjbibyN+rbhpxFz5shAZITH6NTDTL19aJlZ+j2AT0AI54Eg7YhVC+aNnfIpOvifNv3oOZ9vTuUZUmK9n5JZIk2nTMAT9vBwXOpqj7UI11DgZhe9GmnPw33T2UOro4uNHfoi5H1ovSdU9o1Wm5cDKu+UWO7IwnY34E6ua45I9tjhFhkfm3FUP6rEx64//CpXNG59cqFsa6fC8t0wHvIE3Zt2O1BgxYoi4f16/O1TcBR/R6pgbQth4bKt52CT9tORERERERE9PnAgNSEdcD9f0YGHnxHjsulSy0F1nlqNOssut7VtwzxwfOhXhclZVjOo0lS0f6xvjB9eHeji7DkGpgQg4xCPV/S4CtbjombYcBFDVarP6IH7tQ8T9n6Jogj2r4cQPOL3XJ9DCcOov5gPwzz5sP5zFq0PZCiDREs2/w2qvQSoypcoPYk60fnUX19SC8aT+iBQdPc67V3IiIiIiIioisFA1IXYEvVAT0nk2pgQBvCVfrTsQMb3j/J8jExSNSXxsmIZC0uMx2mG7UNYXr+HN5LZ9KdPDssN9QloPUe64f7OZlXasRrd0g+rQvhQ5U2nM4A69f00JZy71yYjx1HqTYE8Hx6UWH/3yh1nYY/xgBLlgVtv14D17Ck5COlQPmC+h6L5Agd6CL1qCIiIiIiIiK6EjAgdSFOHELRd3bowZLcV7Qk181y12iq9p/Wh4LFxcMy2EtnPORQO3Gr4q7TNkQU6Is80GzSXPJYSiwU89h5uC6G+8UueESdDYvmonpOEhw3xqPtnYlk8/Kj5tHdSNywVwtuBabHw1rwFbjy5O6IDsH3kb5kmDHGtZ0dTEZFREREREREdEVgQCpagsPG1F46OYvljHujy9m0Ck3fUJeOw/uh+h4D8+LRhuX1o/3AiDFhk2OeAUbx5jt2TF+/FPZ/AjUjlLJsUYSk3fFw/ORmVMq1C3bCgwY1/1WMETn3piIj7hTqG+W+iThxFGUP7kLmDj2hfOaqxXJHZK1deqBQWTBvxD1XYvTEYt5DWjIpIiIiIiIioisGA1JR40Puf+iz1BkWpaLpgfmjBqUshatQOasLpf+urg0l5TYumY/qYFJtjQLr/Fjgw25UjTe4MqEhg6KsOgPcoHhUpyYAA6fh3hUcouiHX0uFNB3Jgz2/4lFYmjhm0M0QF9JjyHUcbWqwLiEJjuczUDIYdxPHeWAlbFefQpncohter/HZ8ps/6oGvG00jk5kPY5wRmuJ9OVxbU8Oux/N0T3iS8hCJCcEk5UDdK916uXnJqA7rGRcPu5pfqu8UGn8VTDIfjzgtRhWDuLD7LE14uCcRERERERHR5YkBqWhq3IN0dbr/szEwZ61A27ZVqP2GSUuQrbLcZEZt1Ro03/Qxyv5paHY71O9Fxf5+qL17bD+7GY5l8VqCbsfDi2GNP426p1sHhwwqq2dCmaEuxSGtUO3LpBvcHpcAa8h2S2ECktWFGQnIXK0m4A4Vj5zSDNjl+ew/WgVbygC8rgMobpNF0I3mo2q4zICcjdloeiADrm23oWreWXSqu2fMRJlYb1g/U10Dzug5r5TUFJSvs6Bl6wpYxZWWNnSjSx1SN2cuqp8sQN8rd6Dv12vgvAVocupD65RlS5E+S12KR+YdemLxCdndAbeaM2rAP0oy83gULknQeoBhthH2kKBQ8rLFoq4W2NS2ECVKfpQEM/rRsuegXkBsq9QSmAOm+SbkaEtC216U7laHa6rtcxtqs9Wji/t4fwaKFvTD7RT3NpjHKjUVltnqggHmtZHuXTwy1g6/R0RERERERERTz7Rzgly+7NzwXRf2faCNc/t8SVVQ/c0vId8cD9MMfdiWmhzd3/Mx3Ls7UPbi0Qi9b4woeWAFHLckwDhdrKrlT/wRdU4Pyt6UPWw2ZQ/NTCf59x+AA2ZULgufFW+07d7d25H2WCpc25fCOiMAT0cMzCmxMKjVPNMr6ncQxc8Nq9+cFDT8y1LkqbMBDvTD++Z7yH3UiKZX5yOxowt1jQdQEawjFDi3/Q8UirKBD7tR8/QelMnZA5W1K9Dwt3NhmaW3iV/srwvuj3BtONONsoI9553pLpRy721o+8vjSLSPzB9Vu60AtnlyRXMadVpC9eVo/7Xaoy0GBrXtVWpbvOpBVq3a5yrYXvouTVjd4lG4cTkc2UkyWCiu7aQfzf/xexTtkCni81ahZ2OSHgwLOuZD2Z++OMo9kitEl7FbVjXiLd9Lco2IiKaSBwy3I0n8DkdERFPP7KVL8c1du+Ta5YsBKYogGGAJBmSIiCaOASkioqmLASkioqlrqgSkOGSPiIiIiIiIiIiiigEpIiIiIiIiIiKKKgakaARLduTE6ERERERERERElwIDUhTGvnUd2jbNhaKtxSJj/W3o2ZqqrRERERERERERXQoMSFGYqgd3YNrt28NeiQ92yL1ERERERERERBePASkiIiIiIiIiIooqBqSIiIiIiIiIiCiqGJAiIiIiIiIiIqKoYkCKiIiIiIiIiIiiigEpIiIiIiIiIiKKKgakiIiIiIiIiIgoqhiQIiIiIiIiIiKiqGJAioiIiIiIiIiIoooBKSIiIiIiIiIiiioGpIiIiIiIiIiIKKoYkCIiIiIiIiIioqhiQIqIiIiIiIiIiKKKASkiIiIiIiIiIooqBqSIiIiIiIiIiCiqGJAiIiIiIiIiIqKoYkCKLlA8rAXL4dq2DudeXgW73ErnV1i+BudeLUDnjxS55TyKb0WfKN/35FKM8xNERERERERElzUGpKLMsm4F2l++QwtIqK++l7Phuj8FljkWtNUsl6UufxnfWgx7ehIy58XyKSIiIiIiIiKiCWEoIYpyNmWj5d75SDx2BMXf245pt7+O/IZTiLtxKdqeT4Fluiw4BbT+fC9y/+koPH1yA41b/ZZd4t5vR/KPfXJLUBJqt948srdZ7RuIE+XjvncAwz9BRERERERENBUxIBU1ZlTckgDDyeOw2T2o61C3+dH87/uQ+XetqD+hFZpi+tE3IBfpoikFi5Cfwh9JIiIiIiIi+vzjt99oWXc9zHHi/aNeNOtbQnShaGc3/HKNrkA3LUfT+iQY5SrR58M5+U5ERERERBSOAalo+V0APep7igJXYYSwQ+MpeHvlsipVgeNHt6HzlQK0bwJyilfhsFjWck+9nI2GgnhZcIiyeilcv1gXlp/KuXZ4uXgUbhTH2i6P1XQHep5ZgZI5cneISPmuRh4vyIjyH2Wjp0kv2/OkBTlyz+iMsN17sziHKL81FUrBzTj8a7VOa+EavD4jSh4Qx1W3a/Vdh8Nbl4489pz5qNy6ZvD8Y5Z7eKiearnOJyNfP+akwPnk2qGyw1/PWEQhUb/7Vw1eA1LFZ56R90Acu+1ek36soDlJsD8wdF9V1o23ouchBWZ1yOaMJFRqx18HV566N7yNhlPvUdsvw+9RU/Hwc84Pe5b050R+5tdr0BThWSIiIiIiIiKaTAxIXQg1UDEYdLgjcuBjuBMH0XhIHd8WC+v6W9EpPlMYFgQ5iMx/2KcvZlrQ9O0U2G4wwhQHGGavQl1uAgIfnkbXWbE/IQF5xavQcJNeXKP2sNmUguT3DiD99l0oajyFgChXuHElakPK5Wxaibq1BrQ+9zqm3bMXVR98CuOC+aj8l+Vh16Dnu0qG//V9WHj7dqS/KI9XugrOdFlo0HRkbl2B/L5jKHlMXOeJARhTU1D9gyS5P5K5qC5fCtvK62FOEKtxJjTcdhV8J0UbxRig/KUaJImHfev/RHV6ADUP7cK073nQ+OFVUJalwqkGsLTjCHNS4frXFSi53o+K72/Xrqv+w1itXEOVWRYS1HJVK2D/cj/qHhXHu2cPyn57VtR1Pqr/dRXsYffDhNp/EfdowVk0P6G3Vf0xOT6x7xQqRJtM+063uIYlyFs2U15DEtocS2D5qBv1vzsNf0wsLOssIe2Vitp7U1F0o35fg9zPvYHE3ANwnxErZ7pRph779h3IalTbaAkKb5RtNIx+j+bC2KHec3GPHjsEDxKQU5CB9k3BoJR6zvnIWRJ8lm6G6775SDx6HI0HAwhMj0dO0QqUy9JERERERERE0cCA1AUot6uBilh9JSZGC3yMHXxR9aJsywEtWCM+BJMaVNm2Du0PpEDtZxOmxYNc++uo9PZrq8lzP0VlyU6kfWc3kr9zAO7T6tZ45H3TIoMySXBuVKAc7kDuoz54xLnqn3sDjv3i89MTUPQ3MiiTvgLV2fHwbH8HRbv9wImjKPsHrxYIMcybj4pCvRhuyhDlEuD/3QFkPndUS6TtqT8C90l153SYFqjvIeJEW7z1DtIf9aLe5UV+8ylt+KGyYJ6+P6LjKN2yB5n/Sy9rnBOD5h/vQdY9u5G1Wbz/tBsoXAHHsrNofGIPKvb3Ah2HkF9xFF61/LIUOLRATzwc/7gY1ng/6ipaUaPm5hLXVfGuHwFt9zWwqu+CbWMqrIkBNNe+gbI3xfFOdKNKnLNGDRQmJMFhHwpeKfcugW1eDLra3h9sq6J/PgKPevviEmBdp5ZSr+FtZL37sboCoykW7sd2IO3BVhQ9tBs176uF42FZre0WOlD80NsoU69lXOTx35TXEmrOUjhWJ8Bw6AiyfqwGosQ92u1BZm0XusTzZc4OBsL0c1a260dIvn4AVf+wE+kP7UW+fS+aPxQb1evRemMRXWrT5DsREREREVE4BqQmLBXWv4iRy0OUBXPl0hhOHEL+PbtR6joNvxaXioU5y4K2X6+Ba/gwqxC+trdRFUx6fqIDWTtP6QGKBTNRor5niTrNGYCn7WDYLGxVH+pT4Bn+4npt5rbCrydB6fPD/WJoQKQDPm0sYQzMy/QhYYW3z4QiztD2ZujRfMj/u2DPHbkpqK8XLTtDjnm4Xx+eOLKZRvpUf/MfOo4K7Rp74X63W7uOypUzYfjQj5p31e3SiY/RqfYkGgz0pCDnS+JER7pRGpIY3vfc6/rMdN/ZB7e2xQzbMgNw5jTcu7UNUi/KdvwRXWLJsGguKvWNyFugD2PrOX1Ue9ecOA6fFpQTQq/t5FktqOb3HUdZSF3rjo8II2ncE80Ef2ZgREDKun6uNiuj95AnfOa93R40HFIX4mH9+nxtk6r+tNq1TrTLe62oGWynbrR06UFPosnBHFJERERERBQZA1IT1gH3/xkZUPAdOS6XzqcXNY/uRuKGvaja36sHGqbHw1pwMzp/EjIMbSwvnoJXC2hdBS0b1ZJrYEIMMgr1PEKDr2w5zmuGAWrfH6vJAMTNRHloGfGyyY5Mxi9cq71b54pyOItOl7Y6cW1nR/bombAUWK4Xb7PnwhVW36WwztBLJM9OBfKMUGIA/5nznDGYVP50AMPjadjdA58au4uJh2VYTyGD2DakGz16XAcYR0zJNzDBwNMEFGoBs350hsTLdL1oPKEHB01z1QYk+iyxhxQREREREUXGgNQF2FJ1APVHZM+SgQH49negVB1iNhHqcLkHdyHtpx1wq3mTBFO6GbXjGjoVQI/e+Umn9dbph/s5tQdTpNduFAfLDeYoivDaoOawmok4Nbm2KBwXKdF31IjKqk/nMV/kuopX4oMdasQIavjsvBYY9ODdDEOEfF/9GN5pqWr/aS2opiwIDRLOR7IaDOs7DfcOfctnIwXKF9T3WCRH6Jg34R5YRJOGPaSIiIiIiCgyBqQuxIlDKPrODj0wkvsKFj54AM1y1+iWwxVhljTfmweQ9XetaFRz+SAW6TekaNsnLhaK+Xx5rIQZ8cgckZQ81Cn0ab2ADFBu0zZ8tmYlwCEXIwrow9mMppmDuaIiOhbQhtUhNgbJ2oZIxLE+kov1B1HT0Q+kzEfDxvlQ1NnuHlgEa+IAvG95sUUW+2wcgk/W0zBjjHt+lsPx6LPGHlJERERERBQZA1JRlDw/CTa5HK4LZe/JHEwxocmJRnOt3lPnw49Rr67u/0TLgaQsW6TligoXD8dPbtZyI7m1nEbq8MCRgTHMWQzXw0u1Re+f1EBGDDK+EkyaHiJ9OZp+MJSbaPJ0wKMl3DYi7/4IQZebMuAqnwu824tOdX32TNiztT1h7Jv1a8e7H8OndhyKS0DGaL3Q1PxSg8MUu1FW3wlvj2jXtStw+NXbUJs5HZ6d+5D7mNran63WLn2Iopo4fvg9UuQz5D2kJZMi+gyxhxQREREREUXGgFQ0JV4P++B0/KHiYdPyNg3A94E6TVw4Q1x4QEa5N1HLCeXdf0hP2O06jjY1i7g6U9zzGSgZjDfFo/CBlbBdfQplYq2+xa8Frozpi3H4RyGz+82ZD+e/KIjzHtBWq1yntHJa76DQZOtquY2iLm3DEhfFxCBRLoaZPn3sXkshDFfLWQtD1OxXZ5eLgXlNBlq0XkpSqhmu+43o2nUcOPE+3FrcxYCcInHtIcMMLYWrUPKF06hRV0540KDNehcLa9awQFt2EtJmAD5PB6rkJsxJhWtTEnw/34HEr8thgnfsRGa1PutgmPP8FA2/f0GJCRECe6O1pWCcMTQ4se4VPfE75iWjOiwQFw+7ml+q7xQafzWUaD4YpArPiRV0FeJkXi6iS4s9pIiIiIiIKDIGpKJKnY7/ZvQ8swLlN2kZjYBUE8p/tAr2RTHwHzqCilp9cyjlK8vRUJAERevdlAHXGiMCx3woeyyYt8qH0oZudA0AhjlzUf1kAfpeuQN9v14D5y1Ak9OrF9vtQWWb2rMmBkqmBW1NooxabtsK5A10okLrbiWo5farvaRiYSm4GX2/zEb7M2vQI8rlfHQIpXKWOosM5CAuHhnr5PUIluJEPeAz61rkReiMNcQI25J4LbeT4S+SUb06PFjie+49OI/oQaSMvBU4LOt77snFSPcdQlGbWqoXpf/mg1cdZjhbXPu2dTj8jKjvL+9A298a4K4/MBhA2lJ1EO7TYiFlAVoeXgzrHNG2yxajaf31MIr2LN0S0vPpbxbAmmBA5t+uQsMDK+AcfC2HY51pKJgn7klJeoJ2Dca5M1E4GBAzolLO1KfMmxtSfmi7ab4pJJ9VAAG1yeMSkHNvingmbkNTobo9HoVL9ONjthH24PHb9or7oOa5MiBn422ozdZqANv9GSha0A+3c6+ctVAlPpeinzN5XnggMtOkBgLF87AoZURPKyIiIiIiIqLJMu2cIJcvOzd814V9H6hdfz4P1BxSH6O4vh+2dSmwLTXCFOyVciYAz2+9sD16CB65SWXfug6Vy2LRdcgPwzwjjGqy8YF++N7zoeKJA6gfDDjo1KFlDX87F5ZZem8Y/4fdqHt6D8re1ValeJQ8kIGKTHF+ddY5ebzSEXmwjKLcCjhWJ8CoHq5P1LHFi3xRRy3Asyl7aBY/yb//ABq+sHRw1j6dmmx9B7JGTG2XCtf2oRnzgry7tyPtMbmiMaHyYXFMNeij1uNsP7xvvYfcYD0kZfVS1H4rBdbZ8tqPdaGu7u1h1y6kpsC5aQny5sWq+dD14+33wfH0sPbMuxmdNhNM+uFG6ulGmX0PzP8yNEuhTr3e/0byRkXrxTZITSZf0IWc4desbd+j9cyyrl8F5zeSxBWLOr2pX2P5tuHHP426YJJ6NVi1cTkc2UlQ5DH9J/1o/o/fo2iHljFLiNTO4hjPBZC/MUkPdAWpCeS1xPZEl8Ytqxrwlu9Xco2IiKaSBwy3I6lR7z1PRERTy+ylS/HNXbvk2uWLAanLWDAgNTJIQ5NuTgoafqQgsOs4elKvHRpGN90A87x4KOLV07IHC7dMcHZFoisIA1JERFMXA1JERFPXVAlIccge0Qgm1P7LUpg7WlG0w4vSR/eiKPjasgfp39mF9Dd7ERc7lNOJiIiIiIiIiMaPASmi4YqXoGheDHB2ZKJ1nQmOBf1o+vWw5O5ERERERERENC4MSF2uUhWZcBpInmsOSYpNk+5PAfgHAPPa29Dzi1vR9MAKLT9V+b0r4Hz4Vhx++QaY3vk9irWk6kREREREREQ0UQxIXY7yVqHnyeXIm62vGhcvRtv2VbDrqzTZGt9G5qNeNHYEgMSZyMmaD9s3LHCsSYb1ul5UVexEVn0waTgRERERERERTRSTmhMR0aRgUnMioqmLSc2JiKYuJjUnIiIiIiIiIiKKgAEpIiKaJNPkOxERERERUTgGpIiIiIiIiIiIKKoYkCIiIiIiIiIioqhiQJkIqQIAABUhSURBVIqIiIiIiIiIiKKKASkiIiIiIiIiIooqBqSIiIiIiIiIiCiqGJAiIqJJck6+ExERERERhWNAioiIJsk0+U5ERERERBSOASkiIpok7CFFRERERESRMSBFRESThD2kiIiIiIgoMgakiIhokrCHFBERERERRcaAFBERTRL2kCIiIiIiosgYkCIiIiIiIiIioqhiQIqIiIiIiIiIiKKKASm6DBhh+1YG2n55B85tWy630eVjPhp+UYBzTWvRkC03EREREREREV0EBqSizLJuBdpfvgPnXhVf8MWr7+VsuO5PgWWOBW01V2YwpnB9CqyLjLDMipFbiIiIiIiIiOjzjAGpKMrZlI2We+cj8dgRFH9vO6bd/jryG04h7salaHs+BZbpsuAVpv7FfSh64hR8cv3CJKF2682wyzW6lI4i/+/F85q7E/m75SYiIiIiIiKii8CAVNSYUXFLAgwnj8Nm96CuQ93mR/O/70Pm37Wi/oRW6Mp1YgABuXghlIJFyE/h40xEREREREQ0FfAbfLSsux7mOPH+US+a9S0hulC0sxt+uUYTdNNyNK1PglGuEhEREREREdHlbdo5QS5fdm74rgv7PuiRa1PcnBU4/Px8KOiH+8X/jaz64eGnxWj5VwMy/2GfXNcpq5ei9lsKrLNjtfXA6dNofPEdFO3s1daV1YtRmacgJ+UsnLnvwL1xORxrkqDEibIfdqHih2+jKqT3VU7xKlTn6vsx0I+uE2fR98dDWPhPWpctKR6FGy2ouM0Ec4K+xX/Sj+ZftQ6eV2XJtsDxN/ORc10Pyv6hC9ZHFiNndgy62g4gUxxvrCF4OcU3ozJbHn9gAL73PkbcMiNMx3yYtmGoDdScW86iuaKczC91JoDWNw+gqPqodnzrxlvRsG4mjGHpp0QbP7cDWY3n//yoUhU4/jYFNosRPW9tR9npkHZT78HL7yB/u2yLOUmwFy1FWaYs23cbnGuNMA6cRt1PdqP4XbXMfFTeuwi29AS9rmrbH+qE46d7UTOid5za/uI+ZovzzdC3+D/sRt3Te1CmHisoNQXOTUuQNy8WBvWYZ3rhftWDrNoufb/qpqVw3Zsinh/9+v0nT6PnbAA19+xBlbbl/M+EsiwVDlsq8rRnTFyPtlVt2+WoXPtFWNX7f+cBBB5YAcdq/fr8HYdQ9D3PsOBrPEoeyEDFV8R9ltcVRrRXjTh+qVylqe+WVY14y/eSXCMioqnkAcPtSGo8INeIiGgqmb10Kb65a5dcu3yxh9SFmJMC5zPr9MTkTXfg8NalyJG7RnXiIBoPDYiFWFjX34pO8ZnCOfou3cERwSit58+mFCS/dwDpt+9CUeMpBBISULhxJWpvEvsLlqM6KxnWVAMMMTFQNq9Cza3T4W05jtaTAzDMNsFhN+vHUmXfjLqCRPh37cVCcbysn3ejb3Y8EmWsRhcP+09uhTNvJvyvy3K1x9GTYERh6W1wFcRrpfLuzUDl1+bCOi9WPEXTkfODBTAcD2jD7kwmIxStVGRqLq2GgutheM8jrms70p/rAsxGmOT+QaK+zffOh/LRcRTdsx0Lf3oU3ukGZKxdimo525v7uTeQmHsA7jNi5Uw3ysTxpt2uB6PG8/mIMi1o+nYKbDeIOsVBtOMq1OUmIPDhaXSdFfvFPcgrXoUG9R4gFbVqoEkNssiyleYAfKfFrunxSFso3uekwlW1AvYv96Pu0V2Yds8elP32LIyp81H9r6tgD3sORPtvVQNa8fD82+viWsR9d/XCODsJ9gdvRbkspR3TYYH1o/9C7gbRhk8fh0+cz1rwlcF7BHEXmu5PRfpHh/Trf1C009l4KDLIqDnfM6E+YwXzkaM9Y3KboN5/x1eSkCnvv7Xmf8KRGoD7zS54xb0wpqag+gdJsrQuZ9NKVGZdi57f7tOfZ9dpOUxzAK0vqjmqGIwiIiIiIiK6UjAgdQHK7UtRuEDvsQQ1ELQsdcSX75F6UbblABpPqEGpGJjEZ5zb1qH9gRRY9ALDJMG5UYFyuAO5j/rgEZ+vf+4NOPb3A9MTUPQ3ZmD7PuQ+1IEWrROZAUp/B9Lvel2Ub0XmY11aDyDDX1w/mOhbWXYtTGd64HxO7R3UC/f2VmTt8ofnbsq2oCzdgK7fHUBmaLmdarlYWItWaEGRxqfFNrs4txoImhGPuN+/g6x/2oW0B99GVsVeuLWDRZC+HJVZCcChQ8j68SFxXYBnh16P4UpWz9SCVD7vXi3Hlu/NvajziutXr3WJVmRMF/z5Fg9y7a+jUisLJM/9FJUlO5H2nd1I/s4BuNVgE+KR900LFHSg+KE9yP2t7LF2fQBl33tbvw+b30BmPWDbmAprYgDNtW+g7E1R7kQ3qn68BzVqgDIhKSxoqKxfAceyWHh27UH+DrVNxH13HodHDYTFxEJJ14qJZ3AxrH3HYXvwINzi2rQ2fFOtmLhHOWKfWmjO9TAn9qNtzwH9+vd3IL/iCDz6ZWnO+0xoz5i45g/luqTe/9x/Og6v+jiL+5/o+S0SN4g6P/o20n59Svu8kjJPK6uZY4FD3HdDzx/hCD7Pj76DukPqzhiYl6RoxYiIiIiIiOjKwIDUhKXC+hdhXYo0yoK5cmkMJw4h/57dKHWdhl+LS8XCnGVB26/XwFU8rH9QljjPnAF42g6GDS2r+rBPex8KNB1FpxoUUoMJWw4NlW07BZ+2fZgZM2F7QB06qPM93Y02/ZCa8q9dDxP60e4JH9Dme+4Q3GrgK24m8jfq2wad6UHDi3pAxre/SwuQjMb+jS/CHCOu67cHwq7Lt+N02LrKK641IOrSeURuEILXPx4X+/kgX1vIsMcTHcjaqQdcsGAmSrSNosyAekPFOd/bK4ep+dH8rhpQMsO2zCDa6DTcYTPU9aJsxx+hDq4zLJqLSn0jSr4yE4YBP9xPDw2NxIkDSP/6dkz7+m4Ut6kbliJ/UQx8HYfChsT5jgT0PGRzjCjUtqhikfm1FUO98U544P7Dp3JFOs8zAXSjRw2IjRBAj1pOvf+hwwRf70WnXBx007VQ1B+bM32o17cIvWg8Ia8zZuTPFBEREREREX1+MSA1YR1w/x89+BDKd+S4XDqfXtQ8uhuJG/aian+vHtjQhlrdjM6fpA4NdVtyDUyIQUZhgT40MPjKluOtZhgQMhhvXHzOo2g9EwNz1gq0v3QbnOvUNOAHkLs5mD8qBdZ5amDgLLpCcxVpfPB8qF+3kpKqvU/cfFjnqz3LAuh8T98yKMIse+4ndiNODr+zZC9Gw5Nr0af2rhqni/38qF48pfcMirnq/InUg8nsTwegjiIMs7sHPjWgExMPS566IRWW2eKt7+zIgE4ocd/U4I5yy6rwZ2NjMLF7HBT1eCcOov5gPwzz5sP5zFq0yd54ZZvfHswfdf5n4gKMNWOi2qNQLqrcffJnSQb0iIiIiIiI6MrAgNQF2FJ1APVH5LgnNSH3/g6U/rRbXx+vE0dR9uAupP20A+6T+pdxU7oZtVpgQtA6jKjJudWcSJFeQ8mlx+3EQWT+k0eruyHRiMJ7b0PfL1ahUsuFpDIiWYvXTIfpRm1DmJ4/D+tZM2HB4w+gR+vpc35qUnfXL+5A2/1/CfNJH0q1YWnjd7Gfj0z2DBqPBQY9SDTDECHPWD+C8RhdDOLG01FIlvHujvRcqC+ZQwu9qLD/b71HXowBlki98c77TFwijX+EV22z2QlhObMKE6aL/x+A9z1t7B4RERERERFdIRiQuhAnDqHoOzv0L/+5r2jJosNnE4tkOVxbR/Ys8r15AFl/14pGLUdPLNJvCM2lEwvFfL7cVBOkzn4m6r5QDYR9qCY+T4J90yo5/O9jOfzvKsRdp22IKNA3av+X8xhAQBv6FQdlnbZhTErBKrQ8kIrMs8dRtGEH0n58EHUT6EhzsZ+/JI7JYXSxMUjWNkQi2uUj/V0LUM2IR6bMFTUWZf5iuTQWf3iPvGDi82DgUzXmM3GpeFGxyw9/jBFFP9AT+luyV6Ai3YDAsaNwDI3jIyIiIiIioisAA1JRlDw/CTa5HK4LZe8Ny6Wz/xMtv5CybFGEwEA8HD+5eTDv0IXQAmF//4ZMrD0T+evVrcfh1QJjMTAvHm1YXj/aDxyVyxP1MXq0WFYslCWjBNoGh3TNR+X/kwRTTC8a/1lPSj4xF/v5sVyL5Bni7cOPQ/IhjeLdj+FTg0xxCcgIDQKFUvNLudSF4/BpCerjkXlH6MA2Ke9mNKn5uxr92jENC+eiNkLgKqd8FRoy5UqQ7JGXuUNPTp+5amQwK/Izcem4n3sPzcfEA2BKgfP5ArTdPxeJHxyC7Z/3jSOgS0RERERERJ8nDEhFU+L1sG8alrxcEw/bXIN4H4DvA5m7x3UcbWpwQp2F7fkMlAzGh+JR+MBK2K4+hTK5rg/zikFcyFCoQTExSJSL2LQKroJ4uaLyo/RQSPJs9KL0HT1ht3HJfFSHHU/R8z992I2q4cmQQs8xpqNwevXeVcoNi+EIPf6cGKgtgAQD9LiNAUZtQzhLMGCnmhMflo8ovB4X8PlRGOLCg2fKvYla/i7v/kMjZhMcXlZNIt7wvhqRioU1S52VL0R2EtJmAD5Ph8zp1Istbfpsg6b0RWhYG3KvUs1wrTPAu1NdEec9Io45PQG2H9yKytVD5SyFq1CXEkBNi7qm98oLPafn6Z7w5PHnfSZCTUdyllwcj+nT9dn+NPGwb/0KrF0HkXjnK4O9C5PtnkscLCQiIiIiIqKpgAGpqIqBOftm9DyzAuU3yXTYqSaU/2gV7Iti4D90BBW1+mbAh9KGbnSpPWHmzEX1kwXoe+UO9P16DZy3AE1Or14sVSbChgHmtUMptpXVM6GovXji4pExGNgwwLr+VrjuVWBVg0GpKWhYlgCcPoWGF/USqN+Liv39oqpG2H52MxzLxGfnJMHx8GJY40+j7unWwd4sluzgOYzIKR2apW0s9bUdcKtpnOJmovzJbDR8KwWF31iOln9J1oe0zUhE0cM3o7bAjy4t3VM8cn4k2ivLjNqqbDiXqDmHAPOyW8VnlstZ7gIIqCm94hKQc2+KaM/b0FQ4kc+PTfnKcjQUJInrU4e7ZcC1xojAMR/KHpN5w0T7VC7Q21gxp4YED3Vbqg7q15yyAC1qO4q2V5YtRtP662EUxyndMjRDne/p91B3TNz0mHjkla5Bzy+y0b5tLfoeX4Tk/e+hTAve9KLs347Cqw5/TJgJ+w/W4Nyv1WejAG3rE9G+c+9goCxZnKdlqwU29T7CiJIfJcGMfrTsOagXGM8zkboU6bPUBfGMpQ8FVJW1Ji2ghhkJyAwNihUn6s/CrGuRN9gWi0QdYmEyL4KrfAWcDwy9asUzkDNahzwiIiIiIiL6XJp2TpDLl50bvuvCvg+0MUyfA2pvlY9RXN8P27oU2JYaYVK/zKvOBOD5rRe2Rw/BIzcFKWtXoOFv58IyS+/Z4/+wG3VP70GZOgte3ir0DM6sJqmBkj99EZXiy38oNQF2GrLRd0s8MD0GBtlRKOx4g4woeWAFHLckwKjlnB6A/8QfUef0oOxNvfeMfeu6EedQzz1twz65MoY5KXD+aAny5sVq9QiIOtT8PICcB+Yi8VAX6hoPoEI9z00WtG1KgUVNhN7Xi+b/aEVuYAk6bSaY+vyoqW5FqayPdf0qOL+RBBP64X3zPeSKtvRN4PORBK+x65AfhnlG2Rb98L3nQ8UTB2TPnuVof1UZNuOhmow+mFhcShXXvGnomnFW1HO/D46ng8cJMWc+Ku9fjJIl8XrZ06fRvPsAcmuHAleam5aiyaYgRxxTFRDlGl98B0U7g9ck6vZrNVAo7rcehxPPWi/cr3qQFTzWpvM8ExGeMf/+A0j8cMHQjI+Sur3hC0thmyc3aIJtkYqml5YiZ7SudAMBuH/+BrK2j34/aOq5ZVUj3vK9JNeIiGgqecBwO5LE72RERDT1zF66FN/ctUuuXb4YkCIaRTAgpQXzHpMb6QLFo6R8JWxnD6HhzEy9Z5UmBqZ510KZkwCl9ziy/r51xDBImroYkCIimroYkCIimrqmSkCKQ/aIaNLlbFqJygWnkP/oIWx5ei+KHg2+WpH1vd1Y+L2j8E2PQaQMa0RERERERPT5w4AUEU2ypXCsToBh4NPw4aUhcooS4P9dx/lnLSQiIiIiIqLPBQakiCJJVZBp0nMzJc81w6It0YUJoFNNDbUgBW3b16Dl4RVwqjmyvmGB84Gb0fKLdaibdRy2YJJ4IiIiIiIi+txjQIpoODWR95PLkafNXggYFy9G2/ZVsOurNGEdyLXvxZYWP7pgQMaN81G4xozq9QuQs8wAX+P/RvKD3hEJ/YmIiIiIiOjzi0nNiYhoUjCpORHR1MWk5kREUxeTmhMREREREREREUXAgBQREREREREREUUVA1JERERERERERBRVDEgREREREREREVFUMSBFRERERERERERRxYAUERERERERERFFFQNSREREREREREQUVQxIERERERERERFRVDEgRUREREREREREUcWAFBERERERERERRRUDUkREREREREREFFUMSBERERERERERUVRNOyfI5cvO1//5HblERERTjf/qGhgTzsg1IiKaShb9oR8ZH8+Wa0RENNXc8cILcunydVkHpIiIiIiIiIiI6POHQ/aIiIiIiIiIiCiqGJAiIiIiIiIiIqKoYkCKiIiIiIiIiIiiigEpIiIiIiIiIiKKKgakiIiIiIiIiIgoqhiQIiIiIiIiIiKiqGJAioiIiIiIiIiIoooBKSIiIiIiIiIiiioGpIiIiIiIiIiIKKoYkCIiIiIiIiIioqhiQIqIiIiIiIiIiKKKASkiIiIiIiIiIooqBqSIiIiIiIiIiCiqGJAiIiIiIiIiIqKoYkCKiIiIiIiIiIiiigEpIiIiIiIiIiKKKgakiIiIiIiIiIgoqhiQIiIiIiIiIiKiqGJAioiIiIiIiIiIoooBKSIiIiIiIiIiiioGpIiIiIiIiIiIKKoYkCIiIiIiIiIioqhiQIqIiIiIiIiIiKKKASkiIiIiIiIiIooqBqSIiIiIiIiIiCiqGJAiIiIiIiIiIqKoYkCKiIiIiIiIiIiiigEpIiIiIiIiIiKKKgakiIiIiIiIiIgoqhiQIiIiIiIiIiKiqGJAioiIiIiIiIiIoooBKSIiIiIiIiIiiioGpIiIiIiIiIiIKKoYkCIiIiIiIiIioqhiQIqIiIiIiIiIiKII+P8Dg7n3eNdF3acAAAAASUVORK5CYII=;" vertex="1" parent="1">
          <mxGeometry x="310" y="330" width="1188" height="631" as="geometry" />
        </mxCell>
        <mxCell id="sbGto4yJ8yf5grZlzPR4-2" value="" style="shape=image;verticalLabelPosition=bottom;labelBackgroundColor=default;verticalAlign=top;aspect=fixed;imageAspect=0;image=data:image/png,iVBORw0KGgoAAAANSUhEUgAAAmIAAABQCAYAAAC6exlpAAAAAXNSR0IArs4c6QAAAARnQU1BAACxjwv8YQUAAAAJcEhZcwAADsMAAA7DAcdvqGQAACOnSURBVHhe7d0HlCxF1cDxxpxzVsSAiCIqGBFRDKiYBcUcQEBRUFExYECMgAoqQUEFRUQExIwiZhRzzjlgxJyz3+ev3zT0663q6Z7p2Zndvf9z5rzt2bczHapurlsb/N//KIIgCIIgCIJl5zyjf4MgCIIgCIJlJgyxIAiCIAiCORGGWBAEQRAEwZwIQywIgiAIgmBOhCEWBEEQBEEwJ8IQC4IgCIIgmBNhiAVBEARBEMyJMMSCIAiCIAjmRBhiQRAEQRAEcyIMsSAIgiAIgjkRhlgQBEEQBMGcCEMsCIIgCIJgToQhFgRBEARBMCfCEAuCIAiCIJgTYYgFQRAEQRDMiTDEgiAIgiAI5kQYYkEQBEEQBHMiDLEgCIIgCII5EYZYEARBEATBnAhDLAiCIAiCYE6EIRYEQRAEQTAnNvi//zH6OZiSP/zhD8WHP/zh4u1vf3vxox/9qDzGec973uLKV75yscUWWxTbbbddcdOb3rS4wAUuUP4OHsGLX/zi8v3b3/72o3eDYP7Ux/RPfvKT4re//W35vjF9xStesdhqq62KBz3oQcVGG21Uvj9LzjzzzOI5z3lO8fKXv7y43vWuN3o3CIIUv/zlL8u58pGPfKT497//Xdz4xjcunvGMZxRXv/rVR/8jWBRWnCFGEbzvfe8rX3Vj5yIXuUix8cYbF3e6052K7bffvrjkJS9Zvr8c/PWvfy1e9apXFW95y1uKf/zjH6N381zwghcsDbIdd9yxVCiu4/GPf3yx0047FQ972MNG/ysI5sdf/vKX4ogjjihOPvnk4j//+c/o3TSMssc97nGlQbbBBhuM3h0W57DffvsV733ve8t5ss8++0z9Xebtk570pOIzn/nM6J3JuMQlLlEcfvjhExmHQ51DH252s5sVL33pS0uZuVrpc18PPvjg4ja3uc3oaHXw85//vNQp3//+90fvrOMyl7lMccghhxSbbbbZ6J1gEVgxhlhl3X/gAx8YqxgImN1226144AMfWJzvfOcbvTsbzjrrrOKpT31q8e1vf7s8ppS22Wab0qDadNNNy8iXW/zrX/+6OOOMM4rjjz+++OEPf1j+3yaUWRhiwbz5wQ9+UCqxH//4x6N3iuJqV7tacdBBB5WRrwMOOKB45zvfOfrNOjgXL3rRi2am0L73ve8Ve+yxR+mIXfWqVy1e+cpXFle5ylVGv52eP//5z8Wpp55aHHbYYaUSb8Mcv9e97lU84hGPKCPdQxmfzoEz99rXvnbsOUzDWjDE8N///reM4r7iFa8oo7o5VqMh9rKXvaw47rjjRkfrc5e73KXYf//9y3EcLAYLXyPGiPnoRz9aGlWiYOOMMBBijDaKQ0h2VvA6KKzKCKOMnvnMZ5Zpxhve8IbnpB8J6stf/vLFDjvsUJx00kmlEqFMgmDRMKY5FnUjDLe+9a2LTTbZpBzj17zmNUfvnotI8Pvf//5yvg6Nz2SgVGnRn/70p8XHPvax8uehuNjFLlZG2p72tKeNVVB3uMMdiqc85SmlIThkBNA5PPzhD+90DoyHz372s0ten/zkJ0s5+frXv76MUF784hcf/cXa4zznOU+ZhmPAiwStFei/b33rW6OjpXz9618/J5MULAYLbYgRwAyXpz/96cUf//jH0bvdUdfy5je/eXQ0LLzX5z//+euFfh/ykIcUd7/73VuFs9/xSI8++ujiFre4xejd6aCknvvc546OgmAyODmiMc10Bq5whSuMflp+GIcf//jHR0frkKI0B4dGevHSl7706CiNWs5ZRtpvdKMbFZe73OVGR/1wXowOqacnPvGJ5X3aa6+9SgN6reJ5MnJXMnQh4/vYY48dvROsJhbaEPvQhz5URraE0KXt3vOe95Q5fy8/e69NaFIs73jHO87xpIfktNNOKz3QCoJTyLerh3zZy162OPDAA6c2xqRGjznmmDIMHwTTILL7wQ9+cHSU50pXutKSiA1Ff8c73nHQCFGF6JcoWJ1vfOMbxac//enR0XCIIF3oQhcaHaWZ1Ejqint5/vOff3Q0HT5LlO15z3vemjXGPE8LS1YyX/ziF8vAQhfoy2tf+9qjo6Vc//rXX9Ya6mA8C2uIMTB4ANIAb3vb28raKek9gt7Lz94Tgr/BDW4w+qul/OpXvyrry4aEJ/7ud797vTSpyd43DcBLk8q81rWuVR739fClg9QC/OIXvxi9EwST84UvfKFT5NnKXk5QNd6l6BTSq40cGk6U+d/kX//6V/l+l8UxQVHc7na3KyP2wcrDHFDuYgFNVx784Aefo1fqiJYq84n6sMViIQ0xBg4D61a3ulXx7Gc/u7joRS86+s1SKAE1LVYuLRfqZxQ016EYJlEKin0V/ZoYZ5999ujd8QhVS7sOXSsTrF1SKckU0l8EvYi1qLCos9XKs4iG+XyF+im+9KUvtdbCBOfi2VhgELWpKws1zlbkV3XIXaFXDj300HJeioTSLze5yU2K17zmNbFicgFZSEPMoHnCE55QFsR2qcUQhlVXkYLXPnQYVgTqT3/60+hoHaJup59++kTFylbs9J0clOCRRx7ZafFCEHRhlgtbJoFj8653vSs7xkUI1EBNMufWIpQzZRysDIxrq+y7piSbSMe+8IUvLOsrP/WpT5X6InqILSYLm5qUtutaEGt1Ys7Yuu1tb1sKoCGxJDqFQspmUXEXXKsC4K587WtfK1sIRFomWM2oi/nc5z43OkpjvinmD86FHEoVdYuKbbvttjOJXAbDE8722mGhi/W7oq4l1ZtLIfzuu+++bILHeey7775lqqZv8XzXlVhf/vKXi7333nsmCxCCYFGgfPQqG+dszKKVxUqn2XqkzoYbbhiF2guOSJgWJM961rPC2V4jrApD7Ktf/eqSWhFF/hpMzmLZ8jWucY3RT0vRw+UFL3hBsqtxGze/+c3Lwv02KBwp2zDCgtUOx8qqSKmULbfccvRumnqPsbUO+dNmiOkBRy6u9mauKxVGmJZNGq6GEbZ2WPGGmLSElYOK5XGpS12q7KlF2MyqgJ9X2baEnTf/iU98olydIkL2s5/9bPSbyRBdO+GEE8pFCZP0U2vDxHd+b3zjG4tddtmlLO4Unatejq2Q01R30hoi589Y9kw0td16663X+/zHPvaxZR3EEE0GfZcibnuq3fWudy2jor6HYe4959Gnpsg1u3aRVbV8Pstn3vOe9yyFpe/ynYwG16atwixxPpp2Nq/Pv/e9733LjukcgD7XuGhUEQHGlZYwFrO0tXNgtNVbyaxlyMPczh0rAYakxsBkTl0WkRkWiEjVDb0KflFgeNFl5vCiGGHmIsNe4f/97ne/JbJb8+FpdEMX1ILSTxoU1+U5PW97wNXAit3022kTvnpxNQWPlZQUlSjTLNKS//znP8voVZeeS7D4wMDZc889e2/LwvASYbO10yTktu9gPPhMgq2r4BYJNPj1oelC2zOahHFbszBA9Ev6yle+MnpnKdWzIEDGGeoMVIY0460L0+w5OI6+99Iz0tDTRr85bLu16667Zmsec8zyOuG+64b+t7/9rdyFQtExxSwtn8MKa0v8p+2V1eWezHpLnGnO4cQTTyx3FHG/+myXNslY0LzaJux1HFtgkcI2WVbtpZxY8ship5e85CXF7373u9G7acxhst1+o12Kzxl3bftONu/luP9f0ZRH6vJspzSO1LPrK2vqVPPR+Xb5/tRzS8HgdX02DR9Xp6afp20FOaNtJTZt46OiGid6bcoC0Tm5MeHe66xApq/k2scVFREzWQkKA551TlinlJJBTRDxLmbhWVgcINrV1lajjkHMw7/Pfe7TO0Jm0k5qhOX4zW9+U3bbtmOB+8fAIrzPPPPMUtk7V/eXwKvj/z760Y/uZIDykAgFxmf9GflMgsA1ERxvfetbp17JxUhRT/TQhz70HCOMQmaMix4RJKJHqJ6F62gr8vY7aeBKMDpv98RnVectKla/R5O2MBmHe2knhua95B06D+ejLlEhdoVtTB71qEeVnfJn6a3OgqqBqwaxeiEpLxAZayNaWayTeyLnk8A4MsaqedKG+Wq8pZS598yv+ueYI1XPx5QRxvCxSwmFWincSk74LOP7TW960zkOYJVx0BdNP8ehYwmUu0bi5Fefdh/kj/lYn4ddcP0cyEmMsDrusT01yYlpHRL3XCSarK+MML073RMyVRSs/j2eGx2iJId+yeEZi26Nc+bpeitGn/zkJ7ca5u6dHoazaO68nKwoQ4yAvve9710OhpQBVsfg8cBZ9LNQRCIND3jAA0ZH3agbZF0b9BFsjCMvxmUOQqv6f/VX0/NiYDDCLGfGhS984TK6p0lntTempn88wrvd7W7lcR0Dn3Go4W4O95tnayJVk7iC5+L7FAzzYKR5HevWPgmEsO8hyOtGECFtrPDOGMxaodQNPn15/E2qia7PJPjrNX7qlNw3n1Wdt2Jaz7GKrIngzCJ17PqOOuqo9e6lWh9CzXk4H5FW57P55puP/se68ebv/H1KWVGKmqJWY8UYymHsVf+PcJ5VNEx62q4Z7nN9pwpGWVu38LXeysK81G+qrT5sHOa9ecLAb8O8aovsV01Dq3mhf9ljHvOY5CIBsoLDzLCrj2/zzbn4LGPgOte5TpkZqMsJ16w9g9WFQ0MWirI6965UcuGRj3zkOdfeBYafyG/feVi96vOR02LPVHsdT4pV+ZxYzdArlAaIQLonZKpztmNDs0kwvUIu5ZqT2//zute9bmnk5TCHGe3SoSJsnF+GX07fkvt0/aKkcydhRRliNh6mONQUdd37Tu1RThFNg0lnIHbxIJsQOJqxEmgMs+VSHr7XAK83B5RmTTXMNNmE3lPoo0ZZ5hBZE6GqC1bwcinXZuhaKFqqoYl7awJWAoewqtIAFVocNI0UXiwBWilxEFB3vvOdR0frIDROOeWU0dG5MPI9lzqUSNPL9PkMXYbktB5oDtcnqtW8lzqlN7dtcY7bb7/96Ggd/k76eRbKahZ4JqJ5+gIS2BUUMiO+DbVFfRbIrAZ+//vfl2NVNOTUU08dvTs55okUZVu0v9nMOgWlKELMcBIpyqWrnHuqT5Zoc3OukxNNx9L3aOXDeJgFG2+88ein7ogc9THEhsZ9m3RLJ44QJ7q5+MVcVJtVh/xTJ2Zu1jGHBUvaAiBaSuXukWj4ySefXBrvjHFj0TUZ4wzdFHRan0zTorGiDDHWtMm48847l3lm0a62FYygiEQ3ugiPvhgcao2aKaquCLmKYghL8+5mDW9Z6LqO+2PS2N6mSZswpvCaxgFch/ud8k7UEaQmkgmd2qaKYuHl5wxVQsO5NyOLvMOUINp0002XbENlxV1zAhsrambqCH0L16egHJpG3hC4l4zMVOTUtaRwH5vX6FmouVj0lYXO07w2zzkpTeOWIdYU+nVc39Bp/EVF/R/FKFKo3GFchqAPoinbbbfd6Ggp5sK4yK96PhFiUXUyO4UaJPvkNuWI8bvRRhuNjs6FnGgaA/DcpVVTMmetMmnjVkZxqsbW5zXlChhUKR0sZTyuB2AbMk6iYU1nOpc5oUvbSk0WnRW7apKw1qxVvZhQbJshJMQ6q15DjDERESvoJvGCCCFhebnwodNaTQzUVL6dohehSxlWORhBKcGnhu873/nO6Gh92vbjTNWOQLopF+WooidNKJLUeBAxanrZvC/1RXVSBcueDe8sVZPC2xei5wn3KXYehzH7+c9/fnR0Lu5hTiClrhGintNExZYj0qTGy7NgSKcipAR+6v06DLFFNzgXHXNnxx13zMozK4PVCeWQluLwGaPSbHVlWofSTznIvjcnDxjiyimaOB/R42AduQhkGxxSjmkKcy/1HDlLKeeIbrBwZBLjWBpUtonh1RW6a6XVwtZZsYZYBaXDiFG432aMifhIw80CRqGUm0iQUO0k0TFeprz8LCNjBjZjKIUtm4a4PyJJze2fKrQWqerQmhC8KSONUm0aSnCu0qMp4zHngRMaqTYIzVVBOSHm2VjBw+huRqnUbEkXDiUM2q6PQMwpt9w1+hzXuahRA+dHcLuv5lJKCJtX0tXRymLdIh4yg6OiWDk35idlk002KeuBUnhWIpe5sSQaxlgTKc6dl5RqzjEwtsnUFLnx7VyM7+Uq81iNMGY5pilyMtGczOkUkbVJHFPZDOOvL2GIzRmTVkSirbBSXdOs038GkOJRBpkal74GGcHaVns1LVaqpFJozlOxfsrTHBKfn5vQbcZFqvBTlLPvRrg59KKpG4/qQnLKvlJCenaJyFWC37mLmPVpGdBG2/UxWC3t7ssi11EwoIx/9X1qQXOIdrYtFBhnJKwmyD0OzD3ucY8yMzAuWtgHMkFULFeeIE2fSj25/0oKOFz1xRZNPO+cklb/m4rqjoOzPUQvwrWI52b+5ZjE0M850bNiyGzEcrMqDDFQ8FZi5HLj6hWWy2K25F5NznHHHVdstdVWnQ0yk0FUYFapFffIakhLjKtwMqGnzs1KzjrqN3iYfVEzoBYsBS84F3WTMk3VQiFlvPHchrpPvruesmWwjlsVyFCygikVHRuCtutrixi0sch1FFVKUU1R24o8kTIKvg0GwlpLU0nnyQxIjw+FecChTKEQn8HblKmVQb3NNtsUm2222ejdpUh1k8kp+jqwFebk2WefPToK+sARbWuOmnOgx5EqHQmWsmoMMRDgfVtKzArK0pJrxeR9DDKCbNp+Mm0I7VvFZLWSFA7vlRFGsYvuEJAiO4ql2+pAcngGubCyiGTOEPv73/9eGqJNeOSpQn69aqrdFJpUhczNFwWe8ppET+pKgbIXYXWv2qiiLzo+Dy1w2q5vUpyvyPCiIUqn9o5zMG5lJETM2vo7eZ6pVburHQ5g06GaBuOfHMhFh2243hz3DGpKXQq5Td7NYhxyiDh7QX/cu1nUKJNjQ5S8rHZWlSEGLRdShZ5t9Ul90durawqxbpAddthhnVZ5toWIZwEDTIG9CI/+PwwwCxBsqdQXwlvaLmXEiHjkUmOponQwoOptDCp4v0NBcTRXSar30hC1i/EsetW10W1Xhry+Orn+PujaEmZoqgauxsf973//JQZ082WVcq6WpcIc4tSsNcatLO2LdGcuOkx51/t/eX4MMTJ4XJPmWUSuOC4cuqA/jLBchHIaPI+VXLu1XKw6Q0ydVio9aQVPWzuGvqiR6FMYyiAjoDSes2dam4I3KZar6JRhxOASAdKtmhBnMKaauXZFWiJlxJjoBHdzYjoHvceaiHpYhDEuMtVEO5Cq91jXV7M/keclcqg5YZd6FdE+rUiGNMaWmz6rlIaCYajgfGgqo2CtkWsn0ITxxNnSp68NY4JjlZNX/r4yeDlw0ltWSvads0Gwlll1hhhSQkO9Q5foRlc0EEy1ghgHAWXrHE1pc+cjGjIL76SO9I0onVRGtY0FI0wzv2m6MoMRw7CTImwaMVJQ+r8pqrWNhZYFatSaHcF1Uddxe5KGikPVQbkOBqleZl2Um3s6VL+uWRlFk9Z6zAqRKyvsrNCT6koZyamXhRLjasXWYisL861LDyk1oFpHdKkpu+Utb5kd/+6vNhScR004pUdFLccxi/FNni7a+F4pWPk4VMaojpIXcjRoZyENMdEF28/YakOtwbTd50XC2jY/ngReIIUwCQamuqJcPQzhOMsVjASw1X1WWlVpBXUgin3bCmz7YAJKM5100knlatbKQ/Z93nPt0h6ig/U6EysCLSZwblpC5GhbxePZDBlRZMQ7H/WH44x5KxMZCdMigjuk4wCf18WgXC4YrnbKYJD3jaK4li6tLFbKjgJD0sUQkw4Wjeyy+paDZgVlDo6cUg0GtZqyLqnRtgUZk0J25PqPBe3k+g9OiwjtrFfjrwYWzhCjQG3DQ0BT2moJpHxEb7rkmhUGNgs2eWipOqNpcG42eJ20JQbPjfJJKRJKeFZeBKPH1hHNbY1EJDTIHRqpYpuLS3+a7NWrDsGtrYaU6Omnn16mBMcpZX+Tm+CibJNEK9sgpKw47VLnN4Qh1rb6dFJ8ns9dFKoGru5nlyhKky6tLERg2+riViOcrLY2KqJY5KvxkOsB1aRtgYTCe9FrNYZtrUfqtLWImRQO7LzqHFc6IpSp3QymhRMbjGfhDDEKlDKuQ6C+4Q1vKJtpjjN8FH3Xi3RFw7qsgJsE39XcMqgPBn7TeyScho7eVUgH2qQ6VQhuq5Sh7xGjWi2dSJL9Eglr+wFKGdXTTCKeNvSVAumaWuBR57xfac5vfvObo6P+8OwtXGgqcMaxOj+OAiN66IhVnbbVp21QsjnDQ4QxtfXTPDCnqwaukxaYUx7j0pOepQajwTrMSXWaIrd96maNx7a6UYXynkVXQ58h1iVy14R+yLWLYZQ3nbygG9KSVvb3RQlNbmGRlirj2gAF61g4Q0ztQm4JslYLojm5lXdnnXVWWc9TLfunKO2EPyvDhjI54ogjyu8dCgN32hqtHLktgUyYoVNWopeimHvuuWdpGFtVuPnmmw8W6eP9brHFFqOj9fH8Ge5dopWMFmOmabww5HKrVykvhc7G1qyMMUZxzthTj5MTfsakVF8KK0FnkX6YBIaABRoMsC4tK3KMa2VhLNi2RRo0KMpU7atf/eryZ45Mn/HLWcvVlHmOdhXpOr/bnrsaz9zcJVeM8SYcWOc3dCbBPUrt+LEaaZtL9eBGHYZ9Tt5oO6RmMBjPwhlijIK2nLIeWyIshAllZCBIRzLSdtlll/X2xFObpBZrVmk+CMtLu01SIK7gv942gTBxbblC1mkKUd0ndSEpIeZ3XnUcO79JsXfl8ccff873DR1t80ylM3OfK1qpeLh5XXX8jsEmIlfvoUPZMFjaCu89C6vJUgbsUMJHjWQqtM8LzW0jlYsYiIbNIvU8CZSp++6eu3/TpEv97dZbbz06ShP7EK4b66LRWu9URmnfOq1qG68UVh33dea23377MirXRMuD3PjOdU/nbM/C4TbPc8aqoEGqXYYIbM5R6sI0cn4azKVchDnXbsT1uw9N6LLUxv1BmoUzxHggVsy1wVs68sgjy4ksVaS+SZuBel2QQl6rE5djUPPufVdqA9scIjA89bphZKsSWw3laCtQFyWse5E+3z2pNuBuCyETes2FBxTXCSecMDpaSk4IwblIO9Wv7XWve115Lm2GUV/0KsoZF77bGJHmTn2n9xiKtqMStUspJc9VxDMXTVFf00ypOR5nGHRFmmXnnXdeIsxEeXKp1+9+97tLjG1Ccbfddhublmzr7cTrHerZiYRVuzZMG1FkkG+77bblNebw/DRV7hIhbUvtVjR7zg1Nl3Po0/TZXOUsNvey7bttjXtNRnGW64gQ6+3W91luuOGGZd/C5t+R46ksg/FnfDdxPlah56K9OWOhoq32WM1ZLgroXja3VOK8HnDAAVNFYNtStq6/Pg8FAPbdd98lsn2STfo9X4syUvpXTXFq/rivqQwW3cw4n4S2iP9qZeEMMUpHD6qmguuKyWjVXdf+T0NhoNox3uq6cZPQQNPrqr5X23bbbVfWJbUZjmrKcsWoBACjgxJm8EjhioxUk1qUMSdQQFFRkP7eZq2HHnpo+RxyYXmTL5ciJiyaDTelRAldhnPVmDP1kq7YYYcdyucnytm2d5x7tddee2UjUJ6DhR5ezokx4eXnffbZp7zGXXfdNevlQ1Gzc6lHzCoI+GbEjEc5ZDg+15NN763mdztO9eQaZ+CDMmozxNTd5aIUfeCsqBWs5oh5M227ERHkcUXn0szjIqQwNsZdJ6elTXlPS5dzcC0WIqS6llOYnpddHzgZjKSqRU0F46VNHuRIbQZuG6RJF0NZWd3cI9h5aonRlKPGjl6HdcwLW9u1rfZm2LUZtm31pJyhXAkEg/yYY44p5azxYOXo3nvvXcrytnT5uF0FXEsukiS66+UeKTVR8iF44VXhvjVlQx1pxpQ8A/1C3jX1rygfvVDHXHLNzc8i/zh+bbqMoZWr9ctF/D3DtnvnuoZyFpeb8z5HrHrBMBg23XTTUnh28WJh4KqpOfDAA0tBMclefF1RoC9a0kSkwuQgAClp3fwZMs6FAUDRnXLKKaVnWtVqESTSpwyDcYYjoeBzKILmgDMxNVeUTqsibQyQKgrC23F+zj01WA1+k8rfE+IMRQLhjDPOSEYATHZGiiJ8z4gRVd1zTR1PO+208ue++FzGF2NSPQuFY0I7l9QzdX/9Tto1NVZcK8Xmc6SzvfzM43bfc3VejNLK0KQAFDi7/1IplL7fHXTQQeVGwxVq+7QA6VoA3QXPzfUZT4zt6tnZOsQYpCTcg+p86sa967JQhXJoE4qMaoa4VcA5Qeb7CE6p0kmWoxOi7jtxUzf4jDvK1TV4mcep55HCXGDIqfGrIr85XJcor3khxda8BufHsGEk5iK9FQS+FBkZxQj0jIagzzmYJ+ay+XfUUUet92IcKA3we+eZeqYUNyOo71g1B622ZNiRJyKRVhO3tZppw+cZwxy3ehTHeVO6fmdMmMMWa9X3Q/S+sc3BSz0D1+1zLFDy9zl8JjkpQtccez6XYUGu1zMuFcadaD+5Sf5ymjiSdEDO2DF+qpR8SqbRfwwVC02a1OU0R9X/1YexKmchO40J/6dtLps7dnxJzWWf6XmSgZUxbN5YeOVeMDKdh4wCueF3FerCDjnkkGTKGb7XdXkmziOF/0Oe+Sw61DNgWKo5Tm00X8Gh41y4t11lyKKwwf8eVvppLQAGAQXLOzKRPLjqoTNaCBPemIgGQ2C5ImCUiegTq3+nnXYqlRwlaUJW3koXKDUpTcKmqzDneVm1R+DmvsdAtAqx6aX6W8qaMZjC/RMhIqArj4zAZdBVE7KOwb777ruXkcC6ouc9iVTlPJ5JINzsgZkzKITIXTOBOe7+EzTuO881dd8ZdJQLwdMF90GKVPqnS1+mSTBNjTkCLKUQmoy7RjCwPe9c3U0O0ZTDDz+884qovt9z8MEHt6Y1CHKpqJyi64LvIDP6POccfe9Hnb5jbSgoOYqtmWbsAlnAcaSoOR8+J1fX2hWySZkAR6mL8y19Zr5tueWWo3fWZ5L72vYctVohf3JbazFORZIUvNNTXca77IDm1im95fw112aY5+QZvUHmmes49thjy2fRB1mYXKsTDvl+++23JBKWgr6Q1hSha9PDdCcjtSvOz33qM9+l3Bmq9SjhorPQhtiiYjDxoAy6ppIzgQgohbHqOHg21UQSUVGLZJmw6B0PrKsBVscjY/gdffTRZXTMdzIGCCcNUttaUfA2tI8g8Crv0t9Zmq64sukh+y5RH1EH30kIuw6tJkSTUmm4cQbfJPC8Ca1mWqSOcxW9EtkRZRH1qu69UDuhrXbQZ7RFiNxPkS0NZ/U0Y+QxsN03HnAV9veZhASPXNRqkmfZF/fW+OINM3gr58TzZwQSzlKRjIy2awyCaagcNNF9c2oozD2RPAZIfa4Z3yJIFrAY35zYVDRplnAsZRtEdkVsnBN5bncSRsiQkXCQ1eY6A6uSveQ6WcN4mnXmB3WZSga67soppweUy0gtq9N0HExGGGLBTOji0fVFrQvhvxwGTxAEQRAsB8vrUgRrBuFpaUuRv6FQA6A2IQiCIAhWCxERCwZHLt8Sbqk80TD1E1ZvWQHo51xESxTNS9HuiSeeWC4UqEfT2moqgiAIgmAlEhGxYFDUD+y///5lk1RGlLoJ9WLqCNRUtaUVGVgKLNVmKUrfY489Rr9Zh9WKUfcUBEEQrCbCEAsGxYq2+tZAImAWJfSFwaa4vl4Aa5GDPdGCIAiCYLUQhlgwKBpMWtlXIU05aZdkfZ+qFhhWdlqZEwRBEASriTDEgkHZeOON12vuyBDTZLeta3sTy7Y1UNULBlKWGiVW/XKCIAiCYLUQxfrB4Oh5o+N1fZsNXdP1/7FRt87Mes7U68VsacFY051ay4tqt3+pTTVnbf3DgiAIgmClEoZYMBM0QdX9396HVQPAPjDcdNPfZZddBm+UGARBEASLQhhiwUxRM2aLDDsA2H5I1Ku+2wB0i7Za0tYUOmdrc6Fj83J3zg6CIAiC5SYMsSAIgiAIgjkRIYcgCIIgCII5EYZYEARBEATBnAhDLAiCIAiCYE6EIRYEQRAEQTAnwhALgiAIgiCYE2GIBUEQBEEQzIkwxIIgCIIgCOZEGGJBEARBEARzIgyxIAiCIAiCORGGWBAEQRAEwZwIQywIgiAIgmAuFMX/A883AeRt1d48AAAAAElFTkSuQmCC;" vertex="1" parent="1">
          <mxGeometry x="380" y="200" width="838.75" height="110" as="geometry" />
        </mxCell>
      </root>
    </mxGraphModel>
  </diagram>
</mxfile>
